<?xml version="1.0" encoding="utf-8" standalone="no"?>
<!DOCTYPE svg PUBLIC "-//W3C//DTD SVG 1.1//EN"
  "http://www.w3.org/Graphics/SVG/1.1/DTD/svg11.dtd">
<svg xmlns:xlink="http://www.w3.org/1999/xlink" width="750.96pt" height="347.216pt" viewBox="0 0 750.96 347.216" xmlns="http://www.w3.org/2000/svg" version="1.1">
 <metadata>
  <rdf:RDF xmlns:dc="http://purl.org/dc/elements/1.1/" xmlns:cc="http://creativecommons.org/ns#" xmlns:rdf="http://www.w3.org/1999/02/22-rdf-syntax-ns#">
   <cc:Work>
    <dc:type rdf:resource="http://purl.org/dc/dcmitype/StillImage"/>
    <dc:date>2026-05-27T14:36:59.491499</dc:date>
    <dc:format>image/svg+xml</dc:format>
    <dc:creator>
     <cc:Agent>
      <dc:title>Matplotlib v3.10.8, https://matplotlib.org/</dc:title>
     </cc:Agent>
    </dc:creator>
   </cc:Work>
  </rdf:RDF>
 </metadata>
 <defs>
  <style type="text/css">*{stroke-linejoin: round; stroke-linecap: butt}</style>
 </defs>
 <g id="figure_1">
  <g id="patch_1">
   <path d="M 0 347.216 
L 750.96 347.216 
L 750.96 0 
L 0 0 
z
" style="fill: #ffffff"/>
  </g>
  <g id="axes_1">
   <g id="patch_2">
    <path d="M 140.384549 174.345961 
Q 192.418808 127.76191 222.718657 67.242382 
" clip-path="url(#p475b4f75db)" style="fill: none; stroke: #8b97a4; stroke-width: 1.9; stroke-linecap: round"/>
    <path d="M 216.992049 71.5326 
L 222.718657 67.242382 
L 222.714866 74.397799 
z
" clip-path="url(#p475b4f75db)" style="fill: #8b97a4; stroke: #8b97a4; stroke-width: 1.9; stroke-linecap: round"/>
   </g>
   <g id="patch_3">
    <path d="M 348.454516 61.431232 
Q 396.756175 55.94016 441.158839 40.42539 
" clip-path="url(#p475b4f75db)" style="fill: none; stroke: #8b97a4; stroke-width: 1.4; stroke-linecap: round"/>
    <path d="M 434.061501 39.51556 
L 441.158839 40.42539 
L 436.172572 45.557363 
z
" clip-path="url(#p475b4f75db)" style="fill: #8b97a4; stroke: #8b97a4; stroke-width: 1.4; stroke-linecap: round"/>
   </g>
   <g id="patch_4">
    <path d="M 348.454516 62.088768 
Q 396.756175 67.57984 441.158839 83.09461 
" clip-path="url(#p475b4f75db)" style="fill: none; stroke: #8b97a4; stroke-width: 1.4; stroke-linecap: round"/>
    <path d="M 436.172572 77.962637 
L 441.158839 83.09461 
L 434.061501 84.00444 
z
" clip-path="url(#p475b4f75db)" style="fill: #8b97a4; stroke: #8b97a4; stroke-width: 1.4; stroke-linecap: round"/>
   </g>
   <g id="patch_5">
    <path d="M 141.071531 175.678374 
Q 184.893918 165.559334 220.380122 141.59894 
" clip-path="url(#p475b4f75db)" style="fill: none; stroke: #8b97a4; stroke-width: 1.9; stroke-linecap: round"/>
    <path d="M 213.285307 142.52824 
L 220.380122 141.59894 
L 216.866673 147.832372 
z
" clip-path="url(#p475b4f75db)" style="fill: #8b97a4; stroke: #8b97a4; stroke-width: 1.9; stroke-linecap: round"/>
   </g>
   <g id="patch_6">
    <path d="M 348.454516 137.815232 
Q 396.756175 132.32416 441.158839 116.80939 
" clip-path="url(#p475b4f75db)" style="fill: none; stroke: #8b97a4; stroke-width: 1.4; stroke-linecap: round"/>
    <path d="M 434.061501 115.89956 
L 441.158839 116.80939 
L 436.172572 121.941363 
z
" clip-path="url(#p475b4f75db)" style="fill: #8b97a4; stroke: #8b97a4; stroke-width: 1.4; stroke-linecap: round"/>
   </g>
   <g id="patch_7">
    <path d="M 348.454516 138.472768 
Q 396.756175 143.96384 441.158839 159.47861 
" clip-path="url(#p475b4f75db)" style="fill: none; stroke: #8b97a4; stroke-width: 1.4; stroke-linecap: round"/>
    <path d="M 436.172572 154.346637 
L 441.158839 159.47861 
L 434.061501 160.38844 
z
" clip-path="url(#p475b4f75db)" style="fill: #8b97a4; stroke: #8b97a4; stroke-width: 1.4; stroke-linecap: round"/>
   </g>
   <g id="patch_8">
    <path d="M 141.071531 176.993626 
Q 184.893918 187.112666 220.380122 211.07306 
" clip-path="url(#p475b4f75db)" style="fill: none; stroke: #8b97a4; stroke-width: 1.9; stroke-linecap: round"/>
    <path d="M 216.866673 204.839628 
L 220.380122 211.07306 
L 213.285307 210.14376 
z
" clip-path="url(#p475b4f75db)" style="fill: #8b97a4; stroke: #8b97a4; stroke-width: 1.9; stroke-linecap: round"/>
   </g>
   <g id="patch_9">
    <path d="M 348.454516 214.199232 
Q 396.756175 208.70816 441.158839 193.19339 
" clip-path="url(#p475b4f75db)" style="fill: none; stroke: #8b97a4; stroke-width: 1.4; stroke-linecap: round"/>
    <path d="M 434.061501 192.28356 
L 441.158839 193.19339 
L 436.172572 198.325363 
z
" clip-path="url(#p475b4f75db)" style="fill: #8b97a4; stroke: #8b97a4; stroke-width: 1.4; stroke-linecap: round"/>
   </g>
   <g id="patch_10">
    <path d="M 348.454516 214.856768 
Q 396.756175 220.34784 441.158839 235.86261 
" clip-path="url(#p475b4f75db)" style="fill: none; stroke: #8b97a4; stroke-width: 1.4; stroke-linecap: round"/>
    <path d="M 436.172572 230.730637 
L 441.158839 235.86261 
L 434.061501 236.77244 
z
" clip-path="url(#p475b4f75db)" style="fill: #8b97a4; stroke: #8b97a4; stroke-width: 1.4; stroke-linecap: round"/>
   </g>
   <g id="patch_11">
    <path d="M 140.384549 178.326039 
Q 192.418808 224.91009 222.718657 285.429618 
" clip-path="url(#p475b4f75db)" style="fill: none; stroke: #8b97a4; stroke-width: 1.9; stroke-linecap: round"/>
    <path d="M 222.714866 278.274201 
L 222.718657 285.429618 
L 216.992049 281.1394 
z
" clip-path="url(#p475b4f75db)" style="fill: #8b97a4; stroke: #8b97a4; stroke-width: 1.9; stroke-linecap: round"/>
   </g>
   <g id="patch_12">
    <path d="M 348.454516 290.583232 
Q 396.756175 285.09216 441.158839 269.57739 
" clip-path="url(#p475b4f75db)" style="fill: none; stroke: #8b97a4; stroke-width: 1.4; stroke-linecap: round"/>
    <path d="M 434.061501 268.66756 
L 441.158839 269.57739 
L 436.172572 274.709363 
z
" clip-path="url(#p475b4f75db)" style="fill: #8b97a4; stroke: #8b97a4; stroke-width: 1.4; stroke-linecap: round"/>
   </g>
   <g id="patch_13">
    <path d="M 348.454516 291.240768 
Q 396.756175 296.73184 441.158839 312.24661 
" clip-path="url(#p475b4f75db)" style="fill: none; stroke: #8b97a4; stroke-width: 1.4; stroke-linecap: round"/>
    <path d="M 436.172572 307.114637 
L 441.158839 312.24661 
L 434.061501 313.15644 
z
" clip-path="url(#p475b4f75db)" style="fill: #8b97a4; stroke: #8b97a4; stroke-width: 1.4; stroke-linecap: round"/>
   </g>
   <g id="text_1">
    <!-- Why the reproduction gap? -->
    <g style="fill: #1f2937" transform="translate(18.112 23.568) scale(0.155 -0.155)">
     <defs>
      <path id="DejaVuSans-Bold-57" d="M 191 4666 
L 1344 4666 
L 2150 1275 
L 2950 4666 
L 4109 4666 
L 4909 1275 
L 5716 4666 
L 6859 4666 
L 5759 0 
L 4372 0 
L 3525 3547 
L 2688 0 
L 1300 0 
L 191 4666 
z
" transform="scale(0.015625)"/>
      <path id="DejaVuSans-Bold-68" d="M 4056 2131 
L 4056 0 
L 2931 0 
L 2931 347 
L 2931 1625 
Q 2931 2084 2911 2256 
Q 2891 2428 2841 2509 
Q 2775 2619 2662 2680 
Q 2550 2741 2406 2741 
Q 2056 2741 1856 2470 
Q 1656 2200 1656 1722 
L 1656 0 
L 538 0 
L 538 4863 
L 1656 4863 
L 1656 2988 
Q 1909 3294 2193 3439 
Q 2478 3584 2822 3584 
Q 3428 3584 3742 3212 
Q 4056 2841 4056 2131 
z
" transform="scale(0.015625)"/>
      <path id="DejaVuSans-Bold-79" d="M 78 3500 
L 1197 3500 
L 2138 1125 
L 2938 3500 
L 4056 3500 
L 2584 -331 
Q 2363 -916 2067 -1148 
Q 1772 -1381 1288 -1381 
L 641 -1381 
L 641 -647 
L 991 -647 
Q 1275 -647 1404 -556 
Q 1534 -466 1606 -231 
L 1638 -134 
L 78 3500 
z
" transform="scale(0.015625)"/>
      <path id="DejaVuSans-Bold-20" transform="scale(0.015625)"/>
      <path id="DejaVuSans-Bold-74" d="M 1759 4494 
L 1759 3500 
L 2913 3500 
L 2913 2700 
L 1759 2700 
L 1759 1216 
Q 1759 972 1856 886 
Q 1953 800 2241 800 
L 2816 800 
L 2816 0 
L 1856 0 
Q 1194 0 917 276 
Q 641 553 641 1216 
L 641 2700 
L 84 2700 
L 84 3500 
L 641 3500 
L 641 4494 
L 1759 4494 
z
" transform="scale(0.015625)"/>
      <path id="DejaVuSans-Bold-65" d="M 4031 1759 
L 4031 1441 
L 1416 1441 
Q 1456 1047 1700 850 
Q 1944 653 2381 653 
Q 2734 653 3104 758 
Q 3475 863 3866 1075 
L 3866 213 
Q 3469 63 3072 -14 
Q 2675 -91 2278 -91 
Q 1328 -91 801 392 
Q 275 875 275 1747 
Q 275 2603 792 3093 
Q 1309 3584 2216 3584 
Q 3041 3584 3536 3087 
Q 4031 2591 4031 1759 
z
M 2881 2131 
Q 2881 2450 2695 2645 
Q 2509 2841 2209 2841 
Q 1884 2841 1681 2658 
Q 1478 2475 1428 2131 
L 2881 2131 
z
" transform="scale(0.015625)"/>
      <path id="DejaVuSans-Bold-72" d="M 3138 2547 
Q 2991 2616 2845 2648 
Q 2700 2681 2553 2681 
Q 2122 2681 1889 2404 
Q 1656 2128 1656 1613 
L 1656 0 
L 538 0 
L 538 3500 
L 1656 3500 
L 1656 2925 
Q 1872 3269 2151 3426 
Q 2431 3584 2822 3584 
Q 2878 3584 2943 3579 
Q 3009 3575 3134 3559 
L 3138 2547 
z
" transform="scale(0.015625)"/>
      <path id="DejaVuSans-Bold-70" d="M 1656 506 
L 1656 -1331 
L 538 -1331 
L 538 3500 
L 1656 3500 
L 1656 2988 
Q 1888 3294 2169 3439 
Q 2450 3584 2816 3584 
Q 3463 3584 3878 3070 
Q 4294 2556 4294 1747 
Q 4294 938 3878 423 
Q 3463 -91 2816 -91 
Q 2450 -91 2169 54 
Q 1888 200 1656 506 
z
M 2400 2772 
Q 2041 2772 1848 2508 
Q 1656 2244 1656 1747 
Q 1656 1250 1848 986 
Q 2041 722 2400 722 
Q 2759 722 2948 984 
Q 3138 1247 3138 1747 
Q 3138 2247 2948 2509 
Q 2759 2772 2400 2772 
z
" transform="scale(0.015625)"/>
      <path id="DejaVuSans-Bold-6f" d="M 2203 2784 
Q 1831 2784 1636 2517 
Q 1441 2250 1441 1747 
Q 1441 1244 1636 976 
Q 1831 709 2203 709 
Q 2569 709 2762 976 
Q 2956 1244 2956 1747 
Q 2956 2250 2762 2517 
Q 2569 2784 2203 2784 
z
M 2203 3584 
Q 3106 3584 3614 3096 
Q 4122 2609 4122 1747 
Q 4122 884 3614 396 
Q 3106 -91 2203 -91 
Q 1297 -91 786 396 
Q 275 884 275 1747 
Q 275 2609 786 3096 
Q 1297 3584 2203 3584 
z
" transform="scale(0.015625)"/>
      <path id="DejaVuSans-Bold-64" d="M 2919 2988 
L 2919 4863 
L 4044 4863 
L 4044 0 
L 2919 0 
L 2919 506 
Q 2688 197 2409 53 
Q 2131 -91 1766 -91 
Q 1119 -91 703 423 
Q 288 938 288 1747 
Q 288 2556 703 3070 
Q 1119 3584 1766 3584 
Q 2128 3584 2408 3439 
Q 2688 3294 2919 2988 
z
M 2181 722 
Q 2541 722 2730 984 
Q 2919 1247 2919 1747 
Q 2919 2247 2730 2509 
Q 2541 2772 2181 2772 
Q 1825 2772 1636 2509 
Q 1447 2247 1447 1747 
Q 1447 1247 1636 984 
Q 1825 722 2181 722 
z
" transform="scale(0.015625)"/>
      <path id="DejaVuSans-Bold-75" d="M 500 1363 
L 500 3500 
L 1625 3500 
L 1625 3150 
Q 1625 2866 1622 2436 
Q 1619 2006 1619 1863 
Q 1619 1441 1641 1255 
Q 1663 1069 1716 984 
Q 1784 875 1895 815 
Q 2006 756 2150 756 
Q 2500 756 2700 1025 
Q 2900 1294 2900 1772 
L 2900 3500 
L 4019 3500 
L 4019 0 
L 2900 0 
L 2900 506 
Q 2647 200 2364 54 
Q 2081 -91 1741 -91 
Q 1134 -91 817 281 
Q 500 653 500 1363 
z
" transform="scale(0.015625)"/>
      <path id="DejaVuSans-Bold-63" d="M 3366 3391 
L 3366 2478 
Q 3138 2634 2908 2709 
Q 2678 2784 2431 2784 
Q 1963 2784 1702 2511 
Q 1441 2238 1441 1747 
Q 1441 1256 1702 982 
Q 1963 709 2431 709 
Q 2694 709 2930 787 
Q 3166 866 3366 1019 
L 3366 103 
Q 3103 6 2833 -42 
Q 2563 -91 2291 -91 
Q 1344 -91 809 395 
Q 275 881 275 1747 
Q 275 2613 809 3098 
Q 1344 3584 2291 3584 
Q 2566 3584 2833 3536 
Q 3100 3488 3366 3391 
z
" transform="scale(0.015625)"/>
      <path id="DejaVuSans-Bold-69" d="M 538 3500 
L 1656 3500 
L 1656 0 
L 538 0 
L 538 3500 
z
M 538 4863 
L 1656 4863 
L 1656 3950 
L 538 3950 
L 538 4863 
z
" transform="scale(0.015625)"/>
      <path id="DejaVuSans-Bold-6e" d="M 4056 2131 
L 4056 0 
L 2931 0 
L 2931 347 
L 2931 1631 
Q 2931 2084 2911 2256 
Q 2891 2428 2841 2509 
Q 2775 2619 2662 2680 
Q 2550 2741 2406 2741 
Q 2056 2741 1856 2470 
Q 1656 2200 1656 1722 
L 1656 0 
L 538 0 
L 538 3500 
L 1656 3500 
L 1656 2988 
Q 1909 3294 2193 3439 
Q 2478 3584 2822 3584 
Q 3428 3584 3742 3212 
Q 4056 2841 4056 2131 
z
" transform="scale(0.015625)"/>
      <path id="DejaVuSans-Bold-67" d="M 2919 594 
Q 2688 288 2409 144 
Q 2131 0 1766 0 
Q 1125 0 706 504 
Q 288 1009 288 1791 
Q 288 2575 706 3076 
Q 1125 3578 1766 3578 
Q 2131 3578 2409 3434 
Q 2688 3291 2919 2981 
L 2919 3500 
L 4044 3500 
L 4044 353 
Q 4044 -491 3511 -936 
Q 2978 -1381 1966 -1381 
Q 1638 -1381 1331 -1331 
Q 1025 -1281 716 -1178 
L 716 -306 
Q 1009 -475 1290 -558 
Q 1572 -641 1856 -641 
Q 2406 -641 2662 -400 
Q 2919 -159 2919 353 
L 2919 594 
z
M 2181 2772 
Q 1834 2772 1640 2515 
Q 1447 2259 1447 1791 
Q 1447 1309 1634 1061 
Q 1822 813 2181 813 
Q 2531 813 2725 1069 
Q 2919 1325 2919 1791 
Q 2919 2259 2725 2515 
Q 2531 2772 2181 2772 
z
" transform="scale(0.015625)"/>
      <path id="DejaVuSans-Bold-61" d="M 2106 1575 
Q 1756 1575 1579 1456 
Q 1403 1338 1403 1106 
Q 1403 894 1545 773 
Q 1688 653 1941 653 
Q 2256 653 2472 879 
Q 2688 1106 2688 1447 
L 2688 1575 
L 2106 1575 
z
M 3816 1997 
L 3816 0 
L 2688 0 
L 2688 519 
Q 2463 200 2181 54 
Q 1900 -91 1497 -91 
Q 953 -91 614 226 
Q 275 544 275 1050 
Q 275 1666 698 1953 
Q 1122 2241 2028 2241 
L 2688 2241 
L 2688 2328 
Q 2688 2594 2478 2717 
Q 2269 2841 1825 2841 
Q 1466 2841 1156 2769 
Q 847 2697 581 2553 
L 581 3406 
Q 941 3494 1303 3539 
Q 1666 3584 2028 3584 
Q 2975 3584 3395 3211 
Q 3816 2838 3816 1997 
z
" transform="scale(0.015625)"/>
      <path id="DejaVuSans-Bold-3f" d="M 2216 1575 
L 1088 1575 
L 1088 1728 
Q 1088 1984 1191 2182 
Q 1294 2381 1625 2688 
L 1825 2869 
Q 2003 3031 2086 3175 
Q 2169 3319 2169 3463 
Q 2169 3681 2019 3804 
Q 1869 3928 1600 3928 
Q 1347 3928 1053 3823 
Q 759 3719 441 3513 
L 441 4494 
Q 819 4625 1131 4687 
Q 1444 4750 1734 4750 
Q 2497 4750 2897 4439 
Q 3297 4128 3297 3531 
Q 3297 3225 3175 2983 
Q 3053 2741 2759 2463 
L 2559 2284 
Q 2347 2091 2281 1973 
Q 2216 1856 2216 1716 
L 2216 1575 
z
M 1088 1113 
L 2216 1113 
L 2216 0 
L 1088 0 
L 1088 1113 
z
" transform="scale(0.015625)"/>
     </defs>
     <use xlink:href="#DejaVuSans-Bold-57"/>
     <use xlink:href="#DejaVuSans-Bold-68" transform="translate(110.302734 0)"/>
     <use xlink:href="#DejaVuSans-Bold-79" transform="translate(181.494141 0)"/>
     <use xlink:href="#DejaVuSans-Bold-20" transform="translate(246.679688 0)"/>
     <use xlink:href="#DejaVuSans-Bold-74" transform="translate(281.494141 0)"/>
     <use xlink:href="#DejaVuSans-Bold-68" transform="translate(329.296875 0)"/>
     <use xlink:href="#DejaVuSans-Bold-65" transform="translate(400.488281 0)"/>
     <use xlink:href="#DejaVuSans-Bold-20" transform="translate(468.310547 0)"/>
     <use xlink:href="#DejaVuSans-Bold-72" transform="translate(503.125 0)"/>
     <use xlink:href="#DejaVuSans-Bold-65" transform="translate(552.441406 0)"/>
     <use xlink:href="#DejaVuSans-Bold-70" transform="translate(620.263672 0)"/>
     <use xlink:href="#DejaVuSans-Bold-72" transform="translate(691.845703 0)"/>
     <use xlink:href="#DejaVuSans-Bold-6f" transform="translate(741.162109 0)"/>
     <use xlink:href="#DejaVuSans-Bold-64" transform="translate(809.863281 0)"/>
     <use xlink:href="#DejaVuSans-Bold-75" transform="translate(881.445312 0)"/>
     <use xlink:href="#DejaVuSans-Bold-63" transform="translate(952.636719 0)"/>
     <use xlink:href="#DejaVuSans-Bold-74" transform="translate(1011.914062 0)"/>
     <use xlink:href="#DejaVuSans-Bold-69" transform="translate(1059.716797 0)"/>
     <use xlink:href="#DejaVuSans-Bold-6f" transform="translate(1093.994141 0)"/>
     <use xlink:href="#DejaVuSans-Bold-6e" transform="translate(1162.695312 0)"/>
     <use xlink:href="#DejaVuSans-Bold-20" transform="translate(1233.886719 0)"/>
     <use xlink:href="#DejaVuSans-Bold-67" transform="translate(1268.701172 0)"/>
     <use xlink:href="#DejaVuSans-Bold-61" transform="translate(1340.283203 0)"/>
     <use xlink:href="#DejaVuSans-Bold-70" transform="translate(1407.763672 0)"/>
     <use xlink:href="#DejaVuSans-Bold-3f" transform="translate(1479.345703 0)"/>
    </g>
   </g>
   <g id="patch_14">
    <path d="M 43.73664 203.97936 
L 137.14336 203.97936 
Q 139.87136 203.97936 139.87136 201.25136 
L 139.87136 154.22064 
Q 139.87136 151.49264 137.14336 151.49264 
L 43.73664 151.49264 
Q 41.00864 151.49264 41.00864 154.22064 
L 41.00864 201.25136 
Q 41.00864 203.97936 43.73664 203.97936 
z
" clip-path="url(#p475b4f75db)" style="fill: #0b1020; opacity: 0.16"/>
    <path d="M 42.33664 202.57936 
L 135.74336 202.57936 
Q 138.47136 202.57936 138.47136 199.85136 
L 138.47136 152.82064 
Q 138.47136 150.09264 135.74336 150.09264 
L 42.33664 150.09264 
Q 39.60864 150.09264 39.60864 152.82064 
L 39.60864 199.85136 
Q 39.60864 202.57936 42.33664 202.57936 
z
" clip-path="url(#p475b4f75db)" style="fill: #fde2e2; stroke: #b91c1c; stroke-width: 1.6; stroke-linejoin: miter"/>
   </g>
   <g id="patch_15">
    <path d="M 229.24064 83.26536 
L 344.47136 83.26536 
Q 347.19936 83.26536 347.19936 80.53736 
L 347.19936 45.78264 
Q 347.19936 43.05464 344.47136 43.05464 
L 229.24064 43.05464 
Q 226.51264 43.05464 226.51264 45.78264 
L 226.51264 80.53736 
Q 226.51264 83.26536 229.24064 83.26536 
z
" clip-path="url(#p475b4f75db)" style="fill: #0b1020; opacity: 0.16"/>
    <path d="M 227.84064 81.86536 
L 343.07136 81.86536 
Q 345.79936 81.86536 345.79936 79.13736 
L 345.79936 44.38264 
Q 345.79936 41.65464 343.07136 41.65464 
L 227.84064 41.65464 
Q 225.11264 41.65464 225.11264 44.38264 
L 225.11264 79.13736 
Q 225.11264 81.86536 227.84064 81.86536 
z
" clip-path="url(#p475b4f75db)" style="fill: #e7eaff; stroke: #3b4ab0; stroke-width: 1.6; stroke-linejoin: miter"/>
   </g>
   <g id="patch_16">
    <path d="M 450.44544 51.44816 
L 655.15456 51.44816 
Q 659.51936 51.44816 659.51936 47.08336 
L 659.51936 30.06064 
Q 659.51936 25.69584 655.15456 25.69584 
L 450.44544 25.69584 
Q 446.08064 25.69584 446.08064 30.06064 
L 446.08064 47.08336 
Q 446.08064 51.44816 450.44544 51.44816 
z
" clip-path="url(#p475b4f75db)" style="fill: #ffffff; stroke: #94a3b8; stroke-width: 1.6; stroke-linejoin: miter"/>
   </g>
   <g id="patch_17">
    <path d="M 450.44544 97.82416 
L 655.15456 97.82416 
Q 659.51936 97.82416 659.51936 93.45936 
L 659.51936 76.43664 
Q 659.51936 72.07184 655.15456 72.07184 
L 450.44544 72.07184 
Q 446.08064 72.07184 446.08064 76.43664 
L 446.08064 93.45936 
Q 446.08064 97.82416 450.44544 97.82416 
z
" clip-path="url(#p475b4f75db)" style="fill: #ffffff; stroke: #94a3b8; stroke-width: 1.6; stroke-linejoin: miter"/>
   </g>
   <g id="patch_18">
    <path d="M 229.24064 159.64936 
L 344.47136 159.64936 
Q 347.19936 159.64936 347.19936 156.92136 
L 347.19936 122.16664 
Q 347.19936 119.43864 344.47136 119.43864 
L 229.24064 119.43864 
Q 226.51264 119.43864 226.51264 122.16664 
L 226.51264 156.92136 
Q 226.51264 159.64936 229.24064 159.64936 
z
" clip-path="url(#p475b4f75db)" style="fill: #0b1020; opacity: 0.16"/>
    <path d="M 227.84064 158.24936 
L 343.07136 158.24936 
Q 345.79936 158.24936 345.79936 155.52136 
L 345.79936 120.76664 
Q 345.79936 118.03864 343.07136 118.03864 
L 227.84064 118.03864 
Q 225.11264 118.03864 225.11264 120.76664 
L 225.11264 155.52136 
Q 225.11264 158.24936 227.84064 158.24936 
z
" clip-path="url(#p475b4f75db)" style="fill: #e7eaff; stroke: #3b4ab0; stroke-width: 1.6; stroke-linejoin: miter"/>
   </g>
   <g id="patch_19">
    <path d="M 450.44544 127.83216 
L 655.15456 127.83216 
Q 659.51936 127.83216 659.51936 123.46736 
L 659.51936 106.44464 
Q 659.51936 102.07984 655.15456 102.07984 
L 450.44544 102.07984 
Q 446.08064 102.07984 446.08064 106.44464 
L 446.08064 123.46736 
Q 446.08064 127.83216 450.44544 127.83216 
z
" clip-path="url(#p475b4f75db)" style="fill: #ffffff; stroke: #94a3b8; stroke-width: 1.6; stroke-linejoin: miter"/>
   </g>
   <g id="patch_20">
    <path d="M 450.44544 174.20816 
L 655.15456 174.20816 
Q 659.51936 174.20816 659.51936 169.84336 
L 659.51936 152.82064 
Q 659.51936 148.45584 655.15456 148.45584 
L 450.44544 148.45584 
Q 446.08064 148.45584 446.08064 152.82064 
L 446.08064 169.84336 
Q 446.08064 174.20816 450.44544 174.20816 
z
" clip-path="url(#p475b4f75db)" style="fill: #ffffff; stroke: #94a3b8; stroke-width: 1.6; stroke-linejoin: miter"/>
   </g>
   <g id="patch_21">
    <path d="M 229.24064 236.03336 
L 344.47136 236.03336 
Q 347.19936 236.03336 347.19936 233.30536 
L 347.19936 198.55064 
Q 347.19936 195.82264 344.47136 195.82264 
L 229.24064 195.82264 
Q 226.51264 195.82264 226.51264 198.55064 
L 226.51264 233.30536 
Q 226.51264 236.03336 229.24064 236.03336 
z
" clip-path="url(#p475b4f75db)" style="fill: #0b1020; opacity: 0.16"/>
    <path d="M 227.84064 234.63336 
L 343.07136 234.63336 
Q 345.79936 234.63336 345.79936 231.90536 
L 345.79936 197.15064 
Q 345.79936 194.42264 343.07136 194.42264 
L 227.84064 194.42264 
Q 225.11264 194.42264 225.11264 197.15064 
L 225.11264 231.90536 
Q 225.11264 234.63336 227.84064 234.63336 
z
" clip-path="url(#p475b4f75db)" style="fill: #e7eaff; stroke: #3b4ab0; stroke-width: 1.6; stroke-linejoin: miter"/>
   </g>
   <g id="patch_22">
    <path d="M 450.44544 204.21616 
L 655.15456 204.21616 
Q 659.51936 204.21616 659.51936 199.85136 
L 659.51936 182.82864 
Q 659.51936 178.46384 655.15456 178.46384 
L 450.44544 178.46384 
Q 446.08064 178.46384 446.08064 182.82864 
L 446.08064 199.85136 
Q 446.08064 204.21616 450.44544 204.21616 
z
" clip-path="url(#p475b4f75db)" style="fill: #ffffff; stroke: #94a3b8; stroke-width: 1.6; stroke-linejoin: miter"/>
   </g>
   <g id="patch_23">
    <path d="M 450.44544 250.59216 
L 655.15456 250.59216 
Q 659.51936 250.59216 659.51936 246.22736 
L 659.51936 229.20464 
Q 659.51936 224.83984 655.15456 224.83984 
L 450.44544 224.83984 
Q 446.08064 224.83984 446.08064 229.20464 
L 446.08064 246.22736 
Q 446.08064 250.59216 450.44544 250.59216 
z
" clip-path="url(#p475b4f75db)" style="fill: #ffffff; stroke: #94a3b8; stroke-width: 1.6; stroke-linejoin: miter"/>
   </g>
   <g id="patch_24">
    <path d="M 229.24064 312.41736 
L 344.47136 312.41736 
Q 347.19936 312.41736 347.19936 309.68936 
L 347.19936 274.93464 
Q 347.19936 272.20664 344.47136 272.20664 
L 229.24064 272.20664 
Q 226.51264 272.20664 226.51264 274.93464 
L 226.51264 309.68936 
Q 226.51264 312.41736 229.24064 312.41736 
z
" clip-path="url(#p475b4f75db)" style="fill: #0b1020; opacity: 0.16"/>
    <path d="M 227.84064 311.01736 
L 343.07136 311.01736 
Q 345.79936 311.01736 345.79936 308.28936 
L 345.79936 273.53464 
Q 345.79936 270.80664 343.07136 270.80664 
L 227.84064 270.80664 
Q 225.11264 270.80664 225.11264 273.53464 
L 225.11264 308.28936 
Q 225.11264 311.01736 227.84064 311.01736 
z
" clip-path="url(#p475b4f75db)" style="fill: #e7eaff; stroke: #3b4ab0; stroke-width: 1.6; stroke-linejoin: miter"/>
   </g>
   <g id="patch_25">
    <path d="M 450.44544 280.60016 
L 655.15456 280.60016 
Q 659.51936 280.60016 659.51936 276.23536 
L 659.51936 259.21264 
Q 659.51936 254.84784 655.15456 254.84784 
L 450.44544 254.84784 
Q 446.08064 254.84784 446.08064 259.21264 
L 446.08064 276.23536 
Q 446.08064 280.60016 450.44544 280.60016 
z
" clip-path="url(#p475b4f75db)" style="fill: #ffffff; stroke: #94a3b8; stroke-width: 1.6; stroke-linejoin: miter"/>
   </g>
   <g id="patch_26">
    <path d="M 450.44544 326.97616 
L 655.15456 326.97616 
Q 659.51936 326.97616 659.51936 322.61136 
L 659.51936 305.58864 
Q 659.51936 301.22384 655.15456 301.22384 
L 450.44544 301.22384 
Q 446.08064 301.22384 446.08064 305.58864 
L 446.08064 322.61136 
Q 446.08064 326.97616 450.44544 326.97616 
z
" clip-path="url(#p475b4f75db)" style="fill: #ffffff; stroke: #94a3b8; stroke-width: 1.6; stroke-linejoin: miter"/>
   </g>
   <g id="text_2">
    <!-- Reproduction -->
    <g style="fill: #b91c1c" transform="translate(41.637656 172.737758) scale(0.125 -0.125)">
     <defs>
      <path id="DejaVuSans-Bold-52" d="M 2297 2597 
Q 2675 2597 2839 2737 
Q 3003 2878 3003 3200 
Q 3003 3519 2839 3656 
Q 2675 3794 2297 3794 
L 1791 3794 
L 1791 2597 
L 2297 2597 
z
M 1791 1766 
L 1791 0 
L 588 0 
L 588 4666 
L 2425 4666 
Q 3347 4666 3776 4356 
Q 4206 4047 4206 3378 
Q 4206 2916 3982 2619 
Q 3759 2322 3309 2181 
Q 3556 2125 3751 1926 
Q 3947 1728 4147 1325 
L 4800 0 
L 3519 0 
L 2950 1159 
Q 2778 1509 2601 1637 
Q 2425 1766 2131 1766 
L 1791 1766 
z
" transform="scale(0.015625)"/>
     </defs>
     <use xlink:href="#DejaVuSans-Bold-52"/>
     <use xlink:href="#DejaVuSans-Bold-65" transform="translate(77.001953 0)"/>
     <use xlink:href="#DejaVuSans-Bold-70" transform="translate(144.824219 0)"/>
     <use xlink:href="#DejaVuSans-Bold-72" transform="translate(216.40625 0)"/>
     <use xlink:href="#DejaVuSans-Bold-6f" transform="translate(265.722656 0)"/>
     <use xlink:href="#DejaVuSans-Bold-64" transform="translate(334.423828 0)"/>
     <use xlink:href="#DejaVuSans-Bold-75" transform="translate(406.005859 0)"/>
     <use xlink:href="#DejaVuSans-Bold-63" transform="translate(477.197266 0)"/>
     <use xlink:href="#DejaVuSans-Bold-74" transform="translate(536.474609 0)"/>
     <use xlink:href="#DejaVuSans-Bold-69" transform="translate(584.277344 0)"/>
     <use xlink:href="#DejaVuSans-Bold-6f" transform="translate(618.554688 0)"/>
     <use xlink:href="#DejaVuSans-Bold-6e" transform="translate(687.255859 0)"/>
    </g>
    <!-- gap -->
    <g style="fill: #b91c1c" transform="translate(75.874961 186.735023) scale(0.125 -0.125)">
     <use xlink:href="#DejaVuSans-Bold-67"/>
     <use xlink:href="#DejaVuSans-Bold-61" transform="translate(71.582031 0)"/>
     <use xlink:href="#DejaVuSans-Bold-70" transform="translate(139.0625 0)"/>
    </g>
   </g>
   <g id="text_3">
    <!-- Public pretraining -->
    <g style="fill: #3b4ab0" transform="translate(227.119555 64.888359) scale(0.115 -0.115)">
     <defs>
      <path id="DejaVuSans-Bold-50" d="M 588 4666 
L 2584 4666 
Q 3475 4666 3951 4270 
Q 4428 3875 4428 3144 
Q 4428 2409 3951 2014 
Q 3475 1619 2584 1619 
L 1791 1619 
L 1791 0 
L 588 0 
L 588 4666 
z
M 1791 3794 
L 1791 2491 
L 2456 2491 
Q 2806 2491 2997 2661 
Q 3188 2831 3188 3144 
Q 3188 3456 2997 3625 
Q 2806 3794 2456 3794 
L 1791 3794 
z
" transform="scale(0.015625)"/>
      <path id="DejaVuSans-Bold-62" d="M 2400 722 
Q 2759 722 2948 984 
Q 3138 1247 3138 1747 
Q 3138 2247 2948 2509 
Q 2759 2772 2400 2772 
Q 2041 2772 1848 2508 
Q 1656 2244 1656 1747 
Q 1656 1250 1848 986 
Q 2041 722 2400 722 
z
M 1656 2988 
Q 1888 3294 2169 3439 
Q 2450 3584 2816 3584 
Q 3463 3584 3878 3070 
Q 4294 2556 4294 1747 
Q 4294 938 3878 423 
Q 3463 -91 2816 -91 
Q 2450 -91 2169 54 
Q 1888 200 1656 506 
L 1656 0 
L 538 0 
L 538 4863 
L 1656 4863 
L 1656 2988 
z
" transform="scale(0.015625)"/>
      <path id="DejaVuSans-Bold-6c" d="M 538 4863 
L 1656 4863 
L 1656 0 
L 538 0 
L 538 4863 
z
" transform="scale(0.015625)"/>
     </defs>
     <use xlink:href="#DejaVuSans-Bold-50"/>
     <use xlink:href="#DejaVuSans-Bold-75" transform="translate(73.291016 0)"/>
     <use xlink:href="#DejaVuSans-Bold-62" transform="translate(144.482422 0)"/>
     <use xlink:href="#DejaVuSans-Bold-6c" transform="translate(216.064453 0)"/>
     <use xlink:href="#DejaVuSans-Bold-69" transform="translate(250.341797 0)"/>
     <use xlink:href="#DejaVuSans-Bold-63" transform="translate(284.619141 0)"/>
     <use xlink:href="#DejaVuSans-Bold-20" transform="translate(343.896484 0)"/>
     <use xlink:href="#DejaVuSans-Bold-70" transform="translate(378.710938 0)"/>
     <use xlink:href="#DejaVuSans-Bold-72" transform="translate(450.292969 0)"/>
     <use xlink:href="#DejaVuSans-Bold-65" transform="translate(499.609375 0)"/>
     <use xlink:href="#DejaVuSans-Bold-74" transform="translate(567.431641 0)"/>
     <use xlink:href="#DejaVuSans-Bold-72" transform="translate(615.234375 0)"/>
     <use xlink:href="#DejaVuSans-Bold-61" transform="translate(664.550781 0)"/>
     <use xlink:href="#DejaVuSans-Bold-69" transform="translate(732.03125 0)"/>
     <use xlink:href="#DejaVuSans-Bold-6e" transform="translate(766.308594 0)"/>
     <use xlink:href="#DejaVuSans-Bold-69" transform="translate(837.5 0)"/>
     <use xlink:href="#DejaVuSans-Bold-6e" transform="translate(871.777344 0)"/>
     <use xlink:href="#DejaVuSans-Bold-67" transform="translate(942.96875 0)"/>
    </g>
   </g>
   <g id="text_4">
    <!-- JFT-300M not public -->
    <g style="fill: #1f2937" transform="translate(507.781094 41.110625) scale(0.092 -0.092)">
     <defs>
      <path id="DejaVuSans-4a" d="M 628 4666 
L 1259 4666 
L 1259 325 
Q 1259 -519 939 -900 
Q 619 -1281 -91 -1281 
L -331 -1281 
L -331 -750 
L -134 -750 
Q 284 -750 456 -515 
Q 628 -281 628 325 
L 628 4666 
z
" transform="scale(0.015625)"/>
      <path id="DejaVuSans-46" d="M 628 4666 
L 3309 4666 
L 3309 4134 
L 1259 4134 
L 1259 2759 
L 3109 2759 
L 3109 2228 
L 1259 2228 
L 1259 0 
L 628 0 
L 628 4666 
z
" transform="scale(0.015625)"/>
      <path id="DejaVuSans-54" d="M -19 4666 
L 3928 4666 
L 3928 4134 
L 2272 4134 
L 2272 0 
L 1638 0 
L 1638 4134 
L -19 4134 
L -19 4666 
z
" transform="scale(0.015625)"/>
      <path id="DejaVuSans-2d" d="M 313 2009 
L 1997 2009 
L 1997 1497 
L 313 1497 
L 313 2009 
z
" transform="scale(0.015625)"/>
      <path id="DejaVuSans-33" d="M 2597 2516 
Q 3050 2419 3304 2112 
Q 3559 1806 3559 1356 
Q 3559 666 3084 287 
Q 2609 -91 1734 -91 
Q 1441 -91 1130 -33 
Q 819 25 488 141 
L 488 750 
Q 750 597 1062 519 
Q 1375 441 1716 441 
Q 2309 441 2620 675 
Q 2931 909 2931 1356 
Q 2931 1769 2642 2001 
Q 2353 2234 1838 2234 
L 1294 2234 
L 1294 2753 
L 1863 2753 
Q 2328 2753 2575 2939 
Q 2822 3125 2822 3475 
Q 2822 3834 2567 4026 
Q 2313 4219 1838 4219 
Q 1578 4219 1281 4162 
Q 984 4106 628 3988 
L 628 4550 
Q 988 4650 1302 4700 
Q 1616 4750 1894 4750 
Q 2613 4750 3031 4423 
Q 3450 4097 3450 3541 
Q 3450 3153 3228 2886 
Q 3006 2619 2597 2516 
z
" transform="scale(0.015625)"/>
      <path id="DejaVuSans-30" d="M 2034 4250 
Q 1547 4250 1301 3770 
Q 1056 3291 1056 2328 
Q 1056 1369 1301 889 
Q 1547 409 2034 409 
Q 2525 409 2770 889 
Q 3016 1369 3016 2328 
Q 3016 3291 2770 3770 
Q 2525 4250 2034 4250 
z
M 2034 4750 
Q 2819 4750 3233 4129 
Q 3647 3509 3647 2328 
Q 3647 1150 3233 529 
Q 2819 -91 2034 -91 
Q 1250 -91 836 529 
Q 422 1150 422 2328 
Q 422 3509 836 4129 
Q 1250 4750 2034 4750 
z
" transform="scale(0.015625)"/>
      <path id="DejaVuSans-4d" d="M 628 4666 
L 1569 4666 
L 2759 1491 
L 3956 4666 
L 4897 4666 
L 4897 0 
L 4281 0 
L 4281 4097 
L 3078 897 
L 2444 897 
L 1241 4097 
L 1241 0 
L 628 0 
L 628 4666 
z
" transform="scale(0.015625)"/>
      <path id="DejaVuSans-20" transform="scale(0.015625)"/>
      <path id="DejaVuSans-6e" d="M 3513 2113 
L 3513 0 
L 2938 0 
L 2938 2094 
Q 2938 2591 2744 2837 
Q 2550 3084 2163 3084 
Q 1697 3084 1428 2787 
Q 1159 2491 1159 1978 
L 1159 0 
L 581 0 
L 581 3500 
L 1159 3500 
L 1159 2956 
Q 1366 3272 1645 3428 
Q 1925 3584 2291 3584 
Q 2894 3584 3203 3211 
Q 3513 2838 3513 2113 
z
" transform="scale(0.015625)"/>
      <path id="DejaVuSans-6f" d="M 1959 3097 
Q 1497 3097 1228 2736 
Q 959 2375 959 1747 
Q 959 1119 1226 758 
Q 1494 397 1959 397 
Q 2419 397 2687 759 
Q 2956 1122 2956 1747 
Q 2956 2369 2687 2733 
Q 2419 3097 1959 3097 
z
M 1959 3584 
Q 2709 3584 3137 3096 
Q 3566 2609 3566 1747 
Q 3566 888 3137 398 
Q 2709 -91 1959 -91 
Q 1206 -91 779 398 
Q 353 888 353 1747 
Q 353 2609 779 3096 
Q 1206 3584 1959 3584 
z
" transform="scale(0.015625)"/>
      <path id="DejaVuSans-74" d="M 1172 4494 
L 1172 3500 
L 2356 3500 
L 2356 3053 
L 1172 3053 
L 1172 1153 
Q 1172 725 1289 603 
Q 1406 481 1766 481 
L 2356 481 
L 2356 0 
L 1766 0 
Q 1100 0 847 248 
Q 594 497 594 1153 
L 594 3053 
L 172 3053 
L 172 3500 
L 594 3500 
L 594 4494 
L 1172 4494 
z
" transform="scale(0.015625)"/>
      <path id="DejaVuSans-70" d="M 1159 525 
L 1159 -1331 
L 581 -1331 
L 581 3500 
L 1159 3500 
L 1159 2969 
Q 1341 3281 1617 3432 
Q 1894 3584 2278 3584 
Q 2916 3584 3314 3078 
Q 3713 2572 3713 1747 
Q 3713 922 3314 415 
Q 2916 -91 2278 -91 
Q 1894 -91 1617 61 
Q 1341 213 1159 525 
z
M 3116 1747 
Q 3116 2381 2855 2742 
Q 2594 3103 2138 3103 
Q 1681 3103 1420 2742 
Q 1159 2381 1159 1747 
Q 1159 1113 1420 752 
Q 1681 391 2138 391 
Q 2594 391 2855 752 
Q 3116 1113 3116 1747 
z
" transform="scale(0.015625)"/>
      <path id="DejaVuSans-75" d="M 544 1381 
L 544 3500 
L 1119 3500 
L 1119 1403 
Q 1119 906 1312 657 
Q 1506 409 1894 409 
Q 2359 409 2629 706 
Q 2900 1003 2900 1516 
L 2900 3500 
L 3475 3500 
L 3475 0 
L 2900 0 
L 2900 538 
Q 2691 219 2414 64 
Q 2138 -91 1772 -91 
Q 1169 -91 856 284 
Q 544 659 544 1381 
z
M 1991 3584 
L 1991 3584 
z
" transform="scale(0.015625)"/>
      <path id="DejaVuSans-62" d="M 3116 1747 
Q 3116 2381 2855 2742 
Q 2594 3103 2138 3103 
Q 1681 3103 1420 2742 
Q 1159 2381 1159 1747 
Q 1159 1113 1420 752 
Q 1681 391 2138 391 
Q 2594 391 2855 752 
Q 3116 1113 3116 1747 
z
M 1159 2969 
Q 1341 3281 1617 3432 
Q 1894 3584 2278 3584 
Q 2916 3584 3314 3078 
Q 3713 2572 3713 1747 
Q 3713 922 3314 415 
Q 2916 -91 2278 -91 
Q 1894 -91 1617 61 
Q 1341 213 1159 525 
L 1159 0 
L 581 0 
L 581 4863 
L 1159 4863 
L 1159 2969 
z
" transform="scale(0.015625)"/>
      <path id="DejaVuSans-6c" d="M 603 4863 
L 1178 4863 
L 1178 0 
L 603 0 
L 603 4863 
z
" transform="scale(0.015625)"/>
      <path id="DejaVuSans-69" d="M 603 3500 
L 1178 3500 
L 1178 0 
L 603 0 
L 603 3500 
z
M 603 4863 
L 1178 4863 
L 1178 4134 
L 603 4134 
L 603 4863 
z
" transform="scale(0.015625)"/>
      <path id="DejaVuSans-63" d="M 3122 3366 
L 3122 2828 
Q 2878 2963 2633 3030 
Q 2388 3097 2138 3097 
Q 1578 3097 1268 2742 
Q 959 2388 959 1747 
Q 959 1106 1268 751 
Q 1578 397 2138 397 
Q 2388 397 2633 464 
Q 2878 531 3122 666 
L 3122 134 
Q 2881 22 2623 -34 
Q 2366 -91 2075 -91 
Q 1284 -91 818 406 
Q 353 903 353 1747 
Q 353 2603 823 3093 
Q 1294 3584 2113 3584 
Q 2378 3584 2631 3529 
Q 2884 3475 3122 3366 
z
" transform="scale(0.015625)"/>
     </defs>
     <use xlink:href="#DejaVuSans-4a"/>
     <use xlink:href="#DejaVuSans-46" transform="translate(29.492188 0)"/>
     <use xlink:href="#DejaVuSans-54" transform="translate(85.261719 0)"/>
     <use xlink:href="#DejaVuSans-2d" transform="translate(137.220703 0)"/>
     <use xlink:href="#DejaVuSans-33" transform="translate(173.304688 0)"/>
     <use xlink:href="#DejaVuSans-30" transform="translate(236.927734 0)"/>
     <use xlink:href="#DejaVuSans-30" transform="translate(300.550781 0)"/>
     <use xlink:href="#DejaVuSans-4d" transform="translate(364.173828 0)"/>
     <use xlink:href="#DejaVuSans-20" transform="translate(450.453125 0)"/>
     <use xlink:href="#DejaVuSans-6e" transform="translate(482.240234 0)"/>
     <use xlink:href="#DejaVuSans-6f" transform="translate(545.619141 0)"/>
     <use xlink:href="#DejaVuSans-74" transform="translate(606.800781 0)"/>
     <use xlink:href="#DejaVuSans-20" transform="translate(646.009766 0)"/>
     <use xlink:href="#DejaVuSans-70" transform="translate(677.796875 0)"/>
     <use xlink:href="#DejaVuSans-75" transform="translate(741.273438 0)"/>
     <use xlink:href="#DejaVuSans-62" transform="translate(804.652344 0)"/>
     <use xlink:href="#DejaVuSans-6c" transform="translate(868.128906 0)"/>
     <use xlink:href="#DejaVuSans-69" transform="translate(895.912109 0)"/>
     <use xlink:href="#DejaVuSans-63" transform="translate(923.695312 0)"/>
    </g>
   </g>
   <g id="text_5">
    <!-- Food2K helps only slightly -->
    <g style="fill: #1f2937" transform="translate(492.780062 87.486625) scale(0.092 -0.092)">
     <defs>
      <path id="DejaVuSans-64" d="M 2906 2969 
L 2906 4863 
L 3481 4863 
L 3481 0 
L 2906 0 
L 2906 525 
Q 2725 213 2448 61 
Q 2172 -91 1784 -91 
Q 1150 -91 751 415 
Q 353 922 353 1747 
Q 353 2572 751 3078 
Q 1150 3584 1784 3584 
Q 2172 3584 2448 3432 
Q 2725 3281 2906 2969 
z
M 947 1747 
Q 947 1113 1208 752 
Q 1469 391 1925 391 
Q 2381 391 2643 752 
Q 2906 1113 2906 1747 
Q 2906 2381 2643 2742 
Q 2381 3103 1925 3103 
Q 1469 3103 1208 2742 
Q 947 2381 947 1747 
z
" transform="scale(0.015625)"/>
      <path id="DejaVuSans-32" d="M 1228 531 
L 3431 531 
L 3431 0 
L 469 0 
L 469 531 
Q 828 903 1448 1529 
Q 2069 2156 2228 2338 
Q 2531 2678 2651 2914 
Q 2772 3150 2772 3378 
Q 2772 3750 2511 3984 
Q 2250 4219 1831 4219 
Q 1534 4219 1204 4116 
Q 875 4013 500 3803 
L 500 4441 
Q 881 4594 1212 4672 
Q 1544 4750 1819 4750 
Q 2544 4750 2975 4387 
Q 3406 4025 3406 3419 
Q 3406 3131 3298 2873 
Q 3191 2616 2906 2266 
Q 2828 2175 2409 1742 
Q 1991 1309 1228 531 
z
" transform="scale(0.015625)"/>
      <path id="DejaVuSans-4b" d="M 628 4666 
L 1259 4666 
L 1259 2694 
L 3353 4666 
L 4166 4666 
L 1850 2491 
L 4331 0 
L 3500 0 
L 1259 2247 
L 1259 0 
L 628 0 
L 628 4666 
z
" transform="scale(0.015625)"/>
      <path id="DejaVuSans-68" d="M 3513 2113 
L 3513 0 
L 2938 0 
L 2938 2094 
Q 2938 2591 2744 2837 
Q 2550 3084 2163 3084 
Q 1697 3084 1428 2787 
Q 1159 2491 1159 1978 
L 1159 0 
L 581 0 
L 581 4863 
L 1159 4863 
L 1159 2956 
Q 1366 3272 1645 3428 
Q 1925 3584 2291 3584 
Q 2894 3584 3203 3211 
Q 3513 2838 3513 2113 
z
" transform="scale(0.015625)"/>
      <path id="DejaVuSans-65" d="M 3597 1894 
L 3597 1613 
L 953 1613 
Q 991 1019 1311 708 
Q 1631 397 2203 397 
Q 2534 397 2845 478 
Q 3156 559 3463 722 
L 3463 178 
Q 3153 47 2828 -22 
Q 2503 -91 2169 -91 
Q 1331 -91 842 396 
Q 353 884 353 1716 
Q 353 2575 817 3079 
Q 1281 3584 2069 3584 
Q 2775 3584 3186 3129 
Q 3597 2675 3597 1894 
z
M 3022 2063 
Q 3016 2534 2758 2815 
Q 2500 3097 2075 3097 
Q 1594 3097 1305 2825 
Q 1016 2553 972 2059 
L 3022 2063 
z
" transform="scale(0.015625)"/>
      <path id="DejaVuSans-73" d="M 2834 3397 
L 2834 2853 
Q 2591 2978 2328 3040 
Q 2066 3103 1784 3103 
Q 1356 3103 1142 2972 
Q 928 2841 928 2578 
Q 928 2378 1081 2264 
Q 1234 2150 1697 2047 
L 1894 2003 
Q 2506 1872 2764 1633 
Q 3022 1394 3022 966 
Q 3022 478 2636 193 
Q 2250 -91 1575 -91 
Q 1294 -91 989 -36 
Q 684 19 347 128 
L 347 722 
Q 666 556 975 473 
Q 1284 391 1588 391 
Q 1994 391 2212 530 
Q 2431 669 2431 922 
Q 2431 1156 2273 1281 
Q 2116 1406 1581 1522 
L 1381 1569 
Q 847 1681 609 1914 
Q 372 2147 372 2553 
Q 372 3047 722 3315 
Q 1072 3584 1716 3584 
Q 2034 3584 2315 3537 
Q 2597 3491 2834 3397 
z
" transform="scale(0.015625)"/>
      <path id="DejaVuSans-79" d="M 2059 -325 
Q 1816 -950 1584 -1140 
Q 1353 -1331 966 -1331 
L 506 -1331 
L 506 -850 
L 844 -850 
Q 1081 -850 1212 -737 
Q 1344 -625 1503 -206 
L 1606 56 
L 191 3500 
L 800 3500 
L 1894 763 
L 2988 3500 
L 3597 3500 
L 2059 -325 
z
" transform="scale(0.015625)"/>
      <path id="DejaVuSans-67" d="M 2906 1791 
Q 2906 2416 2648 2759 
Q 2391 3103 1925 3103 
Q 1463 3103 1205 2759 
Q 947 2416 947 1791 
Q 947 1169 1205 825 
Q 1463 481 1925 481 
Q 2391 481 2648 825 
Q 2906 1169 2906 1791 
z
M 3481 434 
Q 3481 -459 3084 -895 
Q 2688 -1331 1869 -1331 
Q 1566 -1331 1297 -1286 
Q 1028 -1241 775 -1147 
L 775 -588 
Q 1028 -725 1275 -790 
Q 1522 -856 1778 -856 
Q 2344 -856 2625 -561 
Q 2906 -266 2906 331 
L 2906 616 
Q 2728 306 2450 153 
Q 2172 0 1784 0 
Q 1141 0 747 490 
Q 353 981 353 1791 
Q 353 2603 747 3093 
Q 1141 3584 1784 3584 
Q 2172 3584 2450 3431 
Q 2728 3278 2906 2969 
L 2906 3500 
L 3481 3500 
L 3481 434 
z
" transform="scale(0.015625)"/>
     </defs>
     <use xlink:href="#DejaVuSans-46"/>
     <use xlink:href="#DejaVuSans-6f" transform="translate(53.894531 0)"/>
     <use xlink:href="#DejaVuSans-6f" transform="translate(115.076172 0)"/>
     <use xlink:href="#DejaVuSans-64" transform="translate(176.257812 0)"/>
     <use xlink:href="#DejaVuSans-32" transform="translate(239.734375 0)"/>
     <use xlink:href="#DejaVuSans-4b" transform="translate(303.357422 0)"/>
     <use xlink:href="#DejaVuSans-20" transform="translate(368.933594 0)"/>
     <use xlink:href="#DejaVuSans-68" transform="translate(400.720703 0)"/>
     <use xlink:href="#DejaVuSans-65" transform="translate(464.099609 0)"/>
     <use xlink:href="#DejaVuSans-6c" transform="translate(525.623047 0)"/>
     <use xlink:href="#DejaVuSans-70" transform="translate(553.40625 0)"/>
     <use xlink:href="#DejaVuSans-73" transform="translate(616.882812 0)"/>
     <use xlink:href="#DejaVuSans-20" transform="translate(668.982422 0)"/>
     <use xlink:href="#DejaVuSans-6f" transform="translate(700.769531 0)"/>
     <use xlink:href="#DejaVuSans-6e" transform="translate(761.951172 0)"/>
     <use xlink:href="#DejaVuSans-6c" transform="translate(825.330078 0)"/>
     <use xlink:href="#DejaVuSans-79" transform="translate(853.113281 0)"/>
     <use xlink:href="#DejaVuSans-20" transform="translate(912.292969 0)"/>
     <use xlink:href="#DejaVuSans-73" transform="translate(944.080078 0)"/>
     <use xlink:href="#DejaVuSans-6c" transform="translate(996.179688 0)"/>
     <use xlink:href="#DejaVuSans-69" transform="translate(1023.962891 0)"/>
     <use xlink:href="#DejaVuSans-67" transform="translate(1051.746094 0)"/>
     <use xlink:href="#DejaVuSans-68" transform="translate(1115.222656 0)"/>
     <use xlink:href="#DejaVuSans-74" transform="translate(1178.601562 0)"/>
     <use xlink:href="#DejaVuSans-6c" transform="translate(1217.810547 0)"/>
     <use xlink:href="#DejaVuSans-79" transform="translate(1245.59375 0)"/>
    </g>
   </g>
   <g id="text_6">
    <!-- Input / cache -->
    <g style="fill: #3b4ab0" transform="translate(243.471117 141.317281) scale(0.115 -0.115)">
     <defs>
      <path id="DejaVuSans-Bold-49" d="M 588 4666 
L 1791 4666 
L 1791 0 
L 588 0 
L 588 4666 
z
" transform="scale(0.015625)"/>
      <path id="DejaVuSans-Bold-2f" d="M 1644 4666 
L 2338 4666 
L 691 -594 
L 0 -594 
L 1644 4666 
z
" transform="scale(0.015625)"/>
     </defs>
     <use xlink:href="#DejaVuSans-Bold-49"/>
     <use xlink:href="#DejaVuSans-Bold-6e" transform="translate(37.207031 0)"/>
     <use xlink:href="#DejaVuSans-Bold-70" transform="translate(108.398438 0)"/>
     <use xlink:href="#DejaVuSans-Bold-75" transform="translate(179.980469 0)"/>
     <use xlink:href="#DejaVuSans-Bold-74" transform="translate(251.171875 0)"/>
     <use xlink:href="#DejaVuSans-Bold-20" transform="translate(298.974609 0)"/>
     <use xlink:href="#DejaVuSans-Bold-2f" transform="translate(333.789062 0)"/>
     <use xlink:href="#DejaVuSans-Bold-20" transform="translate(370.3125 0)"/>
     <use xlink:href="#DejaVuSans-Bold-63" transform="translate(405.126953 0)"/>
     <use xlink:href="#DejaVuSans-Bold-61" transform="translate(464.404297 0)"/>
     <use xlink:href="#DejaVuSans-Bold-63" transform="translate(531.884766 0)"/>
     <use xlink:href="#DejaVuSans-Bold-68" transform="translate(591.162109 0)"/>
     <use xlink:href="#DejaVuSans-Bold-65" transform="translate(662.353516 0)"/>
    </g>
   </g>
   <g id="text_7">
    <!-- 6-frame side-angle sampling -->
    <g style="fill: #1f2937" transform="translate(486.794312 117.494625) scale(0.092 -0.092)">
     <defs>
      <path id="DejaVuSans-36" d="M 2113 2584 
Q 1688 2584 1439 2293 
Q 1191 2003 1191 1497 
Q 1191 994 1439 701 
Q 1688 409 2113 409 
Q 2538 409 2786 701 
Q 3034 994 3034 1497 
Q 3034 2003 2786 2293 
Q 2538 2584 2113 2584 
z
M 3366 4563 
L 3366 3988 
Q 3128 4100 2886 4159 
Q 2644 4219 2406 4219 
Q 1781 4219 1451 3797 
Q 1122 3375 1075 2522 
Q 1259 2794 1537 2939 
Q 1816 3084 2150 3084 
Q 2853 3084 3261 2657 
Q 3669 2231 3669 1497 
Q 3669 778 3244 343 
Q 2819 -91 2113 -91 
Q 1303 -91 875 529 
Q 447 1150 447 2328 
Q 447 3434 972 4092 
Q 1497 4750 2381 4750 
Q 2619 4750 2861 4703 
Q 3103 4656 3366 4563 
z
" transform="scale(0.015625)"/>
      <path id="DejaVuSans-66" d="M 2375 4863 
L 2375 4384 
L 1825 4384 
Q 1516 4384 1395 4259 
Q 1275 4134 1275 3809 
L 1275 3500 
L 2222 3500 
L 2222 3053 
L 1275 3053 
L 1275 0 
L 697 0 
L 697 3053 
L 147 3053 
L 147 3500 
L 697 3500 
L 697 3744 
Q 697 4328 969 4595 
Q 1241 4863 1831 4863 
L 2375 4863 
z
" transform="scale(0.015625)"/>
      <path id="DejaVuSans-72" d="M 2631 2963 
Q 2534 3019 2420 3045 
Q 2306 3072 2169 3072 
Q 1681 3072 1420 2755 
Q 1159 2438 1159 1844 
L 1159 0 
L 581 0 
L 581 3500 
L 1159 3500 
L 1159 2956 
Q 1341 3275 1631 3429 
Q 1922 3584 2338 3584 
Q 2397 3584 2469 3576 
Q 2541 3569 2628 3553 
L 2631 2963 
z
" transform="scale(0.015625)"/>
      <path id="DejaVuSans-61" d="M 2194 1759 
Q 1497 1759 1228 1600 
Q 959 1441 959 1056 
Q 959 750 1161 570 
Q 1363 391 1709 391 
Q 2188 391 2477 730 
Q 2766 1069 2766 1631 
L 2766 1759 
L 2194 1759 
z
M 3341 1997 
L 3341 0 
L 2766 0 
L 2766 531 
Q 2569 213 2275 61 
Q 1981 -91 1556 -91 
Q 1019 -91 701 211 
Q 384 513 384 1019 
Q 384 1609 779 1909 
Q 1175 2209 1959 2209 
L 2766 2209 
L 2766 2266 
Q 2766 2663 2505 2880 
Q 2244 3097 1772 3097 
Q 1472 3097 1187 3025 
Q 903 2953 641 2809 
L 641 3341 
Q 956 3463 1253 3523 
Q 1550 3584 1831 3584 
Q 2591 3584 2966 3190 
Q 3341 2797 3341 1997 
z
" transform="scale(0.015625)"/>
      <path id="DejaVuSans-6d" d="M 3328 2828 
Q 3544 3216 3844 3400 
Q 4144 3584 4550 3584 
Q 5097 3584 5394 3201 
Q 5691 2819 5691 2113 
L 5691 0 
L 5113 0 
L 5113 2094 
Q 5113 2597 4934 2840 
Q 4756 3084 4391 3084 
Q 3944 3084 3684 2787 
Q 3425 2491 3425 1978 
L 3425 0 
L 2847 0 
L 2847 2094 
Q 2847 2600 2669 2842 
Q 2491 3084 2119 3084 
Q 1678 3084 1418 2786 
Q 1159 2488 1159 1978 
L 1159 0 
L 581 0 
L 581 3500 
L 1159 3500 
L 1159 2956 
Q 1356 3278 1631 3431 
Q 1906 3584 2284 3584 
Q 2666 3584 2933 3390 
Q 3200 3197 3328 2828 
z
" transform="scale(0.015625)"/>
     </defs>
     <use xlink:href="#DejaVuSans-36"/>
     <use xlink:href="#DejaVuSans-2d" transform="translate(63.623047 0)"/>
     <use xlink:href="#DejaVuSans-66" transform="translate(99.707031 0)"/>
     <use xlink:href="#DejaVuSans-72" transform="translate(134.912109 0)"/>
     <use xlink:href="#DejaVuSans-61" transform="translate(176.025391 0)"/>
     <use xlink:href="#DejaVuSans-6d" transform="translate(237.304688 0)"/>
     <use xlink:href="#DejaVuSans-65" transform="translate(334.716797 0)"/>
     <use xlink:href="#DejaVuSans-20" transform="translate(396.240234 0)"/>
     <use xlink:href="#DejaVuSans-73" transform="translate(428.027344 0)"/>
     <use xlink:href="#DejaVuSans-69" transform="translate(480.126953 0)"/>
     <use xlink:href="#DejaVuSans-64" transform="translate(507.910156 0)"/>
     <use xlink:href="#DejaVuSans-65" transform="translate(571.386719 0)"/>
     <use xlink:href="#DejaVuSans-2d" transform="translate(632.910156 0)"/>
     <use xlink:href="#DejaVuSans-61" transform="translate(668.994141 0)"/>
     <use xlink:href="#DejaVuSans-6e" transform="translate(730.273438 0)"/>
     <use xlink:href="#DejaVuSans-67" transform="translate(793.652344 0)"/>
     <use xlink:href="#DejaVuSans-6c" transform="translate(857.128906 0)"/>
     <use xlink:href="#DejaVuSans-65" transform="translate(884.912109 0)"/>
     <use xlink:href="#DejaVuSans-20" transform="translate(946.435547 0)"/>
     <use xlink:href="#DejaVuSans-73" transform="translate(978.222656 0)"/>
     <use xlink:href="#DejaVuSans-61" transform="translate(1030.322266 0)"/>
     <use xlink:href="#DejaVuSans-6d" transform="translate(1091.601562 0)"/>
     <use xlink:href="#DejaVuSans-70" transform="translate(1189.013672 0)"/>
     <use xlink:href="#DejaVuSans-6c" transform="translate(1252.490234 0)"/>
     <use xlink:href="#DejaVuSans-69" transform="translate(1280.273438 0)"/>
     <use xlink:href="#DejaVuSans-6e" transform="translate(1308.056641 0)"/>
     <use xlink:href="#DejaVuSans-67" transform="translate(1371.435547 0)"/>
    </g>
   </g>
   <g id="text_8">
    <!-- 3 missing DPF depth dishes -->
    <g style="fill: #1f2937" transform="translate(489.273281 163.870625) scale(0.092 -0.092)">
     <defs>
      <path id="DejaVuSans-44" d="M 1259 4147 
L 1259 519 
L 2022 519 
Q 2988 519 3436 956 
Q 3884 1394 3884 2338 
Q 3884 3275 3436 3711 
Q 2988 4147 2022 4147 
L 1259 4147 
z
M 628 4666 
L 1925 4666 
Q 3281 4666 3915 4102 
Q 4550 3538 4550 2338 
Q 4550 1131 3912 565 
Q 3275 0 1925 0 
L 628 0 
L 628 4666 
z
" transform="scale(0.015625)"/>
      <path id="DejaVuSans-50" d="M 1259 4147 
L 1259 2394 
L 2053 2394 
Q 2494 2394 2734 2622 
Q 2975 2850 2975 3272 
Q 2975 3691 2734 3919 
Q 2494 4147 2053 4147 
L 1259 4147 
z
M 628 4666 
L 2053 4666 
Q 2838 4666 3239 4311 
Q 3641 3956 3641 3272 
Q 3641 2581 3239 2228 
Q 2838 1875 2053 1875 
L 1259 1875 
L 1259 0 
L 628 0 
L 628 4666 
z
" transform="scale(0.015625)"/>
     </defs>
     <use xlink:href="#DejaVuSans-33"/>
     <use xlink:href="#DejaVuSans-20" transform="translate(63.623047 0)"/>
     <use xlink:href="#DejaVuSans-6d" transform="translate(95.410156 0)"/>
     <use xlink:href="#DejaVuSans-69" transform="translate(192.822266 0)"/>
     <use xlink:href="#DejaVuSans-73" transform="translate(220.605469 0)"/>
     <use xlink:href="#DejaVuSans-73" transform="translate(272.705078 0)"/>
     <use xlink:href="#DejaVuSans-69" transform="translate(324.804688 0)"/>
     <use xlink:href="#DejaVuSans-6e" transform="translate(352.587891 0)"/>
     <use xlink:href="#DejaVuSans-67" transform="translate(415.966797 0)"/>
     <use xlink:href="#DejaVuSans-20" transform="translate(479.443359 0)"/>
     <use xlink:href="#DejaVuSans-44" transform="translate(511.230469 0)"/>
     <use xlink:href="#DejaVuSans-50" transform="translate(588.232422 0)"/>
     <use xlink:href="#DejaVuSans-46" transform="translate(648.535156 0)"/>
     <use xlink:href="#DejaVuSans-20" transform="translate(706.054688 0)"/>
     <use xlink:href="#DejaVuSans-64" transform="translate(737.841797 0)"/>
     <use xlink:href="#DejaVuSans-65" transform="translate(801.318359 0)"/>
     <use xlink:href="#DejaVuSans-70" transform="translate(862.841797 0)"/>
     <use xlink:href="#DejaVuSans-74" transform="translate(926.318359 0)"/>
     <use xlink:href="#DejaVuSans-68" transform="translate(965.527344 0)"/>
     <use xlink:href="#DejaVuSans-20" transform="translate(1028.90625 0)"/>
     <use xlink:href="#DejaVuSans-64" transform="translate(1060.693359 0)"/>
     <use xlink:href="#DejaVuSans-69" transform="translate(1124.169922 0)"/>
     <use xlink:href="#DejaVuSans-73" transform="translate(1151.953125 0)"/>
     <use xlink:href="#DejaVuSans-68" transform="translate(1204.052734 0)"/>
     <use xlink:href="#DejaVuSans-65" transform="translate(1267.431641 0)"/>
     <use xlink:href="#DejaVuSans-73" transform="translate(1328.955078 0)"/>
    </g>
   </g>
   <g id="text_9">
    <!-- Implementation -->
    <g style="fill: #3b4ab0" transform="translate(233.961156 217.701281) scale(0.115 -0.115)">
     <defs>
      <path id="DejaVuSans-Bold-6d" d="M 3781 2919 
Q 3994 3244 4286 3414 
Q 4578 3584 4928 3584 
Q 5531 3584 5847 3212 
Q 6163 2841 6163 2131 
L 6163 0 
L 5038 0 
L 5038 1825 
Q 5041 1866 5042 1909 
Q 5044 1953 5044 2034 
Q 5044 2406 4934 2573 
Q 4825 2741 4581 2741 
Q 4263 2741 4089 2478 
Q 3916 2216 3909 1719 
L 3909 0 
L 2784 0 
L 2784 1825 
Q 2784 2406 2684 2573 
Q 2584 2741 2328 2741 
Q 2006 2741 1831 2477 
Q 1656 2213 1656 1722 
L 1656 0 
L 531 0 
L 531 3500 
L 1656 3500 
L 1656 2988 
Q 1863 3284 2130 3434 
Q 2397 3584 2719 3584 
Q 3081 3584 3359 3409 
Q 3638 3234 3781 2919 
z
" transform="scale(0.015625)"/>
     </defs>
     <use xlink:href="#DejaVuSans-Bold-49"/>
     <use xlink:href="#DejaVuSans-Bold-6d" transform="translate(37.207031 0)"/>
     <use xlink:href="#DejaVuSans-Bold-70" transform="translate(141.40625 0)"/>
     <use xlink:href="#DejaVuSans-Bold-6c" transform="translate(212.988281 0)"/>
     <use xlink:href="#DejaVuSans-Bold-65" transform="translate(247.265625 0)"/>
     <use xlink:href="#DejaVuSans-Bold-6d" transform="translate(315.087891 0)"/>
     <use xlink:href="#DejaVuSans-Bold-65" transform="translate(419.287109 0)"/>
     <use xlink:href="#DejaVuSans-Bold-6e" transform="translate(487.109375 0)"/>
     <use xlink:href="#DejaVuSans-Bold-74" transform="translate(558.300781 0)"/>
     <use xlink:href="#DejaVuSans-Bold-61" transform="translate(606.103516 0)"/>
     <use xlink:href="#DejaVuSans-Bold-74" transform="translate(673.583984 0)"/>
     <use xlink:href="#DejaVuSans-Bold-69" transform="translate(721.386719 0)"/>
     <use xlink:href="#DejaVuSans-Bold-6f" transform="translate(755.664062 0)"/>
     <use xlink:href="#DejaVuSans-Bold-6e" transform="translate(824.365234 0)"/>
    </g>
   </g>
   <g id="text_10">
    <!-- InceptionV3 ≠ InceptionV2 / JFT -->
    <g style="fill: #1f2937" transform="translate(479.942469 193.878625) scale(0.092 -0.092)">
     <defs>
      <path id="DejaVuSans-49" d="M 628 4666 
L 1259 4666 
L 1259 0 
L 628 0 
L 628 4666 
z
" transform="scale(0.015625)"/>
      <path id="DejaVuSans-56" d="M 1831 0 
L 50 4666 
L 709 4666 
L 2188 738 
L 3669 4666 
L 4325 4666 
L 2547 0 
L 1831 0 
z
" transform="scale(0.015625)"/>
      <path id="DejaVuSans-2260" d="M 678 2906 
L 3091 2906 
L 3891 3891 
L 4281 3572 
L 3738 2906 
L 4684 2906 
L 4684 2381 
L 3309 2381 
L 2700 1631 
L 4684 1631 
L 4684 1100 
L 2266 1100 
L 1459 122 
L 1069 441 
L 1613 1100 
L 678 1100 
L 678 1631 
L 2047 1631 
L 2656 2381 
L 678 2381 
L 678 2906 
z
" transform="scale(0.015625)"/>
      <path id="DejaVuSans-2f" d="M 1625 4666 
L 2156 4666 
L 531 -594 
L 0 -594 
L 1625 4666 
z
" transform="scale(0.015625)"/>
     </defs>
     <use xlink:href="#DejaVuSans-49"/>
     <use xlink:href="#DejaVuSans-6e" transform="translate(29.492188 0)"/>
     <use xlink:href="#DejaVuSans-63" transform="translate(92.871094 0)"/>
     <use xlink:href="#DejaVuSans-65" transform="translate(147.851562 0)"/>
     <use xlink:href="#DejaVuSans-70" transform="translate(209.375 0)"/>
     <use xlink:href="#DejaVuSans-74" transform="translate(272.851562 0)"/>
     <use xlink:href="#DejaVuSans-69" transform="translate(312.060547 0)"/>
     <use xlink:href="#DejaVuSans-6f" transform="translate(339.84375 0)"/>
     <use xlink:href="#DejaVuSans-6e" transform="translate(401.025391 0)"/>
     <use xlink:href="#DejaVuSans-56" transform="translate(464.404297 0)"/>
     <use xlink:href="#DejaVuSans-33" transform="translate(532.8125 0)"/>
     <use xlink:href="#DejaVuSans-20" transform="translate(596.435547 0)"/>
     <use xlink:href="#DejaVuSans-2260" transform="translate(628.222656 0)"/>
     <use xlink:href="#DejaVuSans-20" transform="translate(712.011719 0)"/>
     <use xlink:href="#DejaVuSans-49" transform="translate(743.798828 0)"/>
     <use xlink:href="#DejaVuSans-6e" transform="translate(773.291016 0)"/>
     <use xlink:href="#DejaVuSans-63" transform="translate(836.669922 0)"/>
     <use xlink:href="#DejaVuSans-65" transform="translate(891.650391 0)"/>
     <use xlink:href="#DejaVuSans-70" transform="translate(953.173828 0)"/>
     <use xlink:href="#DejaVuSans-74" transform="translate(1016.650391 0)"/>
     <use xlink:href="#DejaVuSans-69" transform="translate(1055.859375 0)"/>
     <use xlink:href="#DejaVuSans-6f" transform="translate(1083.642578 0)"/>
     <use xlink:href="#DejaVuSans-6e" transform="translate(1144.824219 0)"/>
     <use xlink:href="#DejaVuSans-56" transform="translate(1208.203125 0)"/>
     <use xlink:href="#DejaVuSans-32" transform="translate(1276.611328 0)"/>
     <use xlink:href="#DejaVuSans-20" transform="translate(1340.234375 0)"/>
     <use xlink:href="#DejaVuSans-2f" transform="translate(1372.021484 0)"/>
     <use xlink:href="#DejaVuSans-20" transform="translate(1405.712891 0)"/>
     <use xlink:href="#DejaVuSans-4a" transform="translate(1437.5 0)"/>
     <use xlink:href="#DejaVuSans-46" transform="translate(1466.992188 0)"/>
     <use xlink:href="#DejaVuSans-54" transform="translate(1522.761719 0)"/>
    </g>
   </g>
   <g id="text_11">
    <!-- Depth Anything V2 ≠ paper's -->
    <g style="fill: #1f2937" transform="translate(485.354656 240.254625) scale(0.092 -0.092)">
     <defs>
      <path id="DejaVuSans-41" d="M 2188 4044 
L 1331 1722 
L 3047 1722 
L 2188 4044 
z
M 1831 4666 
L 2547 4666 
L 4325 0 
L 3669 0 
L 3244 1197 
L 1141 1197 
L 716 0 
L 50 0 
L 1831 4666 
z
" transform="scale(0.015625)"/>
      <path id="DejaVuSans-27" d="M 1147 4666 
L 1147 2931 
L 616 2931 
L 616 4666 
L 1147 4666 
z
" transform="scale(0.015625)"/>
     </defs>
     <use xlink:href="#DejaVuSans-44"/>
     <use xlink:href="#DejaVuSans-65" transform="translate(77.001953 0)"/>
     <use xlink:href="#DejaVuSans-70" transform="translate(138.525391 0)"/>
     <use xlink:href="#DejaVuSans-74" transform="translate(202.001953 0)"/>
     <use xlink:href="#DejaVuSans-68" transform="translate(241.210938 0)"/>
     <use xlink:href="#DejaVuSans-20" transform="translate(304.589844 0)"/>
     <use xlink:href="#DejaVuSans-41" transform="translate(336.376953 0)"/>
     <use xlink:href="#DejaVuSans-6e" transform="translate(404.785156 0)"/>
     <use xlink:href="#DejaVuSans-79" transform="translate(468.164062 0)"/>
     <use xlink:href="#DejaVuSans-74" transform="translate(527.34375 0)"/>
     <use xlink:href="#DejaVuSans-68" transform="translate(566.552734 0)"/>
     <use xlink:href="#DejaVuSans-69" transform="translate(629.931641 0)"/>
     <use xlink:href="#DejaVuSans-6e" transform="translate(657.714844 0)"/>
     <use xlink:href="#DejaVuSans-67" transform="translate(721.09375 0)"/>
     <use xlink:href="#DejaVuSans-20" transform="translate(784.570312 0)"/>
     <use xlink:href="#DejaVuSans-56" transform="translate(816.357422 0)"/>
     <use xlink:href="#DejaVuSans-32" transform="translate(884.765625 0)"/>
     <use xlink:href="#DejaVuSans-20" transform="translate(948.388672 0)"/>
     <use xlink:href="#DejaVuSans-2260" transform="translate(980.175781 0)"/>
     <use xlink:href="#DejaVuSans-20" transform="translate(1063.964844 0)"/>
     <use xlink:href="#DejaVuSans-70" transform="translate(1095.751953 0)"/>
     <use xlink:href="#DejaVuSans-61" transform="translate(1159.228516 0)"/>
     <use xlink:href="#DejaVuSans-70" transform="translate(1220.507812 0)"/>
     <use xlink:href="#DejaVuSans-65" transform="translate(1283.984375 0)"/>
     <use xlink:href="#DejaVuSans-72" transform="translate(1345.507812 0)"/>
     <use xlink:href="#DejaVuSans-27" transform="translate(1386.621094 0)"/>
     <use xlink:href="#DejaVuSans-73" transform="translate(1414.111328 0)"/>
    </g>
   </g>
   <g id="text_12">
    <!-- Dataset scale -->
    <g style="fill: #3b4ab0" transform="translate(241.518812 294.085281) scale(0.115 -0.115)">
     <defs>
      <path id="DejaVuSans-Bold-44" d="M 1791 3756 
L 1791 909 
L 2222 909 
Q 2959 909 3348 1275 
Q 3738 1641 3738 2338 
Q 3738 3031 3350 3393 
Q 2963 3756 2222 3756 
L 1791 3756 
z
M 588 4666 
L 1856 4666 
Q 2919 4666 3439 4514 
Q 3959 4363 4331 4000 
Q 4659 3684 4818 3271 
Q 4978 2859 4978 2338 
Q 4978 1809 4818 1395 
Q 4659 981 4331 666 
Q 3956 303 3431 151 
Q 2906 0 1856 0 
L 588 0 
L 588 4666 
z
" transform="scale(0.015625)"/>
      <path id="DejaVuSans-Bold-73" d="M 3272 3391 
L 3272 2541 
Q 2913 2691 2578 2766 
Q 2244 2841 1947 2841 
Q 1628 2841 1473 2761 
Q 1319 2681 1319 2516 
Q 1319 2381 1436 2309 
Q 1553 2238 1856 2203 
L 2053 2175 
Q 2913 2066 3209 1816 
Q 3506 1566 3506 1031 
Q 3506 472 3093 190 
Q 2681 -91 1863 -91 
Q 1516 -91 1145 -36 
Q 775 19 384 128 
L 384 978 
Q 719 816 1070 734 
Q 1422 653 1784 653 
Q 2113 653 2278 743 
Q 2444 834 2444 1013 
Q 2444 1163 2330 1236 
Q 2216 1309 1875 1350 
L 1678 1375 
Q 931 1469 631 1722 
Q 331 1975 331 2491 
Q 331 3047 712 3315 
Q 1094 3584 1881 3584 
Q 2191 3584 2531 3537 
Q 2872 3491 3272 3391 
z
" transform="scale(0.015625)"/>
     </defs>
     <use xlink:href="#DejaVuSans-Bold-44"/>
     <use xlink:href="#DejaVuSans-Bold-61" transform="translate(83.007812 0)"/>
     <use xlink:href="#DejaVuSans-Bold-74" transform="translate(150.488281 0)"/>
     <use xlink:href="#DejaVuSans-Bold-61" transform="translate(198.291016 0)"/>
     <use xlink:href="#DejaVuSans-Bold-73" transform="translate(265.771484 0)"/>
     <use xlink:href="#DejaVuSans-Bold-65" transform="translate(325.292969 0)"/>
     <use xlink:href="#DejaVuSans-Bold-74" transform="translate(393.115234 0)"/>
     <use xlink:href="#DejaVuSans-Bold-20" transform="translate(440.917969 0)"/>
     <use xlink:href="#DejaVuSans-Bold-73" transform="translate(475.732422 0)"/>
     <use xlink:href="#DejaVuSans-Bold-63" transform="translate(535.253906 0)"/>
     <use xlink:href="#DejaVuSans-Bold-61" transform="translate(594.53125 0)"/>
     <use xlink:href="#DejaVuSans-Bold-6c" transform="translate(662.011719 0)"/>
     <use xlink:href="#DejaVuSans-Bold-65" transform="translate(696.289062 0)"/>
    </g>
   </g>
   <g id="text_13">
    <!-- macros weakly visible in 2D -->
    <g style="fill: #1f2937" transform="translate(488.683906 270.262625) scale(0.092 -0.092)">
     <defs>
      <path id="DejaVuSans-77" d="M 269 3500 
L 844 3500 
L 1563 769 
L 2278 3500 
L 2956 3500 
L 3675 769 
L 4391 3500 
L 4966 3500 
L 4050 0 
L 3372 0 
L 2619 2869 
L 1863 0 
L 1184 0 
L 269 3500 
z
" transform="scale(0.015625)"/>
      <path id="DejaVuSans-6b" d="M 581 4863 
L 1159 4863 
L 1159 1991 
L 2875 3500 
L 3609 3500 
L 1753 1863 
L 3688 0 
L 2938 0 
L 1159 1709 
L 1159 0 
L 581 0 
L 581 4863 
z
" transform="scale(0.015625)"/>
      <path id="DejaVuSans-76" d="M 191 3500 
L 800 3500 
L 1894 563 
L 2988 3500 
L 3597 3500 
L 2284 0 
L 1503 0 
L 191 3500 
z
" transform="scale(0.015625)"/>
     </defs>
     <use xlink:href="#DejaVuSans-6d"/>
     <use xlink:href="#DejaVuSans-61" transform="translate(97.412109 0)"/>
     <use xlink:href="#DejaVuSans-63" transform="translate(158.691406 0)"/>
     <use xlink:href="#DejaVuSans-72" transform="translate(213.671875 0)"/>
     <use xlink:href="#DejaVuSans-6f" transform="translate(252.535156 0)"/>
     <use xlink:href="#DejaVuSans-73" transform="translate(313.716797 0)"/>
     <use xlink:href="#DejaVuSans-20" transform="translate(365.816406 0)"/>
     <use xlink:href="#DejaVuSans-77" transform="translate(397.603516 0)"/>
     <use xlink:href="#DejaVuSans-65" transform="translate(479.390625 0)"/>
     <use xlink:href="#DejaVuSans-61" transform="translate(540.914062 0)"/>
     <use xlink:href="#DejaVuSans-6b" transform="translate(602.193359 0)"/>
     <use xlink:href="#DejaVuSans-6c" transform="translate(660.103516 0)"/>
     <use xlink:href="#DejaVuSans-79" transform="translate(687.886719 0)"/>
     <use xlink:href="#DejaVuSans-20" transform="translate(747.066406 0)"/>
     <use xlink:href="#DejaVuSans-76" transform="translate(778.853516 0)"/>
     <use xlink:href="#DejaVuSans-69" transform="translate(838.033203 0)"/>
     <use xlink:href="#DejaVuSans-73" transform="translate(865.816406 0)"/>
     <use xlink:href="#DejaVuSans-69" transform="translate(917.916016 0)"/>
     <use xlink:href="#DejaVuSans-62" transform="translate(945.699219 0)"/>
     <use xlink:href="#DejaVuSans-6c" transform="translate(1009.175781 0)"/>
     <use xlink:href="#DejaVuSans-65" transform="translate(1036.958984 0)"/>
     <use xlink:href="#DejaVuSans-20" transform="translate(1098.482422 0)"/>
     <use xlink:href="#DejaVuSans-69" transform="translate(1130.269531 0)"/>
     <use xlink:href="#DejaVuSans-6e" transform="translate(1158.052734 0)"/>
     <use xlink:href="#DejaVuSans-20" transform="translate(1221.431641 0)"/>
     <use xlink:href="#DejaVuSans-32" transform="translate(1253.21875 0)"/>
     <use xlink:href="#DejaVuSans-44" transform="translate(1316.841797 0)"/>
    </g>
   </g>
   <g id="text_14">
    <!-- too small for bigger backbones -->
    <g style="fill: #1f2937" transform="translate(481.3735 316.638625) scale(0.092 -0.092)">
     <use xlink:href="#DejaVuSans-74"/>
     <use xlink:href="#DejaVuSans-6f" transform="translate(39.208984 0)"/>
     <use xlink:href="#DejaVuSans-6f" transform="translate(100.390625 0)"/>
     <use xlink:href="#DejaVuSans-20" transform="translate(161.572266 0)"/>
     <use xlink:href="#DejaVuSans-73" transform="translate(193.359375 0)"/>
     <use xlink:href="#DejaVuSans-6d" transform="translate(245.458984 0)"/>
     <use xlink:href="#DejaVuSans-61" transform="translate(342.871094 0)"/>
     <use xlink:href="#DejaVuSans-6c" transform="translate(404.150391 0)"/>
     <use xlink:href="#DejaVuSans-6c" transform="translate(431.933594 0)"/>
     <use xlink:href="#DejaVuSans-20" transform="translate(459.716797 0)"/>
     <use xlink:href="#DejaVuSans-66" transform="translate(491.503906 0)"/>
     <use xlink:href="#DejaVuSans-6f" transform="translate(526.708984 0)"/>
     <use xlink:href="#DejaVuSans-72" transform="translate(587.890625 0)"/>
     <use xlink:href="#DejaVuSans-20" transform="translate(629.003906 0)"/>
     <use xlink:href="#DejaVuSans-62" transform="translate(660.791016 0)"/>
     <use xlink:href="#DejaVuSans-69" transform="translate(724.267578 0)"/>
     <use xlink:href="#DejaVuSans-67" transform="translate(752.050781 0)"/>
     <use xlink:href="#DejaVuSans-67" transform="translate(815.527344 0)"/>
     <use xlink:href="#DejaVuSans-65" transform="translate(879.003906 0)"/>
     <use xlink:href="#DejaVuSans-72" transform="translate(940.527344 0)"/>
     <use xlink:href="#DejaVuSans-20" transform="translate(981.640625 0)"/>
     <use xlink:href="#DejaVuSans-62" transform="translate(1013.427734 0)"/>
     <use xlink:href="#DejaVuSans-61" transform="translate(1076.904297 0)"/>
     <use xlink:href="#DejaVuSans-63" transform="translate(1138.183594 0)"/>
     <use xlink:href="#DejaVuSans-6b" transform="translate(1193.164062 0)"/>
     <use xlink:href="#DejaVuSans-62" transform="translate(1251.074219 0)"/>
     <use xlink:href="#DejaVuSans-6f" transform="translate(1314.550781 0)"/>
     <use xlink:href="#DejaVuSans-6e" transform="translate(1375.732422 0)"/>
     <use xlink:href="#DejaVuSans-65" transform="translate(1439.111328 0)"/>
     <use xlink:href="#DejaVuSans-73" transform="translate(1500.634766 0)"/>
    </g>
   </g>
  </g>
 </g>
 <defs>
  <clipPath id="p475b4f75db">
   <rect x="7.2" y="7.2" width="736.56" height="332.816"/>
  </clipPath>
 </defs>
</svg>
