<?xml version="1.0" encoding="utf-8" standalone="no"?>
<!DOCTYPE svg PUBLIC "-//W3C//DTD SVG 1.1//EN"
  "http://www.w3.org/Graphics/SVG/1.1/DTD/svg11.dtd">
<svg xmlns:xlink="http://www.w3.org/1999/xlink" width="755.806567pt" height="369.216pt" viewBox="0 0 755.806567 369.216" xmlns="http://www.w3.org/2000/svg" version="1.1">
 <metadata>
  <rdf:RDF xmlns:dc="http://purl.org/dc/elements/1.1/" xmlns:cc="http://creativecommons.org/ns#" xmlns:rdf="http://www.w3.org/1999/02/22-rdf-syntax-ns#">
   <cc:Work>
    <dc:type rdf:resource="http://purl.org/dc/dcmitype/StillImage"/>
    <dc:date>2026-05-27T14:36:58.863502</dc:date>
    <dc:format>image/svg+xml</dc:format>
    <dc:creator>
     <cc:Agent>
      <dc:title>Matplotlib v3.10.8, https://matplotlib.org/</dc:title>
     </cc:Agent>
    </dc:creator>
   </cc:Work>
  </rdf:RDF>
 </metadata>
 <defs>
  <style type="text/css">*{stroke-linejoin: round; stroke-linecap: butt}</style>
 </defs>
 <g id="figure_1">
  <g id="patch_1">
   <path d="M 0 369.216 
L 755.806567 369.216 
L 755.806567 0 
L 0 0 
z
" style="fill: #ffffff"/>
  </g>
  <g id="axes_1">
   <g id="patch_2">
    <path d="M 647.722316 314.883725 
L 711.801027 314.883725 
Q 716.037636 314.883725 716.037636 310.647116 
L 716.037636 85.04769 
Q 716.037636 80.811081 711.801027 80.811081 
L 647.722316 80.811081 
Q 643.485707 80.811081 643.485707 85.04769 
L 643.485707 310.647116 
Q 643.485707 314.883725 647.722316 314.883725 
L 647.722316 314.883725 
z
" clip-path="url(#p21da210a1e)" style="fill: none; opacity: 0.9; stroke-dasharray: 7,4.2; stroke-dashoffset: 0; stroke: #c2410c; stroke-width: 1.4; stroke-linejoin: miter"/>
   </g>
   <g id="patch_3">
    <path d="M 110.019706 173.295811 
Q 133.20625 151.154518 138.545943 121.908808 
" clip-path="url(#p21da210a1e)" style="fill: none; stroke: #15803d; stroke-width: 2; stroke-linecap: round"/>
    <path d="M 134.24847 127.629974 
L 138.545943 121.908808 
L 140.544392 128.779485 
z
" clip-path="url(#p21da210a1e)" style="fill: #15803d; stroke: #15803d; stroke-width: 2; stroke-linecap: round"/>
   </g>
   <g id="patch_4">
    <path d="M 110.812424 220.1917 
Q 203.314134 215.492361 286.383476 250.984724 
" clip-path="url(#p21da210a1e)" style="fill: none; stroke: #3b4ab0; stroke-width: 2; stroke-linecap: round"/>
    <path d="M 281.755447 245.527495 
L 286.383476 250.984724 
L 279.240876 251.412811 
z
" clip-path="url(#p21da210a1e)" style="fill: #3b4ab0; stroke: #3b4ab0; stroke-width: 2; stroke-linecap: round"/>
   </g>
   <g id="patch_5">
    <path d="M 261.401345 117.167196 
Q 277.298828 125.857035 287.969266 137.582889 
" clip-path="url(#p21da210a1e)" style="fill: none; stroke: #15803d; stroke-width: 2; stroke-linecap: round"/>
    <path d="M 286.02857 130.695676 
L 287.969266 137.582889 
L 281.295079 135.003118 
z
" clip-path="url(#p21da210a1e)" style="fill: #15803d; stroke: #15803d; stroke-width: 2; stroke-linecap: round"/>
   </g>
   <g id="patch_6">
    <path d="M 339.566399 253.016705 
Q 380.180725 246.733549 412.458523 225.175825 
" clip-path="url(#p21da210a1e)" style="fill: none; stroke: #3b4ab0; stroke-width: 2; stroke-linecap: round"/>
    <path d="M 405.359109 226.06931 
L 412.458523 225.175825 
L 408.913663 231.391448 
z
" clip-path="url(#p21da210a1e)" style="fill: #3b4ab0; stroke: #3b4ab0; stroke-width: 2; stroke-linecap: round"/>
   </g>
   <g id="patch_7">
    <path d="M 339.566399 142.678101 
Q 380.180725 148.961257 412.458523 170.518981 
" clip-path="url(#p21da210a1e)" style="fill: none; stroke: #15803d; stroke-width: 2; stroke-linecap: round"/>
    <path d="M 408.913663 164.303358 
L 412.458523 170.518981 
L 405.359109 169.625496 
z
" clip-path="url(#p21da210a1e)" style="fill: #15803d; stroke: #15803d; stroke-width: 2; stroke-linecap: round"/>
   </g>
   <g id="patch_8">
    <path d="M 510.646238 197.847403 
Q 521.049169 197.847403 529.216032 197.847403 
" clip-path="url(#p21da210a1e)" style="fill: none; stroke: #7c3aed; stroke-width: 2; stroke-linecap: round"/>
    <path d="M 522.816032 194.647403 
L 529.216032 197.847403 
L 522.816032 201.047403 
z
" clip-path="url(#p21da210a1e)" style="fill: #7c3aed; stroke: #7c3aed; stroke-width: 2; stroke-linecap: round"/>
   </g>
   <g id="patch_9">
    <path d="M 629.542431 195.204108 
Q 652.097111 152.281158 650.844422 106.11026 
" clip-path="url(#p21da210a1e)" style="fill: none; stroke: #8b97a4; stroke-width: 2; stroke-linecap: round"/>
    <path d="M 647.819177 112.594695 
L 650.844422 106.11026 
L 654.216823 112.421117 
z
" clip-path="url(#p21da210a1e)" style="fill: #8b97a4; stroke: #8b97a4; stroke-width: 2; stroke-linecap: round"/>
   </g>
   <g id="patch_10">
    <path d="M 630.036124 195.533987 
Q 645.228629 176.575423 649.499207 154.991631 
" clip-path="url(#p21da210a1e)" style="fill: none; stroke: #8b97a4; stroke-width: 2; stroke-linecap: round"/>
    <path d="M 645.117839 160.648805 
L 649.499207 154.991631 
L 651.396126 161.891029 
z
" clip-path="url(#p21da210a1e)" style="fill: #8b97a4; stroke: #8b97a4; stroke-width: 2; stroke-linecap: round"/>
   </g>
   <g id="patch_11">
    <path d="M 631.125451 197.847403 
Q 638.88211 197.847403 644.402702 197.847403 
" clip-path="url(#p21da210a1e)" style="fill: none; stroke: #8b97a4; stroke-width: 2; stroke-linecap: round"/>
    <path d="M 638.002702 194.647403 
L 644.402702 197.847403 
L 638.002702 201.047403 
z
" clip-path="url(#p21da210a1e)" style="fill: #8b97a4; stroke: #8b97a4; stroke-width: 2; stroke-linecap: round"/>
   </g>
   <g id="patch_12">
    <path d="M 630.036124 200.160819 
Q 645.228629 219.119383 649.499207 240.703175 
" clip-path="url(#p21da210a1e)" style="fill: none; stroke: #8b97a4; stroke-width: 2; stroke-linecap: round"/>
    <path d="M 651.396126 233.803777 
L 649.499207 240.703175 
L 645.117839 235.046001 
z
" clip-path="url(#p21da210a1e)" style="fill: #8b97a4; stroke: #8b97a4; stroke-width: 2; stroke-linecap: round"/>
   </g>
   <g id="patch_13">
    <path d="M 629.542431 200.490698 
Q 652.097111 243.413648 650.844422 289.584546 
" clip-path="url(#p21da210a1e)" style="fill: none; stroke: #8b97a4; stroke-width: 2; stroke-linecap: round"/>
    <path d="M 654.216823 283.273689 
L 650.844422 289.584546 
L 647.819177 283.100111 
z
" clip-path="url(#p21da210a1e)" style="fill: #8b97a4; stroke: #8b97a4; stroke-width: 2; stroke-linecap: round"/>
   </g>
   <g id="text_1">
    <!-- DPF-Nutrition — depth-prediction &amp; dual-stream fusion -->
    <g style="fill: #1f2937" transform="translate(17.791522 25.735164) scale(0.155 -0.155)">
     <defs>
      <path id="DejaVuSans-Bold-44" d="M 1791 3756 
L 1791 909 
L 2222 909 
Q 2959 909 3348 1275 
Q 3738 1641 3738 2338 
Q 3738 3031 3350 3393 
Q 2963 3756 2222 3756 
L 1791 3756 
z
M 588 4666 
L 1856 4666 
Q 2919 4666 3439 4514 
Q 3959 4363 4331 4000 
Q 4659 3684 4818 3271 
Q 4978 2859 4978 2338 
Q 4978 1809 4818 1395 
Q 4659 981 4331 666 
Q 3956 303 3431 151 
Q 2906 0 1856 0 
L 588 0 
L 588 4666 
z
" transform="scale(0.015625)"/>
      <path id="DejaVuSans-Bold-50" d="M 588 4666 
L 2584 4666 
Q 3475 4666 3951 4270 
Q 4428 3875 4428 3144 
Q 4428 2409 3951 2014 
Q 3475 1619 2584 1619 
L 1791 1619 
L 1791 0 
L 588 0 
L 588 4666 
z
M 1791 3794 
L 1791 2491 
L 2456 2491 
Q 2806 2491 2997 2661 
Q 3188 2831 3188 3144 
Q 3188 3456 2997 3625 
Q 2806 3794 2456 3794 
L 1791 3794 
z
" transform="scale(0.015625)"/>
      <path id="DejaVuSans-Bold-46" d="M 588 4666 
L 3834 4666 
L 3834 3756 
L 1791 3756 
L 1791 2888 
L 3713 2888 
L 3713 1978 
L 1791 1978 
L 1791 0 
L 588 0 
L 588 4666 
z
" transform="scale(0.015625)"/>
      <path id="DejaVuSans-Bold-2d" d="M 347 2297 
L 2309 2297 
L 2309 1388 
L 347 1388 
L 347 2297 
z
" transform="scale(0.015625)"/>
      <path id="DejaVuSans-Bold-4e" d="M 588 4666 
L 1931 4666 
L 3628 1466 
L 3628 4666 
L 4769 4666 
L 4769 0 
L 3425 0 
L 1728 3200 
L 1728 0 
L 588 0 
L 588 4666 
z
" transform="scale(0.015625)"/>
      <path id="DejaVuSans-Bold-75" d="M 500 1363 
L 500 3500 
L 1625 3500 
L 1625 3150 
Q 1625 2866 1622 2436 
Q 1619 2006 1619 1863 
Q 1619 1441 1641 1255 
Q 1663 1069 1716 984 
Q 1784 875 1895 815 
Q 2006 756 2150 756 
Q 2500 756 2700 1025 
Q 2900 1294 2900 1772 
L 2900 3500 
L 4019 3500 
L 4019 0 
L 2900 0 
L 2900 506 
Q 2647 200 2364 54 
Q 2081 -91 1741 -91 
Q 1134 -91 817 281 
Q 500 653 500 1363 
z
" transform="scale(0.015625)"/>
      <path id="DejaVuSans-Bold-74" d="M 1759 4494 
L 1759 3500 
L 2913 3500 
L 2913 2700 
L 1759 2700 
L 1759 1216 
Q 1759 972 1856 886 
Q 1953 800 2241 800 
L 2816 800 
L 2816 0 
L 1856 0 
Q 1194 0 917 276 
Q 641 553 641 1216 
L 641 2700 
L 84 2700 
L 84 3500 
L 641 3500 
L 641 4494 
L 1759 4494 
z
" transform="scale(0.015625)"/>
      <path id="DejaVuSans-Bold-72" d="M 3138 2547 
Q 2991 2616 2845 2648 
Q 2700 2681 2553 2681 
Q 2122 2681 1889 2404 
Q 1656 2128 1656 1613 
L 1656 0 
L 538 0 
L 538 3500 
L 1656 3500 
L 1656 2925 
Q 1872 3269 2151 3426 
Q 2431 3584 2822 3584 
Q 2878 3584 2943 3579 
Q 3009 3575 3134 3559 
L 3138 2547 
z
" transform="scale(0.015625)"/>
      <path id="DejaVuSans-Bold-69" d="M 538 3500 
L 1656 3500 
L 1656 0 
L 538 0 
L 538 3500 
z
M 538 4863 
L 1656 4863 
L 1656 3950 
L 538 3950 
L 538 4863 
z
" transform="scale(0.015625)"/>
      <path id="DejaVuSans-Bold-6f" d="M 2203 2784 
Q 1831 2784 1636 2517 
Q 1441 2250 1441 1747 
Q 1441 1244 1636 976 
Q 1831 709 2203 709 
Q 2569 709 2762 976 
Q 2956 1244 2956 1747 
Q 2956 2250 2762 2517 
Q 2569 2784 2203 2784 
z
M 2203 3584 
Q 3106 3584 3614 3096 
Q 4122 2609 4122 1747 
Q 4122 884 3614 396 
Q 3106 -91 2203 -91 
Q 1297 -91 786 396 
Q 275 884 275 1747 
Q 275 2609 786 3096 
Q 1297 3584 2203 3584 
z
" transform="scale(0.015625)"/>
      <path id="DejaVuSans-Bold-6e" d="M 4056 2131 
L 4056 0 
L 2931 0 
L 2931 347 
L 2931 1631 
Q 2931 2084 2911 2256 
Q 2891 2428 2841 2509 
Q 2775 2619 2662 2680 
Q 2550 2741 2406 2741 
Q 2056 2741 1856 2470 
Q 1656 2200 1656 1722 
L 1656 0 
L 538 0 
L 538 3500 
L 1656 3500 
L 1656 2988 
Q 1909 3294 2193 3439 
Q 2478 3584 2822 3584 
Q 3428 3584 3742 3212 
Q 4056 2841 4056 2131 
z
" transform="scale(0.015625)"/>
      <path id="DejaVuSans-Bold-20" transform="scale(0.015625)"/>
      <path id="DejaVuSans-Bold-2014" d="M 344 2156 
L 6056 2156 
L 6056 1350 
L 344 1350 
L 344 2156 
z
" transform="scale(0.015625)"/>
      <path id="DejaVuSans-Bold-64" d="M 2919 2988 
L 2919 4863 
L 4044 4863 
L 4044 0 
L 2919 0 
L 2919 506 
Q 2688 197 2409 53 
Q 2131 -91 1766 -91 
Q 1119 -91 703 423 
Q 288 938 288 1747 
Q 288 2556 703 3070 
Q 1119 3584 1766 3584 
Q 2128 3584 2408 3439 
Q 2688 3294 2919 2988 
z
M 2181 722 
Q 2541 722 2730 984 
Q 2919 1247 2919 1747 
Q 2919 2247 2730 2509 
Q 2541 2772 2181 2772 
Q 1825 2772 1636 2509 
Q 1447 2247 1447 1747 
Q 1447 1247 1636 984 
Q 1825 722 2181 722 
z
" transform="scale(0.015625)"/>
      <path id="DejaVuSans-Bold-65" d="M 4031 1759 
L 4031 1441 
L 1416 1441 
Q 1456 1047 1700 850 
Q 1944 653 2381 653 
Q 2734 653 3104 758 
Q 3475 863 3866 1075 
L 3866 213 
Q 3469 63 3072 -14 
Q 2675 -91 2278 -91 
Q 1328 -91 801 392 
Q 275 875 275 1747 
Q 275 2603 792 3093 
Q 1309 3584 2216 3584 
Q 3041 3584 3536 3087 
Q 4031 2591 4031 1759 
z
M 2881 2131 
Q 2881 2450 2695 2645 
Q 2509 2841 2209 2841 
Q 1884 2841 1681 2658 
Q 1478 2475 1428 2131 
L 2881 2131 
z
" transform="scale(0.015625)"/>
      <path id="DejaVuSans-Bold-70" d="M 1656 506 
L 1656 -1331 
L 538 -1331 
L 538 3500 
L 1656 3500 
L 1656 2988 
Q 1888 3294 2169 3439 
Q 2450 3584 2816 3584 
Q 3463 3584 3878 3070 
Q 4294 2556 4294 1747 
Q 4294 938 3878 423 
Q 3463 -91 2816 -91 
Q 2450 -91 2169 54 
Q 1888 200 1656 506 
z
M 2400 2772 
Q 2041 2772 1848 2508 
Q 1656 2244 1656 1747 
Q 1656 1250 1848 986 
Q 2041 722 2400 722 
Q 2759 722 2948 984 
Q 3138 1247 3138 1747 
Q 3138 2247 2948 2509 
Q 2759 2772 2400 2772 
z
" transform="scale(0.015625)"/>
      <path id="DejaVuSans-Bold-68" d="M 4056 2131 
L 4056 0 
L 2931 0 
L 2931 347 
L 2931 1625 
Q 2931 2084 2911 2256 
Q 2891 2428 2841 2509 
Q 2775 2619 2662 2680 
Q 2550 2741 2406 2741 
Q 2056 2741 1856 2470 
Q 1656 2200 1656 1722 
L 1656 0 
L 538 0 
L 538 4863 
L 1656 4863 
L 1656 2988 
Q 1909 3294 2193 3439 
Q 2478 3584 2822 3584 
Q 3428 3584 3742 3212 
Q 4056 2841 4056 2131 
z
" transform="scale(0.015625)"/>
      <path id="DejaVuSans-Bold-63" d="M 3366 3391 
L 3366 2478 
Q 3138 2634 2908 2709 
Q 2678 2784 2431 2784 
Q 1963 2784 1702 2511 
Q 1441 2238 1441 1747 
Q 1441 1256 1702 982 
Q 1963 709 2431 709 
Q 2694 709 2930 787 
Q 3166 866 3366 1019 
L 3366 103 
Q 3103 6 2833 -42 
Q 2563 -91 2291 -91 
Q 1344 -91 809 395 
Q 275 881 275 1747 
Q 275 2613 809 3098 
Q 1344 3584 2291 3584 
Q 2566 3584 2833 3536 
Q 3100 3488 3366 3391 
z
" transform="scale(0.015625)"/>
      <path id="DejaVuSans-Bold-26" d="M 2497 3097 
L 3775 1691 
Q 3941 1909 4027 2181 
Q 4113 2453 4128 2797 
L 5100 2797 
Q 5053 2228 4879 1784 
Q 4706 1341 4397 1006 
L 5313 0 
L 3988 0 
L 3681 341 
Q 3353 122 2990 15 
Q 2628 -91 2222 -91 
Q 1400 -91 892 342 
Q 384 775 384 1459 
Q 384 1916 607 2267 
Q 831 2619 1338 2950 
Q 1206 3116 1143 3281 
Q 1081 3447 1081 3628 
Q 1081 4138 1478 4444 
Q 1875 4750 2534 4750 
Q 2819 4750 3126 4704 
Q 3434 4659 3769 4569 
L 3769 3700 
Q 3475 3850 3212 3922 
Q 2950 3994 2700 3994 
Q 2459 3994 2326 3901 
Q 2194 3809 2194 3641 
Q 2194 3534 2270 3398 
Q 2347 3263 2497 3097 
z
M 1875 2322 
Q 1672 2175 1569 1989 
Q 1466 1803 1466 1581 
Q 1466 1222 1731 969 
Q 1997 716 2369 716 
Q 2578 716 2759 780 
Q 2941 844 3097 972 
L 1875 2322 
z
" transform="scale(0.015625)"/>
      <path id="DejaVuSans-Bold-61" d="M 2106 1575 
Q 1756 1575 1579 1456 
Q 1403 1338 1403 1106 
Q 1403 894 1545 773 
Q 1688 653 1941 653 
Q 2256 653 2472 879 
Q 2688 1106 2688 1447 
L 2688 1575 
L 2106 1575 
z
M 3816 1997 
L 3816 0 
L 2688 0 
L 2688 519 
Q 2463 200 2181 54 
Q 1900 -91 1497 -91 
Q 953 -91 614 226 
Q 275 544 275 1050 
Q 275 1666 698 1953 
Q 1122 2241 2028 2241 
L 2688 2241 
L 2688 2328 
Q 2688 2594 2478 2717 
Q 2269 2841 1825 2841 
Q 1466 2841 1156 2769 
Q 847 2697 581 2553 
L 581 3406 
Q 941 3494 1303 3539 
Q 1666 3584 2028 3584 
Q 2975 3584 3395 3211 
Q 3816 2838 3816 1997 
z
" transform="scale(0.015625)"/>
      <path id="DejaVuSans-Bold-6c" d="M 538 4863 
L 1656 4863 
L 1656 0 
L 538 0 
L 538 4863 
z
" transform="scale(0.015625)"/>
      <path id="DejaVuSans-Bold-73" d="M 3272 3391 
L 3272 2541 
Q 2913 2691 2578 2766 
Q 2244 2841 1947 2841 
Q 1628 2841 1473 2761 
Q 1319 2681 1319 2516 
Q 1319 2381 1436 2309 
Q 1553 2238 1856 2203 
L 2053 2175 
Q 2913 2066 3209 1816 
Q 3506 1566 3506 1031 
Q 3506 472 3093 190 
Q 2681 -91 1863 -91 
Q 1516 -91 1145 -36 
Q 775 19 384 128 
L 384 978 
Q 719 816 1070 734 
Q 1422 653 1784 653 
Q 2113 653 2278 743 
Q 2444 834 2444 1013 
Q 2444 1163 2330 1236 
Q 2216 1309 1875 1350 
L 1678 1375 
Q 931 1469 631 1722 
Q 331 1975 331 2491 
Q 331 3047 712 3315 
Q 1094 3584 1881 3584 
Q 2191 3584 2531 3537 
Q 2872 3491 3272 3391 
z
" transform="scale(0.015625)"/>
      <path id="DejaVuSans-Bold-6d" d="M 3781 2919 
Q 3994 3244 4286 3414 
Q 4578 3584 4928 3584 
Q 5531 3584 5847 3212 
Q 6163 2841 6163 2131 
L 6163 0 
L 5038 0 
L 5038 1825 
Q 5041 1866 5042 1909 
Q 5044 1953 5044 2034 
Q 5044 2406 4934 2573 
Q 4825 2741 4581 2741 
Q 4263 2741 4089 2478 
Q 3916 2216 3909 1719 
L 3909 0 
L 2784 0 
L 2784 1825 
Q 2784 2406 2684 2573 
Q 2584 2741 2328 2741 
Q 2006 2741 1831 2477 
Q 1656 2213 1656 1722 
L 1656 0 
L 531 0 
L 531 3500 
L 1656 3500 
L 1656 2988 
Q 1863 3284 2130 3434 
Q 2397 3584 2719 3584 
Q 3081 3584 3359 3409 
Q 3638 3234 3781 2919 
z
" transform="scale(0.015625)"/>
      <path id="DejaVuSans-Bold-66" d="M 2841 4863 
L 2841 4128 
L 2222 4128 
Q 1984 4128 1890 4042 
Q 1797 3956 1797 3744 
L 1797 3500 
L 2753 3500 
L 2753 2700 
L 1797 2700 
L 1797 0 
L 678 0 
L 678 2700 
L 122 2700 
L 122 3500 
L 678 3500 
L 678 3744 
Q 678 4316 997 4589 
Q 1316 4863 1984 4863 
L 2841 4863 
z
" transform="scale(0.015625)"/>
     </defs>
     <use xlink:href="#DejaVuSans-Bold-44"/>
     <use xlink:href="#DejaVuSans-Bold-50" transform="translate(83.007812 0)"/>
     <use xlink:href="#DejaVuSans-Bold-46" transform="translate(156.298828 0)"/>
     <use xlink:href="#DejaVuSans-Bold-2d" transform="translate(221.484375 0)"/>
     <use xlink:href="#DejaVuSans-Bold-4e" transform="translate(262.988281 0)"/>
     <use xlink:href="#DejaVuSans-Bold-75" transform="translate(346.679688 0)"/>
     <use xlink:href="#DejaVuSans-Bold-74" transform="translate(417.871094 0)"/>
     <use xlink:href="#DejaVuSans-Bold-72" transform="translate(465.673828 0)"/>
     <use xlink:href="#DejaVuSans-Bold-69" transform="translate(514.990234 0)"/>
     <use xlink:href="#DejaVuSans-Bold-74" transform="translate(549.267578 0)"/>
     <use xlink:href="#DejaVuSans-Bold-69" transform="translate(597.070312 0)"/>
     <use xlink:href="#DejaVuSans-Bold-6f" transform="translate(631.347656 0)"/>
     <use xlink:href="#DejaVuSans-Bold-6e" transform="translate(700.048828 0)"/>
     <use xlink:href="#DejaVuSans-Bold-20" transform="translate(771.240234 0)"/>
     <use xlink:href="#DejaVuSans-Bold-2014" transform="translate(806.054688 0)"/>
     <use xlink:href="#DejaVuSans-Bold-20" transform="translate(906.054688 0)"/>
     <use xlink:href="#DejaVuSans-Bold-64" transform="translate(940.869141 0)"/>
     <use xlink:href="#DejaVuSans-Bold-65" transform="translate(1012.451172 0)"/>
     <use xlink:href="#DejaVuSans-Bold-70" transform="translate(1080.273438 0)"/>
     <use xlink:href="#DejaVuSans-Bold-74" transform="translate(1151.855469 0)"/>
     <use xlink:href="#DejaVuSans-Bold-68" transform="translate(1199.658203 0)"/>
     <use xlink:href="#DejaVuSans-Bold-2d" transform="translate(1270.849609 0)"/>
     <use xlink:href="#DejaVuSans-Bold-70" transform="translate(1312.353516 0)"/>
     <use xlink:href="#DejaVuSans-Bold-72" transform="translate(1383.935547 0)"/>
     <use xlink:href="#DejaVuSans-Bold-65" transform="translate(1433.251953 0)"/>
     <use xlink:href="#DejaVuSans-Bold-64" transform="translate(1501.074219 0)"/>
     <use xlink:href="#DejaVuSans-Bold-69" transform="translate(1572.65625 0)"/>
     <use xlink:href="#DejaVuSans-Bold-63" transform="translate(1606.933594 0)"/>
     <use xlink:href="#DejaVuSans-Bold-74" transform="translate(1666.210938 0)"/>
     <use xlink:href="#DejaVuSans-Bold-69" transform="translate(1714.013672 0)"/>
     <use xlink:href="#DejaVuSans-Bold-6f" transform="translate(1748.291016 0)"/>
     <use xlink:href="#DejaVuSans-Bold-6e" transform="translate(1816.992188 0)"/>
     <use xlink:href="#DejaVuSans-Bold-20" transform="translate(1888.183594 0)"/>
     <use xlink:href="#DejaVuSans-Bold-26" transform="translate(1922.998047 0)"/>
     <use xlink:href="#DejaVuSans-Bold-20" transform="translate(2010.205078 0)"/>
     <use xlink:href="#DejaVuSans-Bold-64" transform="translate(2045.019531 0)"/>
     <use xlink:href="#DejaVuSans-Bold-75" transform="translate(2116.601562 0)"/>
     <use xlink:href="#DejaVuSans-Bold-61" transform="translate(2187.792969 0)"/>
     <use xlink:href="#DejaVuSans-Bold-6c" transform="translate(2255.273438 0)"/>
     <use xlink:href="#DejaVuSans-Bold-2d" transform="translate(2289.550781 0)"/>
     <use xlink:href="#DejaVuSans-Bold-73" transform="translate(2331.054688 0)"/>
     <use xlink:href="#DejaVuSans-Bold-74" transform="translate(2390.576172 0)"/>
     <use xlink:href="#DejaVuSans-Bold-72" transform="translate(2438.378906 0)"/>
     <use xlink:href="#DejaVuSans-Bold-65" transform="translate(2487.695312 0)"/>
     <use xlink:href="#DejaVuSans-Bold-61" transform="translate(2555.517578 0)"/>
     <use xlink:href="#DejaVuSans-Bold-6d" transform="translate(2622.998047 0)"/>
     <use xlink:href="#DejaVuSans-Bold-20" transform="translate(2727.197266 0)"/>
     <use xlink:href="#DejaVuSans-Bold-66" transform="translate(2762.011719 0)"/>
     <use xlink:href="#DejaVuSans-Bold-75" transform="translate(2805.517578 0)"/>
     <use xlink:href="#DejaVuSans-Bold-73" transform="translate(2876.708984 0)"/>
     <use xlink:href="#DejaVuSans-Bold-69" transform="translate(2936.230469 0)"/>
     <use xlink:href="#DejaVuSans-Bold-6f" transform="translate(2970.507812 0)"/>
     <use xlink:href="#DejaVuSans-Bold-6e" transform="translate(3039.208984 0)"/>
    </g>
   </g>
   <g id="patch_14">
    <path d="M 33.43712 222.072134 
L 132.044193 222.072134 
Q 134.692074 222.072134 134.692074 219.424253 
L 134.692074 179.070553 
Q 134.692074 176.422672 132.044193 176.422672 
L 33.43712 176.422672 
Q 30.789239 176.422672 30.789239 179.070553 
L 30.789239 219.424253 
Q 30.789239 222.072134 33.43712 222.072134 
z
" clip-path="url(#p21da210a1e)" style="fill: #0b1020; opacity: 0.16"/>
    <path d="M 32.03712 220.672134 
L 130.644193 220.672134 
Q 133.292074 220.672134 133.292074 218.024253 
L 133.292074 177.670553 
Q 133.292074 175.022672 130.644193 175.022672 
L 32.03712 175.022672 
Q 29.389239 175.022672 29.389239 177.670553 
L 29.389239 218.024253 
Q 29.389239 220.672134 32.03712 220.672134 
z
" clip-path="url(#p21da210a1e)" style="fill: #eef2f7; stroke: #334155; stroke-width: 1.6; stroke-linejoin: miter"/>
   </g>
   <g id="patch_15">
    <path d="M 145.972045 139.987835 
L 257.818522 139.987835 
Q 260.466402 139.987835 260.466402 137.339955 
L 260.466402 96.986254 
Q 260.466402 94.338374 257.818522 94.338374 
L 145.972045 94.338374 
Q 143.324165 94.338374 143.324165 96.986254 
L 143.324165 137.339955 
Q 143.324165 139.987835 145.972045 139.987835 
z
" clip-path="url(#p21da210a1e)" style="fill: #0b1020; opacity: 0.16"/>
    <path d="M 144.572045 138.587835 
L 256.418522 138.587835 
Q 259.066402 138.587835 259.066402 135.939955 
L 259.066402 95.586254 
Q 259.066402 92.938374 256.418522 92.938374 
L 144.572045 92.938374 
Q 141.924165 92.938374 141.924165 95.586254 
L 141.924165 135.939955 
Q 141.924165 138.587835 144.572045 138.587835 
z
" clip-path="url(#p21da210a1e)" style="fill: #e3f5e8; stroke: #15803d; stroke-width: 1.6; stroke-linejoin: miter"/>
   </g>
   <g id="patch_16">
    <path d="M 294.729977 281.437617 
L 303.415026 281.437617 
Q 304.738966 281.437617 304.738966 280.113676 
L 304.738966 229.592115 
Q 304.738966 228.268174 303.415026 228.268174 
L 294.729977 228.268174 
Q 293.406037 228.268174 293.406037 229.592115 
L 293.406037 280.113676 
Q 293.406037 281.437617 294.729977 281.437617 
z
" clip-path="url(#p21da210a1e)" style="fill: #0b1020; opacity: 0.16"/>
    <path d="M 293.329977 280.037617 
L 302.015026 280.037617 
Q 303.338966 280.037617 303.338966 278.713676 
L 303.338966 228.192115 
Q 303.338966 226.868174 302.015026 226.868174 
L 293.329977 226.868174 
Q 292.006037 226.868174 292.006037 228.192115 
L 292.006037 278.713676 
Q 292.006037 280.037617 293.329977 280.037617 
z
" clip-path="url(#p21da210a1e)" style="fill: #e7eaff; stroke: #3b4ab0; stroke-width: 1.3; stroke-linejoin: miter"/>
   </g>
   <g id="patch_17">
    <path d="M 294.729977 170.226632 
L 303.415026 170.226632 
Q 304.738966 170.226632 304.738966 168.902691 
L 304.738966 118.38113 
Q 304.738966 117.057189 303.415026 117.057189 
L 294.729977 117.057189 
Q 293.406037 117.057189 293.406037 118.38113 
L 293.406037 168.902691 
Q 293.406037 170.226632 294.729977 170.226632 
z
" clip-path="url(#p21da210a1e)" style="fill: #0b1020; opacity: 0.16"/>
    <path d="M 293.329977 168.826632 
L 302.015026 168.826632 
Q 303.338966 168.826632 303.338966 167.502691 
L 303.338966 116.98113 
Q 303.338966 115.657189 302.015026 115.657189 
L 293.329977 115.657189 
Q 292.006037 115.657189 292.006037 116.98113 
L 292.006037 167.502691 
Q 292.006037 168.826632 293.329977 168.826632 
z
" clip-path="url(#p21da210a1e)" style="fill: #e3f5e8; stroke: #15803d; stroke-width: 1.3; stroke-linejoin: miter"/>
   </g>
   <g id="patch_18">
    <path d="M 421.351627 247.226999 
L 506.719298 247.226999 
Q 509.367179 247.226999 509.367179 244.579119 
L 509.367179 153.915687 
Q 509.367179 151.267807 506.719298 151.267807 
L 421.351627 151.267807 
Q 418.703747 151.267807 418.703747 153.915687 
L 418.703747 244.579119 
Q 418.703747 247.226999 421.351627 247.226999 
z
" clip-path="url(#p21da210a1e)" style="fill: #0b1020; opacity: 0.16"/>
    <path d="M 419.951627 245.826999 
L 505.319298 245.826999 
Q 507.967179 245.826999 507.967179 243.179119 
L 507.967179 152.515687 
Q 507.967179 149.867807 505.319298 149.867807 
L 419.951627 149.867807 
Q 417.303747 149.867807 417.303747 152.515687 
L 417.303747 243.179119 
Q 417.303747 245.826999 419.951627 245.826999 
z
" clip-path="url(#p21da210a1e)" style="fill: #efe6ff; stroke: #7c3aed; stroke-width: 1.6; stroke-linejoin: miter"/>
   </g>
   <g id="patch_19">
    <path d="M 539.182314 224.720014 
L 627.197865 224.720014 
Q 629.845746 224.720014 629.845746 222.072134 
L 629.845746 176.422672 
Q 629.845746 173.774792 627.197865 173.774792 
L 539.182314 173.774792 
Q 536.534433 173.774792 536.534433 176.422672 
L 536.534433 222.072134 
Q 536.534433 224.720014 539.182314 224.720014 
z
" clip-path="url(#p21da210a1e)" style="fill: #0b1020; opacity: 0.16"/>
    <path d="M 537.782314 223.320014 
L 625.797865 223.320014 
Q 628.445746 223.320014 628.445746 220.672134 
L 628.445746 175.022672 
Q 628.445746 172.374792 625.797865 172.374792 
L 537.782314 172.374792 
Q 535.134433 172.374792 535.134433 175.022672 
L 535.134433 220.672134 
Q 535.134433 223.320014 537.782314 223.320014 
z
" clip-path="url(#p21da210a1e)" style="fill: #e0f5f4; stroke: #0e8f8d; stroke-width: 1.6; stroke-linejoin: miter"/>
   </g>
   <g id="patch_20">
    <path d="M 655.424272 115.49494 
L 706.899071 115.49494 
Q 710.606104 115.49494 710.606104 111.787907 
L 710.606104 90.763735 
Q 710.606104 87.056702 706.899071 87.056702 
L 655.424272 87.056702 
Q 651.717239 87.056702 651.717239 90.763735 
L 651.717239 111.787907 
Q 651.717239 115.49494 655.424272 115.49494 
z
" clip-path="url(#p21da210a1e)" style="fill: #0b1020; opacity: 0.16"/>
    <path d="M 654.024272 114.09494 
L 705.499071 114.09494 
Q 709.206104 114.09494 709.206104 110.387907 
L 709.206104 89.363735 
Q 709.206104 85.656702 705.499071 85.656702 
L 654.024272 85.656702 
Q 650.317239 85.656702 650.317239 89.363735 
L 650.317239 110.387907 
Q 650.317239 114.09494 654.024272 114.09494 
z
" clip-path="url(#p21da210a1e)" style="fill: #fdeadd; stroke: #c2410c; stroke-width: 1.6; stroke-linejoin: miter"/>
   </g>
   <g id="patch_21">
    <path d="M 655.424272 164.480731 
L 706.899071 164.480731 
Q 710.606104 164.480731 710.606104 160.773698 
L 710.606104 139.749526 
Q 710.606104 136.042493 706.899071 136.042493 
L 655.424272 136.042493 
Q 651.717239 136.042493 651.717239 139.749526 
L 651.717239 160.773698 
Q 651.717239 164.480731 655.424272 164.480731 
z
" clip-path="url(#p21da210a1e)" style="fill: #0b1020; opacity: 0.16"/>
    <path d="M 654.024272 163.080731 
L 705.499071 163.080731 
Q 709.206104 163.080731 709.206104 159.373698 
L 709.206104 138.349526 
Q 709.206104 134.642493 705.499071 134.642493 
L 654.024272 134.642493 
Q 650.317239 134.642493 650.317239 138.349526 
L 650.317239 159.373698 
Q 650.317239 163.080731 654.024272 163.080731 
z
" clip-path="url(#p21da210a1e)" style="fill: #fdeadd; stroke: #c2410c; stroke-width: 1.6; stroke-linejoin: miter"/>
   </g>
   <g id="patch_22">
    <path d="M 655.424272 213.466522 
L 706.899071 213.466522 
Q 710.606104 213.466522 710.606104 209.759489 
L 710.606104 188.735317 
Q 710.606104 185.028284 706.899071 185.028284 
L 655.424272 185.028284 
Q 651.717239 185.028284 651.717239 188.735317 
L 651.717239 209.759489 
Q 651.717239 213.466522 655.424272 213.466522 
z
" clip-path="url(#p21da210a1e)" style="fill: #0b1020; opacity: 0.16"/>
    <path d="M 654.024272 212.066522 
L 705.499071 212.066522 
Q 709.206104 212.066522 709.206104 208.359489 
L 709.206104 187.335317 
Q 709.206104 183.628284 705.499071 183.628284 
L 654.024272 183.628284 
Q 650.317239 183.628284 650.317239 187.335317 
L 650.317239 208.359489 
Q 650.317239 212.066522 654.024272 212.066522 
z
" clip-path="url(#p21da210a1e)" style="fill: #fdeadd; stroke: #c2410c; stroke-width: 1.6; stroke-linejoin: miter"/>
   </g>
   <g id="patch_23">
    <path d="M 655.424272 262.452313 
L 706.899071 262.452313 
Q 710.606104 262.452313 710.606104 258.74528 
L 710.606104 237.721108 
Q 710.606104 234.014075 706.899071 234.014075 
L 655.424272 234.014075 
Q 651.717239 234.014075 651.717239 237.721108 
L 651.717239 258.74528 
Q 651.717239 262.452313 655.424272 262.452313 
z
" clip-path="url(#p21da210a1e)" style="fill: #0b1020; opacity: 0.16"/>
    <path d="M 654.024272 261.052313 
L 705.499071 261.052313 
Q 709.206104 261.052313 709.206104 257.34528 
L 709.206104 236.321108 
Q 709.206104 232.614075 705.499071 232.614075 
L 654.024272 232.614075 
Q 650.317239 232.614075 650.317239 236.321108 
L 650.317239 257.34528 
Q 650.317239 261.052313 654.024272 261.052313 
z
" clip-path="url(#p21da210a1e)" style="fill: #fdeadd; stroke: #c2410c; stroke-width: 1.6; stroke-linejoin: miter"/>
   </g>
   <g id="patch_24">
    <path d="M 655.424272 311.438104 
L 706.899071 311.438104 
Q 710.606104 311.438104 710.606104 307.731071 
L 710.606104 286.706899 
Q 710.606104 282.999866 706.899071 282.999866 
L 655.424272 282.999866 
Q 651.717239 282.999866 651.717239 286.706899 
L 651.717239 307.731071 
Q 651.717239 311.438104 655.424272 311.438104 
z
" clip-path="url(#p21da210a1e)" style="fill: #0b1020; opacity: 0.16"/>
    <path d="M 654.024272 310.038104 
L 705.499071 310.038104 
Q 709.206104 310.038104 709.206104 306.331071 
L 709.206104 285.306899 
Q 709.206104 281.599866 705.499071 281.599866 
L 654.024272 281.599866 
Q 650.317239 281.599866 650.317239 285.306899 
L 650.317239 306.331071 
Q 650.317239 310.038104 654.024272 310.038104 
z
" clip-path="url(#p21da210a1e)" style="fill: #fdeadd; stroke: #c2410c; stroke-width: 1.6; stroke-linejoin: miter"/>
   </g>
   <g id="text_2">
    <!-- Geometric-mean L1 loss:   $\mathcal{L}=\sqrt[5]{\,L_{cal}\,L_{mass}\,L_{fat}\,L_{carb}\,L_{prot}\,}$ -->
    <g style="fill: #1f2937" transform="translate(17.791522 330.241433) scale(0.11 -0.11)">
     <defs>
      <path id="DejaVuSans-47" d="M 3809 666 
L 3809 1919 
L 2778 1919 
L 2778 2438 
L 4434 2438 
L 4434 434 
Q 4069 175 3628 42 
Q 3188 -91 2688 -91 
Q 1594 -91 976 548 
Q 359 1188 359 2328 
Q 359 3472 976 4111 
Q 1594 4750 2688 4750 
Q 3144 4750 3555 4637 
Q 3966 4525 4313 4306 
L 4313 3634 
Q 3963 3931 3569 4081 
Q 3175 4231 2741 4231 
Q 1884 4231 1454 3753 
Q 1025 3275 1025 2328 
Q 1025 1384 1454 906 
Q 1884 428 2741 428 
Q 3075 428 3337 486 
Q 3600 544 3809 666 
z
" transform="scale(0.015625)"/>
      <path id="DejaVuSans-65" d="M 3597 1894 
L 3597 1613 
L 953 1613 
Q 991 1019 1311 708 
Q 1631 397 2203 397 
Q 2534 397 2845 478 
Q 3156 559 3463 722 
L 3463 178 
Q 3153 47 2828 -22 
Q 2503 -91 2169 -91 
Q 1331 -91 842 396 
Q 353 884 353 1716 
Q 353 2575 817 3079 
Q 1281 3584 2069 3584 
Q 2775 3584 3186 3129 
Q 3597 2675 3597 1894 
z
M 3022 2063 
Q 3016 2534 2758 2815 
Q 2500 3097 2075 3097 
Q 1594 3097 1305 2825 
Q 1016 2553 972 2059 
L 3022 2063 
z
" transform="scale(0.015625)"/>
      <path id="DejaVuSans-6f" d="M 1959 3097 
Q 1497 3097 1228 2736 
Q 959 2375 959 1747 
Q 959 1119 1226 758 
Q 1494 397 1959 397 
Q 2419 397 2687 759 
Q 2956 1122 2956 1747 
Q 2956 2369 2687 2733 
Q 2419 3097 1959 3097 
z
M 1959 3584 
Q 2709 3584 3137 3096 
Q 3566 2609 3566 1747 
Q 3566 888 3137 398 
Q 2709 -91 1959 -91 
Q 1206 -91 779 398 
Q 353 888 353 1747 
Q 353 2609 779 3096 
Q 1206 3584 1959 3584 
z
" transform="scale(0.015625)"/>
      <path id="DejaVuSans-6d" d="M 3328 2828 
Q 3544 3216 3844 3400 
Q 4144 3584 4550 3584 
Q 5097 3584 5394 3201 
Q 5691 2819 5691 2113 
L 5691 0 
L 5113 0 
L 5113 2094 
Q 5113 2597 4934 2840 
Q 4756 3084 4391 3084 
Q 3944 3084 3684 2787 
Q 3425 2491 3425 1978 
L 3425 0 
L 2847 0 
L 2847 2094 
Q 2847 2600 2669 2842 
Q 2491 3084 2119 3084 
Q 1678 3084 1418 2786 
Q 1159 2488 1159 1978 
L 1159 0 
L 581 0 
L 581 3500 
L 1159 3500 
L 1159 2956 
Q 1356 3278 1631 3431 
Q 1906 3584 2284 3584 
Q 2666 3584 2933 3390 
Q 3200 3197 3328 2828 
z
" transform="scale(0.015625)"/>
      <path id="DejaVuSans-74" d="M 1172 4494 
L 1172 3500 
L 2356 3500 
L 2356 3053 
L 1172 3053 
L 1172 1153 
Q 1172 725 1289 603 
Q 1406 481 1766 481 
L 2356 481 
L 2356 0 
L 1766 0 
Q 1100 0 847 248 
Q 594 497 594 1153 
L 594 3053 
L 172 3053 
L 172 3500 
L 594 3500 
L 594 4494 
L 1172 4494 
z
" transform="scale(0.015625)"/>
      <path id="DejaVuSans-72" d="M 2631 2963 
Q 2534 3019 2420 3045 
Q 2306 3072 2169 3072 
Q 1681 3072 1420 2755 
Q 1159 2438 1159 1844 
L 1159 0 
L 581 0 
L 581 3500 
L 1159 3500 
L 1159 2956 
Q 1341 3275 1631 3429 
Q 1922 3584 2338 3584 
Q 2397 3584 2469 3576 
Q 2541 3569 2628 3553 
L 2631 2963 
z
" transform="scale(0.015625)"/>
      <path id="DejaVuSans-69" d="M 603 3500 
L 1178 3500 
L 1178 0 
L 603 0 
L 603 3500 
z
M 603 4863 
L 1178 4863 
L 1178 4134 
L 603 4134 
L 603 4863 
z
" transform="scale(0.015625)"/>
      <path id="DejaVuSans-63" d="M 3122 3366 
L 3122 2828 
Q 2878 2963 2633 3030 
Q 2388 3097 2138 3097 
Q 1578 3097 1268 2742 
Q 959 2388 959 1747 
Q 959 1106 1268 751 
Q 1578 397 2138 397 
Q 2388 397 2633 464 
Q 2878 531 3122 666 
L 3122 134 
Q 2881 22 2623 -34 
Q 2366 -91 2075 -91 
Q 1284 -91 818 406 
Q 353 903 353 1747 
Q 353 2603 823 3093 
Q 1294 3584 2113 3584 
Q 2378 3584 2631 3529 
Q 2884 3475 3122 3366 
z
" transform="scale(0.015625)"/>
      <path id="DejaVuSans-2d" d="M 313 2009 
L 1997 2009 
L 1997 1497 
L 313 1497 
L 313 2009 
z
" transform="scale(0.015625)"/>
      <path id="DejaVuSans-61" d="M 2194 1759 
Q 1497 1759 1228 1600 
Q 959 1441 959 1056 
Q 959 750 1161 570 
Q 1363 391 1709 391 
Q 2188 391 2477 730 
Q 2766 1069 2766 1631 
L 2766 1759 
L 2194 1759 
z
M 3341 1997 
L 3341 0 
L 2766 0 
L 2766 531 
Q 2569 213 2275 61 
Q 1981 -91 1556 -91 
Q 1019 -91 701 211 
Q 384 513 384 1019 
Q 384 1609 779 1909 
Q 1175 2209 1959 2209 
L 2766 2209 
L 2766 2266 
Q 2766 2663 2505 2880 
Q 2244 3097 1772 3097 
Q 1472 3097 1187 3025 
Q 903 2953 641 2809 
L 641 3341 
Q 956 3463 1253 3523 
Q 1550 3584 1831 3584 
Q 2591 3584 2966 3190 
Q 3341 2797 3341 1997 
z
" transform="scale(0.015625)"/>
      <path id="DejaVuSans-6e" d="M 3513 2113 
L 3513 0 
L 2938 0 
L 2938 2094 
Q 2938 2591 2744 2837 
Q 2550 3084 2163 3084 
Q 1697 3084 1428 2787 
Q 1159 2491 1159 1978 
L 1159 0 
L 581 0 
L 581 3500 
L 1159 3500 
L 1159 2956 
Q 1366 3272 1645 3428 
Q 1925 3584 2291 3584 
Q 2894 3584 3203 3211 
Q 3513 2838 3513 2113 
z
" transform="scale(0.015625)"/>
      <path id="DejaVuSans-20" transform="scale(0.015625)"/>
      <path id="DejaVuSans-4c" d="M 628 4666 
L 1259 4666 
L 1259 531 
L 3531 531 
L 3531 0 
L 628 0 
L 628 4666 
z
" transform="scale(0.015625)"/>
      <path id="DejaVuSans-31" d="M 794 531 
L 1825 531 
L 1825 4091 
L 703 3866 
L 703 4441 
L 1819 4666 
L 2450 4666 
L 2450 531 
L 3481 531 
L 3481 0 
L 794 0 
L 794 531 
z
" transform="scale(0.015625)"/>
      <path id="DejaVuSans-6c" d="M 603 4863 
L 1178 4863 
L 1178 0 
L 603 0 
L 603 4863 
z
" transform="scale(0.015625)"/>
      <path id="DejaVuSans-73" d="M 2834 3397 
L 2834 2853 
Q 2591 2978 2328 3040 
Q 2066 3103 1784 3103 
Q 1356 3103 1142 2972 
Q 928 2841 928 2578 
Q 928 2378 1081 2264 
Q 1234 2150 1697 2047 
L 1894 2003 
Q 2506 1872 2764 1633 
Q 3022 1394 3022 966 
Q 3022 478 2636 193 
Q 2250 -91 1575 -91 
Q 1294 -91 989 -36 
Q 684 19 347 128 
L 347 722 
Q 666 556 975 473 
Q 1284 391 1588 391 
Q 1994 391 2212 530 
Q 2431 669 2431 922 
Q 2431 1156 2273 1281 
Q 2116 1406 1581 1522 
L 1381 1569 
Q 847 1681 609 1914 
Q 372 2147 372 2553 
Q 372 3047 722 3315 
Q 1072 3584 1716 3584 
Q 2034 3584 2315 3537 
Q 2597 3491 2834 3397 
z
" transform="scale(0.015625)"/>
      <path id="DejaVuSans-3a" d="M 750 794 
L 1409 794 
L 1409 0 
L 750 0 
L 750 794 
z
M 750 3309 
L 1409 3309 
L 1409 2516 
L 750 2516 
L 750 3309 
z
" transform="scale(0.015625)"/>
      <path id="STIXNonUnicode-Italic-e238" d="M 4070 915 
L 4179 800 
Q 3347 -45 2413 -45 
Q 2157 -45 1850 26 
Q 1395 122 1146 122 
Q 1005 122 672 61 
Q 339 0 192 0 
L 230 154 
Q 582 154 730 749 
L 1178 2566 
Q 1286 3008 1516 3353 
Q 1747 3699 2025 3894 
Q 2304 4090 2585 4189 
Q 2867 4288 3123 4288 
Q 3443 4288 3593 4083 
Q 3744 3878 3744 3584 
Q 3744 3347 3593 3200 
Q 3443 3053 3226 3053 
Q 3085 3053 2995 3149 
Q 2906 3245 2906 3379 
Q 2906 3482 2957 3552 
Q 3008 3622 3065 3644 
Q 3123 3667 3174 3705 
Q 3226 3744 3226 3789 
Q 3226 4032 2854 4032 
Q 2522 4032 2310 3785 
Q 2099 3539 1990 3132 
Q 1882 2726 1795 2284 
Q 1709 1843 1549 1363 
Q 1389 883 1158 589 
L 1158 563 
Q 1363 704 1888 704 
Q 2227 704 2460 544 
Q 2694 384 2963 384 
Q 3507 384 4070 915 
z
" transform="scale(0.015625)"/>
      <path id="DejaVuSans-3d" d="M 678 2906 
L 4684 2906 
L 4684 2381 
L 678 2381 
L 678 2906 
z
M 678 1631 
L 4684 1631 
L 4684 1100 
L 678 1100 
L 678 1631 
z
" transform="scale(0.015625)"/>
      <path id="DejaVuSans-35" d="M 691 4666 
L 3169 4666 
L 3169 4134 
L 1269 4134 
L 1269 2991 
Q 1406 3038 1543 3061 
Q 1681 3084 1819 3084 
Q 2600 3084 3056 2656 
Q 3513 2228 3513 1497 
Q 3513 744 3044 326 
Q 2575 -91 1722 -91 
Q 1428 -91 1123 -41 
Q 819 9 494 109 
L 494 744 
Q 775 591 1075 516 
Q 1375 441 1709 441 
Q 2250 441 2565 725 
Q 2881 1009 2881 1497 
Q 2881 1984 2565 2268 
Q 2250 2553 1709 2553 
Q 1456 2553 1204 2497 
Q 953 2441 691 2322 
L 691 4666 
z
" transform="scale(0.015625)"/>
      <path id="STIXSizeOneSym-Regular-221a" d="M 6970 9933 
L 3373 -1888 
L 3104 -1888 
L 1626 2918 
Q 1555 3149 1465 3251 
Q 1376 3354 1229 3354 
Q 1011 3354 794 3181 
L 717 3309 
L 1766 4115 
L 1926 4115 
L 3379 -602 
L 3405 -602 
L 6605 9933 
L 6970 9933 
z
" transform="scale(0.015625)"/>
      <path id="DejaVuSans-Oblique-4c" d="M 1075 4666 
L 1709 4666 
L 909 525 
L 3181 525 
L 3078 0 
L 172 0 
L 1075 4666 
z
" transform="scale(0.015625)"/>
      <path id="DejaVuSans-Oblique-63" d="M 3431 3366 
L 3316 2797 
Q 3109 2947 2876 3022 
Q 2644 3097 2394 3097 
Q 2119 3097 1870 3000 
Q 1622 2903 1453 2725 
Q 1184 2453 1037 2087 
Q 891 1722 891 1331 
Q 891 859 1127 628 
Q 1363 397 1844 397 
Q 2081 397 2348 469 
Q 2616 541 2906 684 
L 2797 116 
Q 2547 13 2283 -39 
Q 2019 -91 1741 -91 
Q 1044 -91 669 257 
Q 294 606 294 1253 
Q 294 1797 489 2255 
Q 684 2713 1069 3078 
Q 1331 3328 1684 3456 
Q 2038 3584 2456 3584 
Q 2700 3584 2940 3529 
Q 3181 3475 3431 3366 
z
" transform="scale(0.015625)"/>
      <path id="DejaVuSans-Oblique-61" d="M 3438 1997 
L 3047 0 
L 2472 0 
L 2578 531 
Q 2325 219 2001 64 
Q 1678 -91 1281 -91 
Q 834 -91 548 182 
Q 263 456 263 884 
Q 263 1497 752 1853 
Q 1241 2209 2100 2209 
L 2900 2209 
L 2931 2363 
Q 2938 2388 2941 2417 
Q 2944 2447 2944 2509 
Q 2944 2788 2717 2942 
Q 2491 3097 2081 3097 
Q 1800 3097 1504 3025 
Q 1209 2953 897 2809 
L 997 3341 
Q 1322 3463 1633 3523 
Q 1944 3584 2234 3584 
Q 2853 3584 3176 3315 
Q 3500 3047 3500 2534 
Q 3500 2431 3484 2292 
Q 3469 2153 3438 1997 
z
M 2816 1759 
L 2241 1759 
Q 1534 1759 1195 1570 
Q 856 1381 856 984 
Q 856 709 1029 553 
Q 1203 397 1509 397 
Q 1978 397 2328 733 
Q 2678 1069 2791 1631 
L 2816 1759 
z
" transform="scale(0.015625)"/>
      <path id="DejaVuSans-Oblique-6c" d="M 1172 4863 
L 1747 4863 
L 800 0 
L 225 0 
L 1172 4863 
z
" transform="scale(0.015625)"/>
      <path id="DejaVuSans-Oblique-6d" d="M 5747 2113 
L 5338 0 
L 4763 0 
L 5166 2094 
Q 5191 2228 5203 2325 
Q 5216 2422 5216 2491 
Q 5216 2772 5059 2928 
Q 4903 3084 4622 3084 
Q 4203 3084 3875 2770 
Q 3547 2456 3450 1953 
L 3066 0 
L 2491 0 
L 2900 2094 
Q 2925 2209 2937 2307 
Q 2950 2406 2950 2484 
Q 2950 2769 2794 2926 
Q 2638 3084 2363 3084 
Q 1938 3084 1609 2770 
Q 1281 2456 1184 1953 
L 800 0 
L 225 0 
L 909 3500 
L 1484 3500 
L 1375 2956 
Q 1609 3263 1923 3423 
Q 2238 3584 2597 3584 
Q 2978 3584 3223 3384 
Q 3469 3184 3519 2828 
Q 3781 3197 4126 3390 
Q 4472 3584 4856 3584 
Q 5306 3584 5551 3325 
Q 5797 3066 5797 2591 
Q 5797 2488 5784 2364 
Q 5772 2241 5747 2113 
z
" transform="scale(0.015625)"/>
      <path id="DejaVuSans-Oblique-73" d="M 3200 3397 
L 3091 2853 
Q 2863 2978 2609 3040 
Q 2356 3103 2088 3103 
Q 1634 3103 1373 2948 
Q 1113 2794 1113 2528 
Q 1113 2219 1719 2053 
Q 1766 2041 1788 2034 
L 1972 1978 
Q 2547 1819 2739 1644 
Q 2931 1469 2931 1166 
Q 2931 609 2489 259 
Q 2047 -91 1331 -91 
Q 1053 -91 747 -37 
Q 441 16 72 128 
L 184 722 
Q 500 559 806 475 
Q 1113 391 1394 391 
Q 1816 391 2080 572 
Q 2344 753 2344 1031 
Q 2344 1331 1650 1516 
L 1591 1531 
L 1394 1581 
Q 956 1697 753 1886 
Q 550 2075 550 2369 
Q 550 2928 970 3256 
Q 1391 3584 2113 3584 
Q 2397 3584 2667 3537 
Q 2938 3491 3200 3397 
z
" transform="scale(0.015625)"/>
      <path id="DejaVuSans-Oblique-66" d="M 3059 4863 
L 2969 4384 
L 2419 4384 
Q 2106 4384 1964 4261 
Q 1822 4138 1753 3809 
L 1691 3500 
L 2638 3500 
L 2553 3053 
L 1606 3053 
L 1013 0 
L 434 0 
L 1031 3053 
L 481 3053 
L 563 3500 
L 1113 3500 
L 1159 3744 
Q 1278 4363 1576 4613 
Q 1875 4863 2516 4863 
L 3059 4863 
z
" transform="scale(0.015625)"/>
      <path id="DejaVuSans-Oblique-74" d="M 2706 3500 
L 2619 3053 
L 1472 3053 
L 1100 1153 
Q 1081 1047 1072 975 
Q 1063 903 1063 863 
Q 1063 663 1183 572 
Q 1303 481 1569 481 
L 2150 481 
L 2053 0 
L 1503 0 
Q 991 0 739 200 
Q 488 400 488 806 
Q 488 878 497 964 
Q 506 1050 525 1153 
L 897 3053 
L 409 3053 
L 500 3500 
L 978 3500 
L 1172 4494 
L 1747 4494 
L 1556 3500 
L 2706 3500 
z
" transform="scale(0.015625)"/>
      <path id="DejaVuSans-Oblique-72" d="M 2853 2969 
Q 2766 3016 2653 3041 
Q 2541 3066 2413 3066 
Q 1953 3066 1609 2717 
Q 1266 2369 1153 1784 
L 800 0 
L 225 0 
L 909 3500 
L 1484 3500 
L 1375 2956 
Q 1603 3259 1920 3421 
Q 2238 3584 2597 3584 
Q 2691 3584 2781 3573 
Q 2872 3563 2963 3538 
L 2853 2969 
z
" transform="scale(0.015625)"/>
      <path id="DejaVuSans-Oblique-62" d="M 3169 2138 
Q 3169 2591 2961 2847 
Q 2753 3103 2388 3103 
Q 2122 3103 1889 2973 
Q 1656 2844 1484 2597 
Q 1303 2338 1198 1995 
Q 1094 1653 1094 1313 
Q 1094 881 1298 636 
Q 1503 391 1863 391 
Q 2134 391 2365 517 
Q 2597 644 2772 891 
Q 2950 1147 3059 1487 
Q 3169 1828 3169 2138 
z
M 1381 2969 
Q 1594 3256 1914 3420 
Q 2234 3584 2584 3584 
Q 3122 3584 3439 3221 
Q 3756 2859 3756 2241 
Q 3756 1734 3570 1259 
Q 3384 784 3041 416 
Q 2816 172 2522 40 
Q 2228 -91 1906 -91 
Q 1566 -91 1316 65 
Q 1066 222 909 531 
L 806 0 
L 231 0 
L 1178 4863 
L 1753 4863 
L 1381 2969 
z
" transform="scale(0.015625)"/>
      <path id="DejaVuSans-Oblique-70" d="M 3175 2156 
Q 3175 2616 2975 2859 
Q 2775 3103 2400 3103 
Q 2144 3103 1911 2972 
Q 1678 2841 1497 2591 
Q 1319 2344 1212 1994 
Q 1106 1644 1106 1300 
Q 1106 863 1306 627 
Q 1506 391 1875 391 
Q 2147 391 2380 519 
Q 2613 647 2778 891 
Q 2956 1147 3065 1494 
Q 3175 1841 3175 2156 
z
M 1394 2969 
Q 1625 3272 1939 3428 
Q 2253 3584 2638 3584 
Q 3175 3584 3472 3232 
Q 3769 2881 3769 2247 
Q 3769 1728 3584 1258 
Q 3400 788 3053 416 
Q 2822 169 2531 39 
Q 2241 -91 1919 -91 
Q 1547 -91 1294 64 
Q 1041 219 916 525 
L 556 -1331 
L -19 -1331 
L 922 3500 
L 1497 3500 
L 1394 2969 
z
" transform="scale(0.015625)"/>
      <path id="DejaVuSans-Oblique-6f" d="M 1625 -91 
Q 1009 -91 651 289 
Q 294 669 294 1325 
Q 294 1706 417 2101 
Q 541 2497 738 2766 
Q 1047 3184 1428 3384 
Q 1809 3584 2291 3584 
Q 2888 3584 3255 3212 
Q 3622 2841 3622 2241 
Q 3622 1825 3500 1412 
Q 3378 1000 3181 728 
Q 2875 309 2494 109 
Q 2113 -91 1625 -91 
z
M 891 1344 
Q 891 869 1089 633 
Q 1288 397 1691 397 
Q 2269 397 2648 901 
Q 3028 1406 3028 2181 
Q 3028 2634 2825 2865 
Q 2622 3097 2228 3097 
Q 1903 3097 1650 2945 
Q 1397 2794 1197 2484 
Q 1050 2253 970 1956 
Q 891 1659 891 1344 
z
" transform="scale(0.015625)"/>
     </defs>
     <use xlink:href="#DejaVuSans-47" transform="translate(0 0.135937)"/>
     <use xlink:href="#DejaVuSans-65" transform="translate(77.490234 0.135937)"/>
     <use xlink:href="#DejaVuSans-6f" transform="translate(139.013672 0.135937)"/>
     <use xlink:href="#DejaVuSans-6d" transform="translate(200.195312 0.135937)"/>
     <use xlink:href="#DejaVuSans-65" transform="translate(297.607422 0.135937)"/>
     <use xlink:href="#DejaVuSans-74" transform="translate(359.130859 0.135937)"/>
     <use xlink:href="#DejaVuSans-72" transform="translate(398.339844 0.135937)"/>
     <use xlink:href="#DejaVuSans-69" transform="translate(439.453125 0.135937)"/>
     <use xlink:href="#DejaVuSans-63" transform="translate(467.236328 0.135937)"/>
     <use xlink:href="#DejaVuSans-2d" transform="translate(522.216797 0.135937)"/>
     <use xlink:href="#DejaVuSans-6d" transform="translate(556.550781 0.135937)"/>
     <use xlink:href="#DejaVuSans-65" transform="translate(653.962891 0.135937)"/>
     <use xlink:href="#DejaVuSans-61" transform="translate(715.486328 0.135937)"/>
     <use xlink:href="#DejaVuSans-6e" transform="translate(776.765625 0.135937)"/>
     <use xlink:href="#DejaVuSans-20" transform="translate(840.144531 0.135937)"/>
     <use xlink:href="#DejaVuSans-4c" transform="translate(871.931641 0.135937)"/>
     <use xlink:href="#DejaVuSans-31" transform="translate(927.644531 0.135937)"/>
     <use xlink:href="#DejaVuSans-20" transform="translate(991.267578 0.135937)"/>
     <use xlink:href="#DejaVuSans-6c" transform="translate(1023.054688 0.135937)"/>
     <use xlink:href="#DejaVuSans-6f" transform="translate(1050.837891 0.135937)"/>
     <use xlink:href="#DejaVuSans-73" transform="translate(1112.019531 0.135937)"/>
     <use xlink:href="#DejaVuSans-73" transform="translate(1164.119141 0.135937)"/>
     <use xlink:href="#DejaVuSans-3a" transform="translate(1216.21875 0.135937)"/>
     <use xlink:href="#DejaVuSans-20" transform="translate(1249.910156 0.135937)"/>
     <use xlink:href="#DejaVuSans-20" transform="translate(1281.697266 0.135937)"/>
     <use xlink:href="#DejaVuSans-20" transform="translate(1313.484375 0.135937)"/>
     <use xlink:href="#STIXNonUnicode-Italic-e238" transform="translate(1345.271484 0.135937)"/>
     <use xlink:href="#DejaVuSans-3d" transform="translate(1434.053894 0.135937)"/>
     <use xlink:href="#DejaVuSans-35" transform="translate(1537.325378 62.454375) scale(0.49)"/>
     <use xlink:href="#STIXSizeOneSym-Regular-221a" transform="translate(1529.854111 -9.296875) scale(0.731554)"/>
     <use xlink:href="#DejaVuSans-Oblique-4c" transform="translate(1635.882908 -0.15625)"/>
     <use xlink:href="#DejaVuSans-Oblique-63" transform="translate(1691.595799 -16.5625) scale(0.7)"/>
     <use xlink:href="#DejaVuSans-Oblique-61" transform="translate(1730.082127 -16.5625) scale(0.7)"/>
     <use xlink:href="#DejaVuSans-Oblique-6c" transform="translate(1772.977635 -16.5625) scale(0.7)"/>
     <use xlink:href="#DejaVuSans-Oblique-4c" transform="translate(1811.395928 -0.15625)"/>
     <use xlink:href="#DejaVuSans-Oblique-6d" transform="translate(1867.108819 -16.5625) scale(0.7)"/>
     <use xlink:href="#DejaVuSans-Oblique-61" transform="translate(1935.297296 -16.5625) scale(0.7)"/>
     <use xlink:href="#DejaVuSans-Oblique-73" transform="translate(1978.192803 -16.5625) scale(0.7)"/>
     <use xlink:href="#DejaVuSans-Oblique-73" transform="translate(2014.66253 -16.5625) scale(0.7)"/>
     <use xlink:href="#DejaVuSans-Oblique-4c" transform="translate(2070.102308 -0.15625)"/>
     <use xlink:href="#DejaVuSans-Oblique-66" transform="translate(2125.815198 -16.5625) scale(0.7)"/>
     <use xlink:href="#DejaVuSans-Oblique-61" transform="translate(2150.458753 -16.5625) scale(0.7)"/>
     <use xlink:href="#DejaVuSans-Oblique-74" transform="translate(2193.354261 -16.5625) scale(0.7)"/>
     <use xlink:href="#DejaVuSans-Oblique-4c" transform="translate(2239.770601 -0.15625)"/>
     <use xlink:href="#DejaVuSans-Oblique-63" transform="translate(2295.483492 -16.5625) scale(0.7)"/>
     <use xlink:href="#DejaVuSans-Oblique-61" transform="translate(2333.96982 -16.5625) scale(0.7)"/>
     <use xlink:href="#DejaVuSans-Oblique-72" transform="translate(2376.865328 -16.5625) scale(0.7)"/>
     <use xlink:href="#DejaVuSans-Oblique-62" transform="translate(2405.644625 -16.5625) scale(0.7)"/>
     <use xlink:href="#DejaVuSans-Oblique-4c" transform="translate(2469.04827 -0.15625)"/>
     <use xlink:href="#DejaVuSans-Oblique-70" transform="translate(2524.76116 -16.5625) scale(0.7)"/>
     <use xlink:href="#DejaVuSans-Oblique-72" transform="translate(2569.194754 -16.5625) scale(0.7)"/>
     <use xlink:href="#DejaVuSans-Oblique-6f" transform="translate(2597.974051 -16.5625) scale(0.7)"/>
     <use xlink:href="#DejaVuSans-Oblique-74" transform="translate(2640.801199 -16.5625) scale(0.7)"/>
     <path d="M 1607.147232 97.5 
L 1607.147232 103.75 
L 2699.71754 103.75 
L 2699.71754 97.5 
L 1607.147232 97.5 
z
"/>
    </g>
   </g>
   <g id="patch_25">
    <path d="M 304.451076 274.56533 
L 313.136124 274.56533 
Q 314.460064 274.56533 314.460064 273.24139 
L 314.460064 233.664401 
Q 314.460064 232.340461 313.136124 232.340461 
L 304.451076 232.340461 
Q 303.127136 232.340461 303.127136 233.664401 
L 303.127136 273.24139 
Q 303.127136 274.56533 304.451076 274.56533 
z
" clip-path="url(#p21da210a1e)" style="fill: #e7eaff; stroke: #3b4ab0; stroke-width: 1.3; stroke-linejoin: miter"/>
   </g>
   <g id="patch_26">
    <path d="M 304.451076 163.354345 
L 313.136124 163.354345 
Q 314.460064 163.354345 314.460064 162.030405 
L 314.460064 122.453416 
Q 314.460064 121.129476 313.136124 121.129476 
L 304.451076 121.129476 
Q 303.127136 121.129476 303.127136 122.453416 
L 303.127136 162.030405 
Q 303.127136 163.354345 304.451076 163.354345 
z
" clip-path="url(#p21da210a1e)" style="fill: #e3f5e8; stroke: #15803d; stroke-width: 1.3; stroke-linejoin: miter"/>
   </g>
   <g id="patch_27">
    <path d="M 315.572174 269.093044 
L 324.257223 269.093044 
Q 325.581163 269.093044 325.581163 267.769103 
L 325.581163 239.136688 
Q 325.581163 237.812747 324.257223 237.812747 
L 315.572174 237.812747 
Q 314.248234 237.812747 314.248234 239.136688 
L 314.248234 267.769103 
Q 314.248234 269.093044 315.572174 269.093044 
z
" clip-path="url(#p21da210a1e)" style="fill: #e7eaff; stroke: #3b4ab0; stroke-width: 1.3; stroke-linejoin: miter"/>
   </g>
   <g id="patch_28">
    <path d="M 315.572174 157.882059 
L 324.257223 157.882059 
Q 325.581163 157.882059 325.581163 156.558118 
L 325.581163 127.925703 
Q 325.581163 126.601762 324.257223 126.601762 
L 315.572174 126.601762 
Q 314.248234 126.601762 314.248234 127.925703 
L 314.248234 156.558118 
Q 314.248234 157.882059 315.572174 157.882059 
z
" clip-path="url(#p21da210a1e)" style="fill: #e3f5e8; stroke: #15803d; stroke-width: 1.3; stroke-linejoin: miter"/>
   </g>
   <g id="patch_29">
    <path d="M 326.693273 263.620757 
L 335.378321 263.620757 
Q 336.702261 263.620757 336.702261 262.296817 
L 336.702261 244.608974 
Q 336.702261 243.285034 335.378321 243.285034 
L 326.693273 243.285034 
Q 325.369333 243.285034 325.369333 244.608974 
L 325.369333 262.296817 
Q 325.369333 263.620757 326.693273 263.620757 
z
" clip-path="url(#p21da210a1e)" style="fill: #3b4ab0; stroke: #3b4ab0; stroke-width: 1.3; stroke-linejoin: miter"/>
   </g>
   <g id="patch_30">
    <path d="M 326.693273 152.409772 
L 335.378321 152.409772 
Q 336.702261 152.409772 336.702261 151.085832 
L 336.702261 133.397989 
Q 336.702261 132.074049 335.378321 132.074049 
L 326.693273 132.074049 
Q 325.369333 132.074049 325.369333 133.397989 
L 325.369333 151.085832 
Q 325.369333 152.409772 326.693273 152.409772 
z
" clip-path="url(#p21da210a1e)" style="fill: #15803d; stroke: #15803d; stroke-width: 1.3; stroke-linejoin: miter"/>
   </g>
   <g id="text_3">
    <!-- Overhead RGB -->
    <g style="fill: #334155" transform="translate(38.525266 193.092372) scale(0.105 -0.105)">
     <defs>
      <path id="DejaVuSans-Bold-4f" d="M 2719 3878 
Q 2169 3878 1866 3472 
Q 1563 3066 1563 2328 
Q 1563 1594 1866 1187 
Q 2169 781 2719 781 
Q 3272 781 3575 1187 
Q 3878 1594 3878 2328 
Q 3878 3066 3575 3472 
Q 3272 3878 2719 3878 
z
M 2719 4750 
Q 3844 4750 4481 4106 
Q 5119 3463 5119 2328 
Q 5119 1197 4481 553 
Q 3844 -91 2719 -91 
Q 1597 -91 958 553 
Q 319 1197 319 2328 
Q 319 3463 958 4106 
Q 1597 4750 2719 4750 
z
" transform="scale(0.015625)"/>
      <path id="DejaVuSans-Bold-76" d="M 97 3500 
L 1216 3500 
L 2088 1081 
L 2956 3500 
L 4078 3500 
L 2700 0 
L 1472 0 
L 97 3500 
z
" transform="scale(0.015625)"/>
      <path id="DejaVuSans-Bold-52" d="M 2297 2597 
Q 2675 2597 2839 2737 
Q 3003 2878 3003 3200 
Q 3003 3519 2839 3656 
Q 2675 3794 2297 3794 
L 1791 3794 
L 1791 2597 
L 2297 2597 
z
M 1791 1766 
L 1791 0 
L 588 0 
L 588 4666 
L 2425 4666 
Q 3347 4666 3776 4356 
Q 4206 4047 4206 3378 
Q 4206 2916 3982 2619 
Q 3759 2322 3309 2181 
Q 3556 2125 3751 1926 
Q 3947 1728 4147 1325 
L 4800 0 
L 3519 0 
L 2950 1159 
Q 2778 1509 2601 1637 
Q 2425 1766 2131 1766 
L 1791 1766 
z
" transform="scale(0.015625)"/>
      <path id="DejaVuSans-Bold-47" d="M 4781 347 
Q 4331 128 3847 18 
Q 3363 -91 2847 -91 
Q 1681 -91 1000 561 
Q 319 1213 319 2328 
Q 319 3456 1012 4103 
Q 1706 4750 2913 4750 
Q 3378 4750 3804 4662 
Q 4231 4575 4609 4403 
L 4609 3438 
Q 4219 3659 3833 3768 
Q 3447 3878 3059 3878 
Q 2341 3878 1952 3476 
Q 1563 3075 1563 2328 
Q 1563 1588 1938 1184 
Q 2313 781 3003 781 
Q 3191 781 3352 804 
Q 3513 828 3641 878 
L 3641 1784 
L 2906 1784 
L 2906 2591 
L 4781 2591 
L 4781 347 
z
" transform="scale(0.015625)"/>
      <path id="DejaVuSans-Bold-42" d="M 2456 2859 
Q 2741 2859 2887 2984 
Q 3034 3109 3034 3353 
Q 3034 3594 2887 3720 
Q 2741 3847 2456 3847 
L 1791 3847 
L 1791 2859 
L 2456 2859 
z
M 2497 819 
Q 2859 819 3042 972 
Q 3225 1125 3225 1434 
Q 3225 1738 3044 1889 
Q 2863 2041 2497 2041 
L 1791 2041 
L 1791 819 
L 2497 819 
z
M 3616 2497 
Q 4003 2384 4215 2081 
Q 4428 1778 4428 1338 
Q 4428 663 3972 331 
Q 3516 0 2584 0 
L 588 0 
L 588 4666 
L 2394 4666 
Q 3366 4666 3802 4372 
Q 4238 4078 4238 3431 
Q 4238 3091 4078 2852 
Q 3919 2613 3616 2497 
z
" transform="scale(0.015625)"/>
     </defs>
     <use xlink:href="#DejaVuSans-Bold-4f"/>
     <use xlink:href="#DejaVuSans-Bold-76" transform="translate(85.009766 0)"/>
     <use xlink:href="#DejaVuSans-Bold-65" transform="translate(150.195312 0)"/>
     <use xlink:href="#DejaVuSans-Bold-72" transform="translate(218.017578 0)"/>
     <use xlink:href="#DejaVuSans-Bold-68" transform="translate(267.333984 0)"/>
     <use xlink:href="#DejaVuSans-Bold-65" transform="translate(338.525391 0)"/>
     <use xlink:href="#DejaVuSans-Bold-61" transform="translate(406.347656 0)"/>
     <use xlink:href="#DejaVuSans-Bold-64" transform="translate(473.828125 0)"/>
     <use xlink:href="#DejaVuSans-Bold-20" transform="translate(545.410156 0)"/>
     <use xlink:href="#DejaVuSans-Bold-52" transform="translate(580.224609 0)"/>
     <use xlink:href="#DejaVuSans-Bold-47" transform="translate(657.226562 0)"/>
     <use xlink:href="#DejaVuSans-Bold-42" transform="translate(739.306641 0)"/>
    </g>
   </g>
   <g id="text_4">
    <!-- rgb.png -->
    <g style="fill: #6b7280" transform="translate(63.860266 211.584333) scale(0.09 -0.09)">
     <defs>
      <path id="DejaVuSans-67" d="M 2906 1791 
Q 2906 2416 2648 2759 
Q 2391 3103 1925 3103 
Q 1463 3103 1205 2759 
Q 947 2416 947 1791 
Q 947 1169 1205 825 
Q 1463 481 1925 481 
Q 2391 481 2648 825 
Q 2906 1169 2906 1791 
z
M 3481 434 
Q 3481 -459 3084 -895 
Q 2688 -1331 1869 -1331 
Q 1566 -1331 1297 -1286 
Q 1028 -1241 775 -1147 
L 775 -588 
Q 1028 -725 1275 -790 
Q 1522 -856 1778 -856 
Q 2344 -856 2625 -561 
Q 2906 -266 2906 331 
L 2906 616 
Q 2728 306 2450 153 
Q 2172 0 1784 0 
Q 1141 0 747 490 
Q 353 981 353 1791 
Q 353 2603 747 3093 
Q 1141 3584 1784 3584 
Q 2172 3584 2450 3431 
Q 2728 3278 2906 2969 
L 2906 3500 
L 3481 3500 
L 3481 434 
z
" transform="scale(0.015625)"/>
      <path id="DejaVuSans-62" d="M 3116 1747 
Q 3116 2381 2855 2742 
Q 2594 3103 2138 3103 
Q 1681 3103 1420 2742 
Q 1159 2381 1159 1747 
Q 1159 1113 1420 752 
Q 1681 391 2138 391 
Q 2594 391 2855 752 
Q 3116 1113 3116 1747 
z
M 1159 2969 
Q 1341 3281 1617 3432 
Q 1894 3584 2278 3584 
Q 2916 3584 3314 3078 
Q 3713 2572 3713 1747 
Q 3713 922 3314 415 
Q 2916 -91 2278 -91 
Q 1894 -91 1617 61 
Q 1341 213 1159 525 
L 1159 0 
L 581 0 
L 581 4863 
L 1159 4863 
L 1159 2969 
z
" transform="scale(0.015625)"/>
      <path id="DejaVuSans-2e" d="M 684 794 
L 1344 794 
L 1344 0 
L 684 0 
L 684 794 
z
" transform="scale(0.015625)"/>
      <path id="DejaVuSans-70" d="M 1159 525 
L 1159 -1331 
L 581 -1331 
L 581 3500 
L 1159 3500 
L 1159 2969 
Q 1341 3281 1617 3432 
Q 1894 3584 2278 3584 
Q 2916 3584 3314 3078 
Q 3713 2572 3713 1747 
Q 3713 922 3314 415 
Q 2916 -91 2278 -91 
Q 1894 -91 1617 61 
Q 1341 213 1159 525 
z
M 3116 1747 
Q 3116 2381 2855 2742 
Q 2594 3103 2138 3103 
Q 1681 3103 1420 2742 
Q 1159 2381 1159 1747 
Q 1159 1113 1420 752 
Q 1681 391 2138 391 
Q 2594 391 2855 752 
Q 3116 1113 3116 1747 
z
" transform="scale(0.015625)"/>
     </defs>
     <use xlink:href="#DejaVuSans-72"/>
     <use xlink:href="#DejaVuSans-67" transform="translate(39.363281 0)"/>
     <use xlink:href="#DejaVuSans-62" transform="translate(102.839844 0)"/>
     <use xlink:href="#DejaVuSans-2e" transform="translate(166.316406 0)"/>
     <use xlink:href="#DejaVuSans-70" transform="translate(198.103516 0)"/>
     <use xlink:href="#DejaVuSans-6e" transform="translate(261.580078 0)"/>
     <use xlink:href="#DejaVuSans-67" transform="translate(324.958984 0)"/>
    </g>
   </g>
   <g id="text_5">
    <!-- Depth Anything V2 -->
    <g style="fill: #15803d" transform="translate(144.435948 110.967058) scale(0.105 -0.105)">
     <defs>
      <path id="DejaVuSans-Bold-41" d="M 3419 850 
L 1538 850 
L 1241 0 
L 31 0 
L 1759 4666 
L 3194 4666 
L 4922 0 
L 3713 0 
L 3419 850 
z
M 1838 1716 
L 3116 1716 
L 2478 3572 
L 1838 1716 
z
" transform="scale(0.015625)"/>
      <path id="DejaVuSans-Bold-79" d="M 78 3500 
L 1197 3500 
L 2138 1125 
L 2938 3500 
L 4056 3500 
L 2584 -331 
Q 2363 -916 2067 -1148 
Q 1772 -1381 1288 -1381 
L 641 -1381 
L 641 -647 
L 991 -647 
Q 1275 -647 1404 -556 
Q 1534 -466 1606 -231 
L 1638 -134 
L 78 3500 
z
" transform="scale(0.015625)"/>
      <path id="DejaVuSans-Bold-67" d="M 2919 594 
Q 2688 288 2409 144 
Q 2131 0 1766 0 
Q 1125 0 706 504 
Q 288 1009 288 1791 
Q 288 2575 706 3076 
Q 1125 3578 1766 3578 
Q 2131 3578 2409 3434 
Q 2688 3291 2919 2981 
L 2919 3500 
L 4044 3500 
L 4044 353 
Q 4044 -491 3511 -936 
Q 2978 -1381 1966 -1381 
Q 1638 -1381 1331 -1331 
Q 1025 -1281 716 -1178 
L 716 -306 
Q 1009 -475 1290 -558 
Q 1572 -641 1856 -641 
Q 2406 -641 2662 -400 
Q 2919 -159 2919 353 
L 2919 594 
z
M 2181 2772 
Q 1834 2772 1640 2515 
Q 1447 2259 1447 1791 
Q 1447 1309 1634 1061 
Q 1822 813 2181 813 
Q 2531 813 2725 1069 
Q 2919 1325 2919 1791 
Q 2919 2259 2725 2515 
Q 2531 2772 2181 2772 
z
" transform="scale(0.015625)"/>
      <path id="DejaVuSans-Bold-56" d="M 31 4666 
L 1241 4666 
L 2478 1222 
L 3713 4666 
L 4922 4666 
L 3194 0 
L 1759 0 
L 31 4666 
z
" transform="scale(0.015625)"/>
      <path id="DejaVuSans-Bold-32" d="M 1844 884 
L 3897 884 
L 3897 0 
L 506 0 
L 506 884 
L 2209 2388 
Q 2438 2594 2547 2791 
Q 2656 2988 2656 3200 
Q 2656 3528 2436 3728 
Q 2216 3928 1850 3928 
Q 1569 3928 1234 3808 
Q 900 3688 519 3450 
L 519 4475 
Q 925 4609 1322 4679 
Q 1719 4750 2100 4750 
Q 2938 4750 3402 4381 
Q 3866 4013 3866 3353 
Q 3866 2972 3669 2642 
Q 3472 2313 2841 1759 
L 1844 884 
z
" transform="scale(0.015625)"/>
     </defs>
     <use xlink:href="#DejaVuSans-Bold-44"/>
     <use xlink:href="#DejaVuSans-Bold-65" transform="translate(83.007812 0)"/>
     <use xlink:href="#DejaVuSans-Bold-70" transform="translate(150.830078 0)"/>
     <use xlink:href="#DejaVuSans-Bold-74" transform="translate(222.412109 0)"/>
     <use xlink:href="#DejaVuSans-Bold-68" transform="translate(270.214844 0)"/>
     <use xlink:href="#DejaVuSans-Bold-20" transform="translate(341.40625 0)"/>
     <use xlink:href="#DejaVuSans-Bold-41" transform="translate(376.220703 0)"/>
     <use xlink:href="#DejaVuSans-Bold-6e" transform="translate(453.613281 0)"/>
     <use xlink:href="#DejaVuSans-Bold-79" transform="translate(524.804688 0)"/>
     <use xlink:href="#DejaVuSans-Bold-74" transform="translate(589.990234 0)"/>
     <use xlink:href="#DejaVuSans-Bold-68" transform="translate(637.792969 0)"/>
     <use xlink:href="#DejaVuSans-Bold-69" transform="translate(708.984375 0)"/>
     <use xlink:href="#DejaVuSans-Bold-6e" transform="translate(743.261719 0)"/>
     <use xlink:href="#DejaVuSans-Bold-67" transform="translate(814.453125 0)"/>
     <use xlink:href="#DejaVuSans-Bold-20" transform="translate(886.035156 0)"/>
     <use xlink:href="#DejaVuSans-Bold-56" transform="translate(920.849609 0)"/>
     <use xlink:href="#DejaVuSans-Bold-32" transform="translate(998.242188 0)"/>
    </g>
   </g>
   <g id="text_6">
    <!-- frozen → depth -->
    <g style="fill: #6b7280" transform="translate(166.696768 129.500035) scale(0.09 -0.09)">
     <defs>
      <path id="DejaVuSans-66" d="M 2375 4863 
L 2375 4384 
L 1825 4384 
Q 1516 4384 1395 4259 
Q 1275 4134 1275 3809 
L 1275 3500 
L 2222 3500 
L 2222 3053 
L 1275 3053 
L 1275 0 
L 697 0 
L 697 3053 
L 147 3053 
L 147 3500 
L 697 3500 
L 697 3744 
Q 697 4328 969 4595 
Q 1241 4863 1831 4863 
L 2375 4863 
z
" transform="scale(0.015625)"/>
      <path id="DejaVuSans-7a" d="M 353 3500 
L 3084 3500 
L 3084 2975 
L 922 459 
L 3084 459 
L 3084 0 
L 275 0 
L 275 525 
L 2438 3041 
L 353 3041 
L 353 3500 
z
" transform="scale(0.015625)"/>
      <path id="DejaVuSans-2192" d="M 5050 2147 
L 5050 1866 
L 3822 638 
L 3447 1013 
L 4175 1741 
L 366 1741 
L 366 2272 
L 4175 2272 
L 3447 3000 
L 3822 3375 
L 5050 2147 
z
" transform="scale(0.015625)"/>
      <path id="DejaVuSans-64" d="M 2906 2969 
L 2906 4863 
L 3481 4863 
L 3481 0 
L 2906 0 
L 2906 525 
Q 2725 213 2448 61 
Q 2172 -91 1784 -91 
Q 1150 -91 751 415 
Q 353 922 353 1747 
Q 353 2572 751 3078 
Q 1150 3584 1784 3584 
Q 2172 3584 2448 3432 
Q 2725 3281 2906 2969 
z
M 947 1747 
Q 947 1113 1208 752 
Q 1469 391 1925 391 
Q 2381 391 2643 752 
Q 2906 1113 2906 1747 
Q 2906 2381 2643 2742 
Q 2381 3103 1925 3103 
Q 1469 3103 1208 2742 
Q 947 2381 947 1747 
z
" transform="scale(0.015625)"/>
      <path id="DejaVuSans-68" d="M 3513 2113 
L 3513 0 
L 2938 0 
L 2938 2094 
Q 2938 2591 2744 2837 
Q 2550 3084 2163 3084 
Q 1697 3084 1428 2787 
Q 1159 2491 1159 1978 
L 1159 0 
L 581 0 
L 581 4863 
L 1159 4863 
L 1159 2956 
Q 1366 3272 1645 3428 
Q 1925 3584 2291 3584 
Q 2894 3584 3203 3211 
Q 3513 2838 3513 2113 
z
" transform="scale(0.015625)"/>
     </defs>
     <use xlink:href="#DejaVuSans-66"/>
     <use xlink:href="#DejaVuSans-72" transform="translate(35.205078 0)"/>
     <use xlink:href="#DejaVuSans-6f" transform="translate(74.068359 0)"/>
     <use xlink:href="#DejaVuSans-7a" transform="translate(135.25 0)"/>
     <use xlink:href="#DejaVuSans-65" transform="translate(187.740234 0)"/>
     <use xlink:href="#DejaVuSans-6e" transform="translate(249.263672 0)"/>
     <use xlink:href="#DejaVuSans-20" transform="translate(312.642578 0)"/>
     <use xlink:href="#DejaVuSans-2192" transform="translate(344.429688 0)"/>
     <use xlink:href="#DejaVuSans-20" transform="translate(428.21875 0)"/>
     <use xlink:href="#DejaVuSans-64" transform="translate(460.005859 0)"/>
     <use xlink:href="#DejaVuSans-65" transform="translate(523.482422 0)"/>
     <use xlink:href="#DejaVuSans-70" transform="translate(585.005859 0)"/>
     <use xlink:href="#DejaVuSans-74" transform="translate(648.482422 0)"/>
     <use xlink:href="#DejaVuSans-68" transform="translate(687.691406 0)"/>
    </g>
   </g>
   <g id="text_7">
    <!-- CAB fusion -->
    <g style="fill: #7c3aed" transform="translate(424.498744 185.091592) scale(0.125 -0.125)">
     <defs>
      <path id="DejaVuSans-Bold-43" d="M 4288 256 
Q 3956 84 3597 -3 
Q 3238 -91 2847 -91 
Q 1681 -91 1000 561 
Q 319 1213 319 2328 
Q 319 3447 1000 4098 
Q 1681 4750 2847 4750 
Q 3238 4750 3597 4662 
Q 3956 4575 4288 4403 
L 4288 3438 
Q 3953 3666 3628 3772 
Q 3303 3878 2944 3878 
Q 2300 3878 1931 3465 
Q 1563 3053 1563 2328 
Q 1563 1606 1931 1193 
Q 2300 781 2944 781 
Q 3303 781 3628 887 
Q 3953 994 4288 1222 
L 4288 256 
z
" transform="scale(0.015625)"/>
     </defs>
     <use xlink:href="#DejaVuSans-Bold-43"/>
     <use xlink:href="#DejaVuSans-Bold-41" transform="translate(73.388672 0)"/>
     <use xlink:href="#DejaVuSans-Bold-42" transform="translate(150.78125 0)"/>
     <use xlink:href="#DejaVuSans-Bold-20" transform="translate(227.001953 0)"/>
     <use xlink:href="#DejaVuSans-Bold-66" transform="translate(261.816406 0)"/>
     <use xlink:href="#DejaVuSans-Bold-75" transform="translate(305.322266 0)"/>
     <use xlink:href="#DejaVuSans-Bold-73" transform="translate(376.513672 0)"/>
     <use xlink:href="#DejaVuSans-Bold-69" transform="translate(436.035156 0)"/>
     <use xlink:href="#DejaVuSans-Bold-6f" transform="translate(470.3125 0)"/>
     <use xlink:href="#DejaVuSans-Bold-6e" transform="translate(539.013672 0)"/>
    </g>
   </g>
   <g id="text_8">
    <!-- channel + spatial -->
    <g style="fill: #6b7280" transform="translate(428.472681 219.463494) scale(0.078 -0.078)">
     <defs>
      <path id="DejaVuSans-2b" d="M 2944 4013 
L 2944 2272 
L 4684 2272 
L 4684 1741 
L 2944 1741 
L 2944 0 
L 2419 0 
L 2419 1741 
L 678 1741 
L 678 2272 
L 2419 2272 
L 2419 4013 
L 2944 4013 
z
" transform="scale(0.015625)"/>
     </defs>
     <use xlink:href="#DejaVuSans-63"/>
     <use xlink:href="#DejaVuSans-68" transform="translate(54.980469 0)"/>
     <use xlink:href="#DejaVuSans-61" transform="translate(118.359375 0)"/>
     <use xlink:href="#DejaVuSans-6e" transform="translate(179.638672 0)"/>
     <use xlink:href="#DejaVuSans-6e" transform="translate(243.017578 0)"/>
     <use xlink:href="#DejaVuSans-65" transform="translate(306.396484 0)"/>
     <use xlink:href="#DejaVuSans-6c" transform="translate(367.919922 0)"/>
     <use xlink:href="#DejaVuSans-20" transform="translate(395.703125 0)"/>
     <use xlink:href="#DejaVuSans-2b" transform="translate(427.490234 0)"/>
     <use xlink:href="#DejaVuSans-20" transform="translate(511.279297 0)"/>
     <use xlink:href="#DejaVuSans-73" transform="translate(543.066406 0)"/>
     <use xlink:href="#DejaVuSans-70" transform="translate(595.166016 0)"/>
     <use xlink:href="#DejaVuSans-61" transform="translate(658.642578 0)"/>
     <use xlink:href="#DejaVuSans-74" transform="translate(719.921875 0)"/>
     <use xlink:href="#DejaVuSans-69" transform="translate(759.130859 0)"/>
     <use xlink:href="#DejaVuSans-61" transform="translate(786.914062 0)"/>
     <use xlink:href="#DejaVuSans-6c" transform="translate(848.193359 0)"/>
    </g>
    <!-- attention · same level -->
    <g style="fill: #6b7280" transform="translate(419.993228 228.197788) scale(0.078 -0.078)">
     <defs>
      <path id="DejaVuSans-b7" d="M 684 2619 
L 1344 2619 
L 1344 1825 
L 684 1825 
L 684 2619 
z
" transform="scale(0.015625)"/>
      <path id="DejaVuSans-76" d="M 191 3500 
L 800 3500 
L 1894 563 
L 2988 3500 
L 3597 3500 
L 2284 0 
L 1503 0 
L 191 3500 
z
" transform="scale(0.015625)"/>
     </defs>
     <use xlink:href="#DejaVuSans-61"/>
     <use xlink:href="#DejaVuSans-74" transform="translate(61.279297 0)"/>
     <use xlink:href="#DejaVuSans-74" transform="translate(100.488281 0)"/>
     <use xlink:href="#DejaVuSans-65" transform="translate(139.697266 0)"/>
     <use xlink:href="#DejaVuSans-6e" transform="translate(201.220703 0)"/>
     <use xlink:href="#DejaVuSans-74" transform="translate(264.599609 0)"/>
     <use xlink:href="#DejaVuSans-69" transform="translate(303.808594 0)"/>
     <use xlink:href="#DejaVuSans-6f" transform="translate(331.591797 0)"/>
     <use xlink:href="#DejaVuSans-6e" transform="translate(392.773438 0)"/>
     <use xlink:href="#DejaVuSans-20" transform="translate(456.152344 0)"/>
     <use xlink:href="#DejaVuSans-b7" transform="translate(487.939453 0)"/>
     <use xlink:href="#DejaVuSans-20" transform="translate(519.726562 0)"/>
     <use xlink:href="#DejaVuSans-73" transform="translate(551.513672 0)"/>
     <use xlink:href="#DejaVuSans-61" transform="translate(603.613281 0)"/>
     <use xlink:href="#DejaVuSans-6d" transform="translate(664.892578 0)"/>
     <use xlink:href="#DejaVuSans-65" transform="translate(762.304688 0)"/>
     <use xlink:href="#DejaVuSans-20" transform="translate(823.828125 0)"/>
     <use xlink:href="#DejaVuSans-6c" transform="translate(855.615234 0)"/>
     <use xlink:href="#DejaVuSans-65" transform="translate(883.398438 0)"/>
     <use xlink:href="#DejaVuSans-76" transform="translate(944.921875 0)"/>
     <use xlink:href="#DejaVuSans-65" transform="translate(1004.101562 0)"/>
     <use xlink:href="#DejaVuSans-6c" transform="translate(1065.625 0)"/>
    </g>
   </g>
   <g id="text_9">
    <!-- Multi-scale -->
    <g style="fill: #0e8f8d" transform="translate(549.40005 192.192092) scale(0.105 -0.105)">
     <defs>
      <path id="DejaVuSans-Bold-4d" d="M 588 4666 
L 2119 4666 
L 3181 2169 
L 4250 4666 
L 5778 4666 
L 5778 0 
L 4641 0 
L 4641 3413 
L 3566 897 
L 2803 897 
L 1728 3413 
L 1728 0 
L 588 0 
L 588 4666 
z
" transform="scale(0.015625)"/>
     </defs>
     <use xlink:href="#DejaVuSans-Bold-4d"/>
     <use xlink:href="#DejaVuSans-Bold-75" transform="translate(99.511719 0)"/>
     <use xlink:href="#DejaVuSans-Bold-6c" transform="translate(170.703125 0)"/>
     <use xlink:href="#DejaVuSans-Bold-74" transform="translate(204.980469 0)"/>
     <use xlink:href="#DejaVuSans-Bold-69" transform="translate(252.783203 0)"/>
     <use xlink:href="#DejaVuSans-Bold-2d" transform="translate(287.060547 0)"/>
     <use xlink:href="#DejaVuSans-Bold-73" transform="translate(328.564453 0)"/>
     <use xlink:href="#DejaVuSans-Bold-63" transform="translate(388.085938 0)"/>
     <use xlink:href="#DejaVuSans-Bold-61" transform="translate(447.363281 0)"/>
     <use xlink:href="#DejaVuSans-Bold-6c" transform="translate(514.84375 0)"/>
     <use xlink:href="#DejaVuSans-Bold-65" transform="translate(549.121094 0)"/>
    </g>
   </g>
   <g id="text_10">
    <!-- add → GAP -->
    <g style="fill: #6b7280" transform="translate(557.40923 212.908273) scale(0.09 -0.09)">
     <defs>
      <path id="DejaVuSans-41" d="M 2188 4044 
L 1331 1722 
L 3047 1722 
L 2188 4044 
z
M 1831 4666 
L 2547 4666 
L 4325 0 
L 3669 0 
L 3244 1197 
L 1141 1197 
L 716 0 
L 50 0 
L 1831 4666 
z
" transform="scale(0.015625)"/>
      <path id="DejaVuSans-50" d="M 1259 4147 
L 1259 2394 
L 2053 2394 
Q 2494 2394 2734 2622 
Q 2975 2850 2975 3272 
Q 2975 3691 2734 3919 
Q 2494 4147 2053 4147 
L 1259 4147 
z
M 628 4666 
L 2053 4666 
Q 2838 4666 3239 4311 
Q 3641 3956 3641 3272 
Q 3641 2581 3239 2228 
Q 2838 1875 2053 1875 
L 1259 1875 
L 1259 0 
L 628 0 
L 628 4666 
z
" transform="scale(0.015625)"/>
     </defs>
     <use xlink:href="#DejaVuSans-61"/>
     <use xlink:href="#DejaVuSans-64" transform="translate(61.279297 0)"/>
     <use xlink:href="#DejaVuSans-64" transform="translate(124.755859 0)"/>
     <use xlink:href="#DejaVuSans-20" transform="translate(188.232422 0)"/>
     <use xlink:href="#DejaVuSans-2192" transform="translate(220.019531 0)"/>
     <use xlink:href="#DejaVuSans-20" transform="translate(303.808594 0)"/>
     <use xlink:href="#DejaVuSans-47" transform="translate(335.595703 0)"/>
     <use xlink:href="#DejaVuSans-41" transform="translate(413.085938 0)"/>
     <use xlink:href="#DejaVuSans-50" transform="translate(481.494141 0)"/>
    </g>
   </g>
   <g id="text_11">
    <!-- Calories -->
    <g style="fill: #c2410c" transform="translate(655.884836 102.773165) scale(0.105 -0.105)">
     <use xlink:href="#DejaVuSans-Bold-43"/>
     <use xlink:href="#DejaVuSans-Bold-61" transform="translate(73.388672 0)"/>
     <use xlink:href="#DejaVuSans-Bold-6c" transform="translate(140.869141 0)"/>
     <use xlink:href="#DejaVuSans-Bold-6f" transform="translate(175.146484 0)"/>
     <use xlink:href="#DejaVuSans-Bold-72" transform="translate(243.847656 0)"/>
     <use xlink:href="#DejaVuSans-Bold-69" transform="translate(293.164062 0)"/>
     <use xlink:href="#DejaVuSans-Bold-65" transform="translate(327.441406 0)"/>
     <use xlink:href="#DejaVuSans-Bold-73" transform="translate(395.263672 0)"/>
    </g>
   </g>
   <g id="text_12">
    <!-- Mass -->
    <g style="fill: #c2410c" transform="translate(664.745031 151.758956) scale(0.105 -0.105)">
     <use xlink:href="#DejaVuSans-Bold-4d"/>
     <use xlink:href="#DejaVuSans-Bold-61" transform="translate(99.511719 0)"/>
     <use xlink:href="#DejaVuSans-Bold-73" transform="translate(166.992188 0)"/>
     <use xlink:href="#DejaVuSans-Bold-73" transform="translate(226.513672 0)"/>
    </g>
   </g>
   <g id="text_13">
    <!-- Fat -->
    <g style="fill: #c2410c" transform="translate(670.431437 200.744747) scale(0.105 -0.105)">
     <use xlink:href="#DejaVuSans-Bold-46"/>
     <use xlink:href="#DejaVuSans-Bold-61" transform="translate(62.435547 0)"/>
     <use xlink:href="#DejaVuSans-Bold-74" transform="translate(129.916016 0)"/>
    </g>
   </g>
   <g id="text_14">
    <!-- Carb -->
    <g style="fill: #c2410c" transform="translate(666.018976 249.730538) scale(0.105 -0.105)">
     <defs>
      <path id="DejaVuSans-Bold-62" d="M 2400 722 
Q 2759 722 2948 984 
Q 3138 1247 3138 1747 
Q 3138 2247 2948 2509 
Q 2759 2772 2400 2772 
Q 2041 2772 1848 2508 
Q 1656 2244 1656 1747 
Q 1656 1250 1848 986 
Q 2041 722 2400 722 
z
M 1656 2988 
Q 1888 3294 2169 3439 
Q 2450 3584 2816 3584 
Q 3463 3584 3878 3070 
Q 4294 2556 4294 1747 
Q 4294 938 3878 423 
Q 3463 -91 2816 -91 
Q 2450 -91 2169 54 
Q 1888 200 1656 506 
L 1656 0 
L 538 0 
L 538 4863 
L 1656 4863 
L 1656 2988 
z
" transform="scale(0.015625)"/>
     </defs>
     <use xlink:href="#DejaVuSans-Bold-43"/>
     <use xlink:href="#DejaVuSans-Bold-61" transform="translate(73.388672 0)"/>
     <use xlink:href="#DejaVuSans-Bold-72" transform="translate(140.869141 0)"/>
     <use xlink:href="#DejaVuSans-Bold-62" transform="translate(190.185547 0)"/>
    </g>
   </g>
   <g id="text_15">
    <!-- Protein -->
    <g style="fill: #c2410c" transform="translate(658.110344 298.716329) scale(0.105 -0.105)">
     <use xlink:href="#DejaVuSans-Bold-50"/>
     <use xlink:href="#DejaVuSans-Bold-72" transform="translate(73.291016 0)"/>
     <use xlink:href="#DejaVuSans-Bold-6f" transform="translate(122.607422 0)"/>
     <use xlink:href="#DejaVuSans-Bold-74" transform="translate(191.308594 0)"/>
     <use xlink:href="#DejaVuSans-Bold-65" transform="translate(239.111328 0)"/>
     <use xlink:href="#DejaVuSans-Bold-69" transform="translate(306.933594 0)"/>
     <use xlink:href="#DejaVuSans-Bold-6e" transform="translate(341.210938 0)"/>
    </g>
   </g>
   <g id="text_16">
    <!-- RGB stream -->
    <g style="fill: #1f2937" transform="translate(272.713524 295.561171) scale(0.125 -0.125)">
     <use xlink:href="#DejaVuSans-Bold-52"/>
     <use xlink:href="#DejaVuSans-Bold-47" transform="translate(77.001953 0)"/>
     <use xlink:href="#DejaVuSans-Bold-42" transform="translate(159.082031 0)"/>
     <use xlink:href="#DejaVuSans-Bold-20" transform="translate(235.302734 0)"/>
     <use xlink:href="#DejaVuSans-Bold-73" transform="translate(270.117188 0)"/>
     <use xlink:href="#DejaVuSans-Bold-74" transform="translate(329.638672 0)"/>
     <use xlink:href="#DejaVuSans-Bold-72" transform="translate(377.441406 0)"/>
     <use xlink:href="#DejaVuSans-Bold-65" transform="translate(426.757812 0)"/>
     <use xlink:href="#DejaVuSans-Bold-61" transform="translate(494.580078 0)"/>
     <use xlink:href="#DejaVuSans-Bold-6d" transform="translate(562.060547 0)"/>
    </g>
   </g>
   <g id="text_17">
    <!-- ResNet-101 · 7×7×2048 -->
    <g style="fill: #6b7280" transform="translate(261.644884 305.076537) scale(0.086 -0.086)">
     <defs>
      <path id="DejaVuSans-52" d="M 2841 2188 
Q 3044 2119 3236 1894 
Q 3428 1669 3622 1275 
L 4263 0 
L 3584 0 
L 2988 1197 
Q 2756 1666 2539 1819 
Q 2322 1972 1947 1972 
L 1259 1972 
L 1259 0 
L 628 0 
L 628 4666 
L 2053 4666 
Q 2853 4666 3247 4331 
Q 3641 3997 3641 3322 
Q 3641 2881 3436 2590 
Q 3231 2300 2841 2188 
z
M 1259 4147 
L 1259 2491 
L 2053 2491 
Q 2509 2491 2742 2702 
Q 2975 2913 2975 3322 
Q 2975 3731 2742 3939 
Q 2509 4147 2053 4147 
L 1259 4147 
z
" transform="scale(0.015625)"/>
      <path id="DejaVuSans-4e" d="M 628 4666 
L 1478 4666 
L 3547 763 
L 3547 4666 
L 4159 4666 
L 4159 0 
L 3309 0 
L 1241 3903 
L 1241 0 
L 628 0 
L 628 4666 
z
" transform="scale(0.015625)"/>
      <path id="DejaVuSans-30" d="M 2034 4250 
Q 1547 4250 1301 3770 
Q 1056 3291 1056 2328 
Q 1056 1369 1301 889 
Q 1547 409 2034 409 
Q 2525 409 2770 889 
Q 3016 1369 3016 2328 
Q 3016 3291 2770 3770 
Q 2525 4250 2034 4250 
z
M 2034 4750 
Q 2819 4750 3233 4129 
Q 3647 3509 3647 2328 
Q 3647 1150 3233 529 
Q 2819 -91 2034 -91 
Q 1250 -91 836 529 
Q 422 1150 422 2328 
Q 422 3509 836 4129 
Q 1250 4750 2034 4750 
z
" transform="scale(0.015625)"/>
      <path id="DejaVuSans-37" d="M 525 4666 
L 3525 4666 
L 3525 4397 
L 1831 0 
L 1172 0 
L 2766 4134 
L 525 4134 
L 525 4666 
z
" transform="scale(0.015625)"/>
      <path id="DejaVuSans-d7" d="M 4488 3438 
L 3059 2003 
L 4488 575 
L 4116 197 
L 2681 1631 
L 1247 197 
L 878 575 
L 2303 2003 
L 878 3438 
L 1247 3816 
L 2681 2381 
L 4116 3816 
L 4488 3438 
z
" transform="scale(0.015625)"/>
      <path id="DejaVuSans-32" d="M 1228 531 
L 3431 531 
L 3431 0 
L 469 0 
L 469 531 
Q 828 903 1448 1529 
Q 2069 2156 2228 2338 
Q 2531 2678 2651 2914 
Q 2772 3150 2772 3378 
Q 2772 3750 2511 3984 
Q 2250 4219 1831 4219 
Q 1534 4219 1204 4116 
Q 875 4013 500 3803 
L 500 4441 
Q 881 4594 1212 4672 
Q 1544 4750 1819 4750 
Q 2544 4750 2975 4387 
Q 3406 4025 3406 3419 
Q 3406 3131 3298 2873 
Q 3191 2616 2906 2266 
Q 2828 2175 2409 1742 
Q 1991 1309 1228 531 
z
" transform="scale(0.015625)"/>
      <path id="DejaVuSans-34" d="M 2419 4116 
L 825 1625 
L 2419 1625 
L 2419 4116 
z
M 2253 4666 
L 3047 4666 
L 3047 1625 
L 3713 1625 
L 3713 1100 
L 3047 1100 
L 3047 0 
L 2419 0 
L 2419 1100 
L 313 1100 
L 313 1709 
L 2253 4666 
z
" transform="scale(0.015625)"/>
      <path id="DejaVuSans-38" d="M 2034 2216 
Q 1584 2216 1326 1975 
Q 1069 1734 1069 1313 
Q 1069 891 1326 650 
Q 1584 409 2034 409 
Q 2484 409 2743 651 
Q 3003 894 3003 1313 
Q 3003 1734 2745 1975 
Q 2488 2216 2034 2216 
z
M 1403 2484 
Q 997 2584 770 2862 
Q 544 3141 544 3541 
Q 544 4100 942 4425 
Q 1341 4750 2034 4750 
Q 2731 4750 3128 4425 
Q 3525 4100 3525 3541 
Q 3525 3141 3298 2862 
Q 3072 2584 2669 2484 
Q 3125 2378 3379 2068 
Q 3634 1759 3634 1313 
Q 3634 634 3220 271 
Q 2806 -91 2034 -91 
Q 1263 -91 848 271 
Q 434 634 434 1313 
Q 434 1759 690 2068 
Q 947 2378 1403 2484 
z
M 1172 3481 
Q 1172 3119 1398 2916 
Q 1625 2713 2034 2713 
Q 2441 2713 2670 2916 
Q 2900 3119 2900 3481 
Q 2900 3844 2670 4047 
Q 2441 4250 2034 4250 
Q 1625 4250 1398 4047 
Q 1172 3844 1172 3481 
z
" transform="scale(0.015625)"/>
     </defs>
     <use xlink:href="#DejaVuSans-52"/>
     <use xlink:href="#DejaVuSans-65" transform="translate(64.982422 0)"/>
     <use xlink:href="#DejaVuSans-73" transform="translate(126.505859 0)"/>
     <use xlink:href="#DejaVuSans-4e" transform="translate(178.605469 0)"/>
     <use xlink:href="#DejaVuSans-65" transform="translate(253.410156 0)"/>
     <use xlink:href="#DejaVuSans-74" transform="translate(314.933594 0)"/>
     <use xlink:href="#DejaVuSans-2d" transform="translate(354.142578 0)"/>
     <use xlink:href="#DejaVuSans-31" transform="translate(390.226562 0)"/>
     <use xlink:href="#DejaVuSans-30" transform="translate(453.849609 0)"/>
     <use xlink:href="#DejaVuSans-31" transform="translate(517.472656 0)"/>
     <use xlink:href="#DejaVuSans-20" transform="translate(581.095703 0)"/>
     <use xlink:href="#DejaVuSans-b7" transform="translate(612.882812 0)"/>
     <use xlink:href="#DejaVuSans-20" transform="translate(644.669922 0)"/>
     <use xlink:href="#DejaVuSans-37" transform="translate(676.457031 0)"/>
     <use xlink:href="#DejaVuSans-d7" transform="translate(740.080078 0)"/>
     <use xlink:href="#DejaVuSans-37" transform="translate(823.869141 0)"/>
     <use xlink:href="#DejaVuSans-d7" transform="translate(887.492188 0)"/>
     <use xlink:href="#DejaVuSans-32" transform="translate(971.28125 0)"/>
     <use xlink:href="#DejaVuSans-30" transform="translate(1034.904297 0)"/>
     <use xlink:href="#DejaVuSans-34" transform="translate(1098.527344 0)"/>
     <use xlink:href="#DejaVuSans-38" transform="translate(1162.150391 0)"/>
    </g>
   </g>
   <g id="text_18">
    <!-- Depth stream -->
    <g style="fill: #1f2937" transform="translate(266.081688 184.350186) scale(0.125 -0.125)">
     <use xlink:href="#DejaVuSans-Bold-44"/>
     <use xlink:href="#DejaVuSans-Bold-65" transform="translate(83.007812 0)"/>
     <use xlink:href="#DejaVuSans-Bold-70" transform="translate(150.830078 0)"/>
     <use xlink:href="#DejaVuSans-Bold-74" transform="translate(222.412109 0)"/>
     <use xlink:href="#DejaVuSans-Bold-68" transform="translate(270.214844 0)"/>
     <use xlink:href="#DejaVuSans-Bold-20" transform="translate(341.40625 0)"/>
     <use xlink:href="#DejaVuSans-Bold-73" transform="translate(376.220703 0)"/>
     <use xlink:href="#DejaVuSans-Bold-74" transform="translate(435.742188 0)"/>
     <use xlink:href="#DejaVuSans-Bold-72" transform="translate(483.544922 0)"/>
     <use xlink:href="#DejaVuSans-Bold-65" transform="translate(532.861328 0)"/>
     <use xlink:href="#DejaVuSans-Bold-61" transform="translate(600.683594 0)"/>
     <use xlink:href="#DejaVuSans-Bold-6d" transform="translate(668.164062 0)"/>
    </g>
   </g>
   <g id="text_19">
    <!-- ResNet-101 · 1-ch stem -->
    <g style="fill: #6b7280" transform="translate(263.763306 193.865552) scale(0.086 -0.086)">
     <use xlink:href="#DejaVuSans-52"/>
     <use xlink:href="#DejaVuSans-65" transform="translate(64.982422 0)"/>
     <use xlink:href="#DejaVuSans-73" transform="translate(126.505859 0)"/>
     <use xlink:href="#DejaVuSans-4e" transform="translate(178.605469 0)"/>
     <use xlink:href="#DejaVuSans-65" transform="translate(253.410156 0)"/>
     <use xlink:href="#DejaVuSans-74" transform="translate(314.933594 0)"/>
     <use xlink:href="#DejaVuSans-2d" transform="translate(354.142578 0)"/>
     <use xlink:href="#DejaVuSans-31" transform="translate(390.226562 0)"/>
     <use xlink:href="#DejaVuSans-30" transform="translate(453.849609 0)"/>
     <use xlink:href="#DejaVuSans-31" transform="translate(517.472656 0)"/>
     <use xlink:href="#DejaVuSans-20" transform="translate(581.095703 0)"/>
     <use xlink:href="#DejaVuSans-b7" transform="translate(612.882812 0)"/>
     <use xlink:href="#DejaVuSans-20" transform="translate(644.669922 0)"/>
     <use xlink:href="#DejaVuSans-31" transform="translate(676.457031 0)"/>
     <use xlink:href="#DejaVuSans-2d" transform="translate(740.080078 0)"/>
     <use xlink:href="#DejaVuSans-63" transform="translate(776.164062 0)"/>
     <use xlink:href="#DejaVuSans-68" transform="translate(831.144531 0)"/>
     <use xlink:href="#DejaVuSans-20" transform="translate(894.523438 0)"/>
     <use xlink:href="#DejaVuSans-73" transform="translate(926.310547 0)"/>
     <use xlink:href="#DejaVuSans-74" transform="translate(978.410156 0)"/>
     <use xlink:href="#DejaVuSans-65" transform="translate(1017.619141 0)"/>
     <use xlink:href="#DejaVuSans-6d" transform="translate(1079.142578 0)"/>
    </g>
   </g>
   <g id="text_20">
    <!-- 5 heads -->
    <g style="fill: #c2410c" transform="translate(646.663164 73.477226) scale(0.098 -0.098)">
     <defs>
      <path id="DejaVuSans-Bold-35" d="M 678 4666 
L 3669 4666 
L 3669 3781 
L 1638 3781 
L 1638 3059 
Q 1775 3097 1914 3117 
Q 2053 3138 2203 3138 
Q 3056 3138 3531 2711 
Q 4006 2284 4006 1522 
Q 4006 766 3489 337 
Q 2972 -91 2053 -91 
Q 1656 -91 1267 -14 
Q 878 63 494 219 
L 494 1166 
Q 875 947 1217 837 
Q 1559 728 1863 728 
Q 2300 728 2551 942 
Q 2803 1156 2803 1522 
Q 2803 1891 2551 2103 
Q 2300 2316 1863 2316 
Q 1603 2316 1309 2248 
Q 1016 2181 678 2041 
L 678 4666 
z
" transform="scale(0.015625)"/>
     </defs>
     <use xlink:href="#DejaVuSans-Bold-35"/>
     <use xlink:href="#DejaVuSans-Bold-20" transform="translate(69.580078 0)"/>
     <use xlink:href="#DejaVuSans-Bold-68" transform="translate(104.394531 0)"/>
     <use xlink:href="#DejaVuSans-Bold-65" transform="translate(175.585938 0)"/>
     <use xlink:href="#DejaVuSans-Bold-61" transform="translate(243.408203 0)"/>
     <use xlink:href="#DejaVuSans-Bold-64" transform="translate(310.888672 0)"/>
     <use xlink:href="#DejaVuSans-Bold-73" transform="translate(382.470703 0)"/>
    </g>
   </g>
   <g id="text_21">
    <!-- ··· -->
    <g style="fill: #3b4ab0" transform="translate(314.670792 256.488208) scale(0.11 -0.11)">
     <use xlink:href="#DejaVuSans-b7"/>
     <use xlink:href="#DejaVuSans-b7" transform="translate(31.787109 0)"/>
     <use xlink:href="#DejaVuSans-b7" transform="translate(63.574219 0)"/>
    </g>
   </g>
   <g id="text_22">
    <!-- ··· -->
    <g style="fill: #15803d" transform="translate(314.670792 145.277223) scale(0.11 -0.11)">
     <use xlink:href="#DejaVuSans-b7"/>
     <use xlink:href="#DejaVuSans-b7" transform="translate(31.787109 0)"/>
     <use xlink:href="#DejaVuSans-b7" transform="translate(63.574219 0)"/>
    </g>
   </g>
  </g>
 </g>
 <defs>
  <clipPath id="p21da210a1e">
   <rect x="7.2" y="7.2" width="741.406567" height="354.816"/>
  </clipPath>
 </defs>
</svg>
