<?xml version="1.0" encoding="utf-8" standalone="no"?>
<!DOCTYPE svg PUBLIC "-//W3C//DTD SVG 1.1//EN"
  "http://www.w3.org/Graphics/SVG/1.1/DTD/svg11.dtd">
<svg xmlns:xlink="http://www.w3.org/1999/xlink" width="430.057812pt" height="296.878234pt" viewBox="0 0 430.057812 296.878234" xmlns="http://www.w3.org/2000/svg" version="1.1">
 <metadata>
  <rdf:RDF xmlns:dc="http://purl.org/dc/elements/1.1/" xmlns:cc="http://creativecommons.org/ns#" xmlns:rdf="http://www.w3.org/1999/02/22-rdf-syntax-ns#">
   <cc:Work>
    <dc:type rdf:resource="http://purl.org/dc/dcmitype/StillImage"/>
    <dc:date>2026-05-27T14:36:59.241814</dc:date>
    <dc:format>image/svg+xml</dc:format>
    <dc:creator>
     <cc:Agent>
      <dc:title>Matplotlib v3.10.8, https://matplotlib.org/</dc:title>
     </cc:Agent>
    </dc:creator>
   </cc:Work>
  </rdf:RDF>
 </metadata>
 <defs>
  <style type="text/css">*{stroke-linejoin: round; stroke-linecap: butt}</style>
 </defs>
 <g id="figure_1">
  <g id="patch_1">
   <path d="M 0 296.878234 
L 430.057812 296.878234 
L 430.057812 0 
L 0 0 
z
" style="fill: #ffffff"/>
  </g>
  <g id="axes_1">
   <g id="patch_2">
    <path d="M 45.51125 260.305891 
L 413.79125 260.305891 
L 413.79125 27.457891 
L 45.51125 27.457891 
z
" style="fill: #ffffff"/>
   </g>
   <g id="matplotlib.axis_1">
    <g id="xtick_1">
     <g id="line2d_1">
      <defs>
       <path id="mba2a9b3988" d="M 0 0 
L 0 3 
" style="stroke: #1f2937; stroke-width: 0.8"/>
      </defs>
      <g>
       <use xlink:href="#mba2a9b3988" x="45.51125" y="260.305891" style="fill: #1f2937; stroke: #1f2937; stroke-width: 0.8"/>
      </g>
     </g>
     <g id="text_1">
      <!-- 0 -->
      <g style="fill: #1f2937" transform="translate(42.489063 274.024406) scale(0.095 -0.095)">
       <defs>
        <path id="DejaVuSans-30" d="M 2034 4250 
Q 1547 4250 1301 3770 
Q 1056 3291 1056 2328 
Q 1056 1369 1301 889 
Q 1547 409 2034 409 
Q 2525 409 2770 889 
Q 3016 1369 3016 2328 
Q 3016 3291 2770 3770 
Q 2525 4250 2034 4250 
z
M 2034 4750 
Q 2819 4750 3233 4129 
Q 3647 3509 3647 2328 
Q 3647 1150 3233 529 
Q 2819 -91 2034 -91 
Q 1250 -91 836 529 
Q 422 1150 422 2328 
Q 422 3509 836 4129 
Q 1250 4750 2034 4750 
z
" transform="scale(0.015625)"/>
       </defs>
       <use xlink:href="#DejaVuSans-30"/>
      </g>
     </g>
    </g>
    <g id="xtick_2">
     <g id="line2d_2">
      <g>
       <use xlink:href="#mba2a9b3988" x="91.54625" y="260.305891" style="fill: #1f2937; stroke: #1f2937; stroke-width: 0.8"/>
      </g>
     </g>
     <g id="text_2">
      <!-- 50 -->
      <g style="fill: #1f2937" transform="translate(85.501875 274.024406) scale(0.095 -0.095)">
       <defs>
        <path id="DejaVuSans-35" d="M 691 4666 
L 3169 4666 
L 3169 4134 
L 1269 4134 
L 1269 2991 
Q 1406 3038 1543 3061 
Q 1681 3084 1819 3084 
Q 2600 3084 3056 2656 
Q 3513 2228 3513 1497 
Q 3513 744 3044 326 
Q 2575 -91 1722 -91 
Q 1428 -91 1123 -41 
Q 819 9 494 109 
L 494 744 
Q 775 591 1075 516 
Q 1375 441 1709 441 
Q 2250 441 2565 725 
Q 2881 1009 2881 1497 
Q 2881 1984 2565 2268 
Q 2250 2553 1709 2553 
Q 1456 2553 1204 2497 
Q 953 2441 691 2322 
L 691 4666 
z
" transform="scale(0.015625)"/>
       </defs>
       <use xlink:href="#DejaVuSans-35"/>
       <use xlink:href="#DejaVuSans-30" transform="translate(63.623047 0)"/>
      </g>
     </g>
    </g>
    <g id="xtick_3">
     <g id="line2d_3">
      <g>
       <use xlink:href="#mba2a9b3988" x="137.58125" y="260.305891" style="fill: #1f2937; stroke: #1f2937; stroke-width: 0.8"/>
      </g>
     </g>
     <g id="text_3">
      <!-- 100 -->
      <g style="fill: #1f2937" transform="translate(128.514688 274.024406) scale(0.095 -0.095)">
       <defs>
        <path id="DejaVuSans-31" d="M 794 531 
L 1825 531 
L 1825 4091 
L 703 3866 
L 703 4441 
L 1819 4666 
L 2450 4666 
L 2450 531 
L 3481 531 
L 3481 0 
L 794 0 
L 794 531 
z
" transform="scale(0.015625)"/>
       </defs>
       <use xlink:href="#DejaVuSans-31"/>
       <use xlink:href="#DejaVuSans-30" transform="translate(63.623047 0)"/>
       <use xlink:href="#DejaVuSans-30" transform="translate(127.246094 0)"/>
      </g>
     </g>
    </g>
    <g id="xtick_4">
     <g id="line2d_4">
      <g>
       <use xlink:href="#mba2a9b3988" x="183.61625" y="260.305891" style="fill: #1f2937; stroke: #1f2937; stroke-width: 0.8"/>
      </g>
     </g>
     <g id="text_4">
      <!-- 150 -->
      <g style="fill: #1f2937" transform="translate(174.549687 274.024406) scale(0.095 -0.095)">
       <use xlink:href="#DejaVuSans-31"/>
       <use xlink:href="#DejaVuSans-35" transform="translate(63.623047 0)"/>
       <use xlink:href="#DejaVuSans-30" transform="translate(127.246094 0)"/>
      </g>
     </g>
    </g>
    <g id="xtick_5">
     <g id="line2d_5">
      <g>
       <use xlink:href="#mba2a9b3988" x="229.65125" y="260.305891" style="fill: #1f2937; stroke: #1f2937; stroke-width: 0.8"/>
      </g>
     </g>
     <g id="text_5">
      <!-- 200 -->
      <g style="fill: #1f2937" transform="translate(220.584688 274.024406) scale(0.095 -0.095)">
       <defs>
        <path id="DejaVuSans-32" d="M 1228 531 
L 3431 531 
L 3431 0 
L 469 0 
L 469 531 
Q 828 903 1448 1529 
Q 2069 2156 2228 2338 
Q 2531 2678 2651 2914 
Q 2772 3150 2772 3378 
Q 2772 3750 2511 3984 
Q 2250 4219 1831 4219 
Q 1534 4219 1204 4116 
Q 875 4013 500 3803 
L 500 4441 
Q 881 4594 1212 4672 
Q 1544 4750 1819 4750 
Q 2544 4750 2975 4387 
Q 3406 4025 3406 3419 
Q 3406 3131 3298 2873 
Q 3191 2616 2906 2266 
Q 2828 2175 2409 1742 
Q 1991 1309 1228 531 
z
" transform="scale(0.015625)"/>
       </defs>
       <use xlink:href="#DejaVuSans-32"/>
       <use xlink:href="#DejaVuSans-30" transform="translate(63.623047 0)"/>
       <use xlink:href="#DejaVuSans-30" transform="translate(127.246094 0)"/>
      </g>
     </g>
    </g>
    <g id="xtick_6">
     <g id="line2d_6">
      <g>
       <use xlink:href="#mba2a9b3988" x="275.68625" y="260.305891" style="fill: #1f2937; stroke: #1f2937; stroke-width: 0.8"/>
      </g>
     </g>
     <g id="text_6">
      <!-- 250 -->
      <g style="fill: #1f2937" transform="translate(266.619687 274.024406) scale(0.095 -0.095)">
       <use xlink:href="#DejaVuSans-32"/>
       <use xlink:href="#DejaVuSans-35" transform="translate(63.623047 0)"/>
       <use xlink:href="#DejaVuSans-30" transform="translate(127.246094 0)"/>
      </g>
     </g>
    </g>
    <g id="xtick_7">
     <g id="line2d_7">
      <g>
       <use xlink:href="#mba2a9b3988" x="321.72125" y="260.305891" style="fill: #1f2937; stroke: #1f2937; stroke-width: 0.8"/>
      </g>
     </g>
     <g id="text_7">
      <!-- 300 -->
      <g style="fill: #1f2937" transform="translate(312.654688 274.024406) scale(0.095 -0.095)">
       <defs>
        <path id="DejaVuSans-33" d="M 2597 2516 
Q 3050 2419 3304 2112 
Q 3559 1806 3559 1356 
Q 3559 666 3084 287 
Q 2609 -91 1734 -91 
Q 1441 -91 1130 -33 
Q 819 25 488 141 
L 488 750 
Q 750 597 1062 519 
Q 1375 441 1716 441 
Q 2309 441 2620 675 
Q 2931 909 2931 1356 
Q 2931 1769 2642 2001 
Q 2353 2234 1838 2234 
L 1294 2234 
L 1294 2753 
L 1863 2753 
Q 2328 2753 2575 2939 
Q 2822 3125 2822 3475 
Q 2822 3834 2567 4026 
Q 2313 4219 1838 4219 
Q 1578 4219 1281 4162 
Q 984 4106 628 3988 
L 628 4550 
Q 988 4650 1302 4700 
Q 1616 4750 1894 4750 
Q 2613 4750 3031 4423 
Q 3450 4097 3450 3541 
Q 3450 3153 3228 2886 
Q 3006 2619 2597 2516 
z
" transform="scale(0.015625)"/>
       </defs>
       <use xlink:href="#DejaVuSans-33"/>
       <use xlink:href="#DejaVuSans-30" transform="translate(63.623047 0)"/>
       <use xlink:href="#DejaVuSans-30" transform="translate(127.246094 0)"/>
      </g>
     </g>
    </g>
    <g id="xtick_8">
     <g id="line2d_8">
      <g>
       <use xlink:href="#mba2a9b3988" x="367.75625" y="260.305891" style="fill: #1f2937; stroke: #1f2937; stroke-width: 0.8"/>
      </g>
     </g>
     <g id="text_8">
      <!-- 350 -->
      <g style="fill: #1f2937" transform="translate(358.689688 274.024406) scale(0.095 -0.095)">
       <use xlink:href="#DejaVuSans-33"/>
       <use xlink:href="#DejaVuSans-35" transform="translate(63.623047 0)"/>
       <use xlink:href="#DejaVuSans-30" transform="translate(127.246094 0)"/>
      </g>
     </g>
    </g>
    <g id="xtick_9">
     <g id="line2d_9">
      <g>
       <use xlink:href="#mba2a9b3988" x="413.79125" y="260.305891" style="fill: #1f2937; stroke: #1f2937; stroke-width: 0.8"/>
      </g>
     </g>
     <g id="text_9">
      <!-- 400 -->
      <g style="fill: #1f2937" transform="translate(404.724688 274.024406) scale(0.095 -0.095)">
       <defs>
        <path id="DejaVuSans-34" d="M 2419 4116 
L 825 1625 
L 2419 1625 
L 2419 4116 
z
M 2253 4666 
L 3047 4666 
L 3047 1625 
L 3713 1625 
L 3713 1100 
L 3047 1100 
L 3047 0 
L 2419 0 
L 2419 1100 
L 313 1100 
L 313 1709 
L 2253 4666 
z
" transform="scale(0.015625)"/>
       </defs>
       <use xlink:href="#DejaVuSans-34"/>
       <use xlink:href="#DejaVuSans-30" transform="translate(63.623047 0)"/>
       <use xlink:href="#DejaVuSans-30" transform="translate(127.246094 0)"/>
      </g>
     </g>
    </g>
    <g id="text_10">
     <!-- absolute error (kcal) -->
     <g style="fill: #1f2937" transform="translate(178.874687 287.598547) scale(0.1 -0.1)">
      <defs>
       <path id="DejaVuSans-61" d="M 2194 1759 
Q 1497 1759 1228 1600 
Q 959 1441 959 1056 
Q 959 750 1161 570 
Q 1363 391 1709 391 
Q 2188 391 2477 730 
Q 2766 1069 2766 1631 
L 2766 1759 
L 2194 1759 
z
M 3341 1997 
L 3341 0 
L 2766 0 
L 2766 531 
Q 2569 213 2275 61 
Q 1981 -91 1556 -91 
Q 1019 -91 701 211 
Q 384 513 384 1019 
Q 384 1609 779 1909 
Q 1175 2209 1959 2209 
L 2766 2209 
L 2766 2266 
Q 2766 2663 2505 2880 
Q 2244 3097 1772 3097 
Q 1472 3097 1187 3025 
Q 903 2953 641 2809 
L 641 3341 
Q 956 3463 1253 3523 
Q 1550 3584 1831 3584 
Q 2591 3584 2966 3190 
Q 3341 2797 3341 1997 
z
" transform="scale(0.015625)"/>
       <path id="DejaVuSans-62" d="M 3116 1747 
Q 3116 2381 2855 2742 
Q 2594 3103 2138 3103 
Q 1681 3103 1420 2742 
Q 1159 2381 1159 1747 
Q 1159 1113 1420 752 
Q 1681 391 2138 391 
Q 2594 391 2855 752 
Q 3116 1113 3116 1747 
z
M 1159 2969 
Q 1341 3281 1617 3432 
Q 1894 3584 2278 3584 
Q 2916 3584 3314 3078 
Q 3713 2572 3713 1747 
Q 3713 922 3314 415 
Q 2916 -91 2278 -91 
Q 1894 -91 1617 61 
Q 1341 213 1159 525 
L 1159 0 
L 581 0 
L 581 4863 
L 1159 4863 
L 1159 2969 
z
" transform="scale(0.015625)"/>
       <path id="DejaVuSans-73" d="M 2834 3397 
L 2834 2853 
Q 2591 2978 2328 3040 
Q 2066 3103 1784 3103 
Q 1356 3103 1142 2972 
Q 928 2841 928 2578 
Q 928 2378 1081 2264 
Q 1234 2150 1697 2047 
L 1894 2003 
Q 2506 1872 2764 1633 
Q 3022 1394 3022 966 
Q 3022 478 2636 193 
Q 2250 -91 1575 -91 
Q 1294 -91 989 -36 
Q 684 19 347 128 
L 347 722 
Q 666 556 975 473 
Q 1284 391 1588 391 
Q 1994 391 2212 530 
Q 2431 669 2431 922 
Q 2431 1156 2273 1281 
Q 2116 1406 1581 1522 
L 1381 1569 
Q 847 1681 609 1914 
Q 372 2147 372 2553 
Q 372 3047 722 3315 
Q 1072 3584 1716 3584 
Q 2034 3584 2315 3537 
Q 2597 3491 2834 3397 
z
" transform="scale(0.015625)"/>
       <path id="DejaVuSans-6f" d="M 1959 3097 
Q 1497 3097 1228 2736 
Q 959 2375 959 1747 
Q 959 1119 1226 758 
Q 1494 397 1959 397 
Q 2419 397 2687 759 
Q 2956 1122 2956 1747 
Q 2956 2369 2687 2733 
Q 2419 3097 1959 3097 
z
M 1959 3584 
Q 2709 3584 3137 3096 
Q 3566 2609 3566 1747 
Q 3566 888 3137 398 
Q 2709 -91 1959 -91 
Q 1206 -91 779 398 
Q 353 888 353 1747 
Q 353 2609 779 3096 
Q 1206 3584 1959 3584 
z
" transform="scale(0.015625)"/>
       <path id="DejaVuSans-6c" d="M 603 4863 
L 1178 4863 
L 1178 0 
L 603 0 
L 603 4863 
z
" transform="scale(0.015625)"/>
       <path id="DejaVuSans-75" d="M 544 1381 
L 544 3500 
L 1119 3500 
L 1119 1403 
Q 1119 906 1312 657 
Q 1506 409 1894 409 
Q 2359 409 2629 706 
Q 2900 1003 2900 1516 
L 2900 3500 
L 3475 3500 
L 3475 0 
L 2900 0 
L 2900 538 
Q 2691 219 2414 64 
Q 2138 -91 1772 -91 
Q 1169 -91 856 284 
Q 544 659 544 1381 
z
M 1991 3584 
L 1991 3584 
z
" transform="scale(0.015625)"/>
       <path id="DejaVuSans-74" d="M 1172 4494 
L 1172 3500 
L 2356 3500 
L 2356 3053 
L 1172 3053 
L 1172 1153 
Q 1172 725 1289 603 
Q 1406 481 1766 481 
L 2356 481 
L 2356 0 
L 1766 0 
Q 1100 0 847 248 
Q 594 497 594 1153 
L 594 3053 
L 172 3053 
L 172 3500 
L 594 3500 
L 594 4494 
L 1172 4494 
z
" transform="scale(0.015625)"/>
       <path id="DejaVuSans-65" d="M 3597 1894 
L 3597 1613 
L 953 1613 
Q 991 1019 1311 708 
Q 1631 397 2203 397 
Q 2534 397 2845 478 
Q 3156 559 3463 722 
L 3463 178 
Q 3153 47 2828 -22 
Q 2503 -91 2169 -91 
Q 1331 -91 842 396 
Q 353 884 353 1716 
Q 353 2575 817 3079 
Q 1281 3584 2069 3584 
Q 2775 3584 3186 3129 
Q 3597 2675 3597 1894 
z
M 3022 2063 
Q 3016 2534 2758 2815 
Q 2500 3097 2075 3097 
Q 1594 3097 1305 2825 
Q 1016 2553 972 2059 
L 3022 2063 
z
" transform="scale(0.015625)"/>
       <path id="DejaVuSans-20" transform="scale(0.015625)"/>
       <path id="DejaVuSans-72" d="M 2631 2963 
Q 2534 3019 2420 3045 
Q 2306 3072 2169 3072 
Q 1681 3072 1420 2755 
Q 1159 2438 1159 1844 
L 1159 0 
L 581 0 
L 581 3500 
L 1159 3500 
L 1159 2956 
Q 1341 3275 1631 3429 
Q 1922 3584 2338 3584 
Q 2397 3584 2469 3576 
Q 2541 3569 2628 3553 
L 2631 2963 
z
" transform="scale(0.015625)"/>
       <path id="DejaVuSans-28" d="M 1984 4856 
Q 1566 4138 1362 3434 
Q 1159 2731 1159 2009 
Q 1159 1288 1364 580 
Q 1569 -128 1984 -844 
L 1484 -844 
Q 1016 -109 783 600 
Q 550 1309 550 2009 
Q 550 2706 781 3412 
Q 1013 4119 1484 4856 
L 1984 4856 
z
" transform="scale(0.015625)"/>
       <path id="DejaVuSans-6b" d="M 581 4863 
L 1159 4863 
L 1159 1991 
L 2875 3500 
L 3609 3500 
L 1753 1863 
L 3688 0 
L 2938 0 
L 1159 1709 
L 1159 0 
L 581 0 
L 581 4863 
z
" transform="scale(0.015625)"/>
       <path id="DejaVuSans-63" d="M 3122 3366 
L 3122 2828 
Q 2878 2963 2633 3030 
Q 2388 3097 2138 3097 
Q 1578 3097 1268 2742 
Q 959 2388 959 1747 
Q 959 1106 1268 751 
Q 1578 397 2138 397 
Q 2388 397 2633 464 
Q 2878 531 3122 666 
L 3122 134 
Q 2881 22 2623 -34 
Q 2366 -91 2075 -91 
Q 1284 -91 818 406 
Q 353 903 353 1747 
Q 353 2603 823 3093 
Q 1294 3584 2113 3584 
Q 2378 3584 2631 3529 
Q 2884 3475 3122 3366 
z
" transform="scale(0.015625)"/>
       <path id="DejaVuSans-29" d="M 513 4856 
L 1013 4856 
Q 1481 4119 1714 3412 
Q 1947 2706 1947 2009 
Q 1947 1309 1714 600 
Q 1481 -109 1013 -844 
L 513 -844 
Q 928 -128 1133 580 
Q 1338 1288 1338 2009 
Q 1338 2731 1133 3434 
Q 928 4138 513 4856 
z
" transform="scale(0.015625)"/>
      </defs>
      <use xlink:href="#DejaVuSans-61"/>
      <use xlink:href="#DejaVuSans-62" transform="translate(61.279297 0)"/>
      <use xlink:href="#DejaVuSans-73" transform="translate(124.755859 0)"/>
      <use xlink:href="#DejaVuSans-6f" transform="translate(176.855469 0)"/>
      <use xlink:href="#DejaVuSans-6c" transform="translate(238.037109 0)"/>
      <use xlink:href="#DejaVuSans-75" transform="translate(265.820312 0)"/>
      <use xlink:href="#DejaVuSans-74" transform="translate(329.199219 0)"/>
      <use xlink:href="#DejaVuSans-65" transform="translate(368.408203 0)"/>
      <use xlink:href="#DejaVuSans-20" transform="translate(429.931641 0)"/>
      <use xlink:href="#DejaVuSans-65" transform="translate(461.71875 0)"/>
      <use xlink:href="#DejaVuSans-72" transform="translate(523.242188 0)"/>
      <use xlink:href="#DejaVuSans-72" transform="translate(562.605469 0)"/>
      <use xlink:href="#DejaVuSans-6f" transform="translate(601.46875 0)"/>
      <use xlink:href="#DejaVuSans-72" transform="translate(662.650391 0)"/>
      <use xlink:href="#DejaVuSans-20" transform="translate(703.763672 0)"/>
      <use xlink:href="#DejaVuSans-28" transform="translate(735.550781 0)"/>
      <use xlink:href="#DejaVuSans-6b" transform="translate(774.564453 0)"/>
      <use xlink:href="#DejaVuSans-63" transform="translate(832.474609 0)"/>
      <use xlink:href="#DejaVuSans-61" transform="translate(887.455078 0)"/>
      <use xlink:href="#DejaVuSans-6c" transform="translate(948.734375 0)"/>
      <use xlink:href="#DejaVuSans-29" transform="translate(976.517578 0)"/>
     </g>
    </g>
   </g>
   <g id="matplotlib.axis_2">
    <g id="ytick_1">
     <g id="line2d_10">
      <path d="M 45.51125 260.305891 
L 413.79125 260.305891 
" clip-path="url(#p7b13c22826)" style="fill: none; stroke: #e5e7eb; stroke-linecap: square"/>
     </g>
     <g id="line2d_11">
      <defs>
       <path id="m2b8a9774c6" d="M 0 0 
L -3 0 
" style="stroke: #1f2937; stroke-width: 0.8"/>
      </defs>
      <g>
       <use xlink:href="#m2b8a9774c6" x="45.51125" y="260.305891" style="fill: #1f2937; stroke: #1f2937; stroke-width: 0.8"/>
      </g>
     </g>
     <g id="text_11">
      <!-- 0 -->
      <g style="fill: #1f2937" transform="translate(32.966875 263.915148) scale(0.095 -0.095)">
       <use xlink:href="#DejaVuSans-30"/>
      </g>
     </g>
    </g>
    <g id="ytick_2">
     <g id="line2d_12">
      <path d="M 45.51125 213.736291 
L 413.79125 213.736291 
" clip-path="url(#p7b13c22826)" style="fill: none; stroke: #e5e7eb; stroke-linecap: square"/>
     </g>
     <g id="line2d_13">
      <g>
       <use xlink:href="#m2b8a9774c6" x="45.51125" y="213.736291" style="fill: #1f2937; stroke: #1f2937; stroke-width: 0.8"/>
      </g>
     </g>
     <g id="text_12">
      <!-- 20 -->
      <g style="fill: #1f2937" transform="translate(26.9225 217.345548) scale(0.095 -0.095)">
       <use xlink:href="#DejaVuSans-32"/>
       <use xlink:href="#DejaVuSans-30" transform="translate(63.623047 0)"/>
      </g>
     </g>
    </g>
    <g id="ytick_3">
     <g id="line2d_14">
      <path d="M 45.51125 167.166691 
L 413.79125 167.166691 
" clip-path="url(#p7b13c22826)" style="fill: none; stroke: #e5e7eb; stroke-linecap: square"/>
     </g>
     <g id="line2d_15">
      <g>
       <use xlink:href="#m2b8a9774c6" x="45.51125" y="167.166691" style="fill: #1f2937; stroke: #1f2937; stroke-width: 0.8"/>
      </g>
     </g>
     <g id="text_13">
      <!-- 40 -->
      <g style="fill: #1f2937" transform="translate(26.9225 170.775948) scale(0.095 -0.095)">
       <use xlink:href="#DejaVuSans-34"/>
       <use xlink:href="#DejaVuSans-30" transform="translate(63.623047 0)"/>
      </g>
     </g>
    </g>
    <g id="ytick_4">
     <g id="line2d_16">
      <path d="M 45.51125 120.597091 
L 413.79125 120.597091 
" clip-path="url(#p7b13c22826)" style="fill: none; stroke: #e5e7eb; stroke-linecap: square"/>
     </g>
     <g id="line2d_17">
      <g>
       <use xlink:href="#m2b8a9774c6" x="45.51125" y="120.597091" style="fill: #1f2937; stroke: #1f2937; stroke-width: 0.8"/>
      </g>
     </g>
     <g id="text_14">
      <!-- 60 -->
      <g style="fill: #1f2937" transform="translate(26.9225 124.206348) scale(0.095 -0.095)">
       <defs>
        <path id="DejaVuSans-36" d="M 2113 2584 
Q 1688 2584 1439 2293 
Q 1191 2003 1191 1497 
Q 1191 994 1439 701 
Q 1688 409 2113 409 
Q 2538 409 2786 701 
Q 3034 994 3034 1497 
Q 3034 2003 2786 2293 
Q 2538 2584 2113 2584 
z
M 3366 4563 
L 3366 3988 
Q 3128 4100 2886 4159 
Q 2644 4219 2406 4219 
Q 1781 4219 1451 3797 
Q 1122 3375 1075 2522 
Q 1259 2794 1537 2939 
Q 1816 3084 2150 3084 
Q 2853 3084 3261 2657 
Q 3669 2231 3669 1497 
Q 3669 778 3244 343 
Q 2819 -91 2113 -91 
Q 1303 -91 875 529 
Q 447 1150 447 2328 
Q 447 3434 972 4092 
Q 1497 4750 2381 4750 
Q 2619 4750 2861 4703 
Q 3103 4656 3366 4563 
z
" transform="scale(0.015625)"/>
       </defs>
       <use xlink:href="#DejaVuSans-36"/>
       <use xlink:href="#DejaVuSans-30" transform="translate(63.623047 0)"/>
      </g>
     </g>
    </g>
    <g id="ytick_5">
     <g id="line2d_18">
      <path d="M 45.51125 74.027491 
L 413.79125 74.027491 
" clip-path="url(#p7b13c22826)" style="fill: none; stroke: #e5e7eb; stroke-linecap: square"/>
     </g>
     <g id="line2d_19">
      <g>
       <use xlink:href="#m2b8a9774c6" x="45.51125" y="74.027491" style="fill: #1f2937; stroke: #1f2937; stroke-width: 0.8"/>
      </g>
     </g>
     <g id="text_15">
      <!-- 80 -->
      <g style="fill: #1f2937" transform="translate(26.9225 77.636748) scale(0.095 -0.095)">
       <defs>
        <path id="DejaVuSans-38" d="M 2034 2216 
Q 1584 2216 1326 1975 
Q 1069 1734 1069 1313 
Q 1069 891 1326 650 
Q 1584 409 2034 409 
Q 2484 409 2743 651 
Q 3003 894 3003 1313 
Q 3003 1734 2745 1975 
Q 2488 2216 2034 2216 
z
M 1403 2484 
Q 997 2584 770 2862 
Q 544 3141 544 3541 
Q 544 4100 942 4425 
Q 1341 4750 2034 4750 
Q 2731 4750 3128 4425 
Q 3525 4100 3525 3541 
Q 3525 3141 3298 2862 
Q 3072 2584 2669 2484 
Q 3125 2378 3379 2068 
Q 3634 1759 3634 1313 
Q 3634 634 3220 271 
Q 2806 -91 2034 -91 
Q 1263 -91 848 271 
Q 434 634 434 1313 
Q 434 1759 690 2068 
Q 947 2378 1403 2484 
z
M 1172 3481 
Q 1172 3119 1398 2916 
Q 1625 2713 2034 2713 
Q 2441 2713 2670 2916 
Q 2900 3119 2900 3481 
Q 2900 3844 2670 4047 
Q 2441 4250 2034 4250 
Q 1625 4250 1398 4047 
Q 1172 3844 1172 3481 
z
" transform="scale(0.015625)"/>
       </defs>
       <use xlink:href="#DejaVuSans-38"/>
       <use xlink:href="#DejaVuSans-30" transform="translate(63.623047 0)"/>
      </g>
     </g>
    </g>
    <g id="ytick_6">
     <g id="line2d_20">
      <path d="M 45.51125 27.457891 
L 413.79125 27.457891 
" clip-path="url(#p7b13c22826)" style="fill: none; stroke: #e5e7eb; stroke-linecap: square"/>
     </g>
     <g id="line2d_21">
      <g>
       <use xlink:href="#m2b8a9774c6" x="45.51125" y="27.457891" style="fill: #1f2937; stroke: #1f2937; stroke-width: 0.8"/>
      </g>
     </g>
     <g id="text_16">
      <!-- 100 -->
      <g style="fill: #1f2937" transform="translate(20.878125 31.067148) scale(0.095 -0.095)">
       <use xlink:href="#DejaVuSans-31"/>
       <use xlink:href="#DejaVuSans-30" transform="translate(63.623047 0)"/>
       <use xlink:href="#DejaVuSans-30" transform="translate(127.246094 0)"/>
      </g>
     </g>
    </g>
    <g id="text_17">
     <!-- % of dishes ≤ error -->
     <g style="fill: #1f2937" transform="translate(14.798438 192.118609) rotate(-90) scale(0.1 -0.1)">
      <defs>
       <path id="DejaVuSans-25" d="M 4653 2053 
Q 4381 2053 4226 1822 
Q 4072 1591 4072 1178 
Q 4072 772 4226 539 
Q 4381 306 4653 306 
Q 4919 306 5073 539 
Q 5228 772 5228 1178 
Q 5228 1588 5073 1820 
Q 4919 2053 4653 2053 
z
M 4653 2450 
Q 5147 2450 5437 2106 
Q 5728 1763 5728 1178 
Q 5728 594 5436 251 
Q 5144 -91 4653 -91 
Q 4153 -91 3862 251 
Q 3572 594 3572 1178 
Q 3572 1766 3864 2108 
Q 4156 2450 4653 2450 
z
M 1428 4353 
Q 1159 4353 1004 4120 
Q 850 3888 850 3481 
Q 850 3069 1003 2837 
Q 1156 2606 1428 2606 
Q 1700 2606 1854 2837 
Q 2009 3069 2009 3481 
Q 2009 3884 1853 4118 
Q 1697 4353 1428 4353 
z
M 4250 4750 
L 4750 4750 
L 1831 -91 
L 1331 -91 
L 4250 4750 
z
M 1428 4750 
Q 1922 4750 2215 4408 
Q 2509 4066 2509 3481 
Q 2509 2891 2217 2550 
Q 1925 2209 1428 2209 
Q 931 2209 642 2551 
Q 353 2894 353 3481 
Q 353 4063 643 4406 
Q 934 4750 1428 4750 
z
" transform="scale(0.015625)"/>
       <path id="DejaVuSans-66" d="M 2375 4863 
L 2375 4384 
L 1825 4384 
Q 1516 4384 1395 4259 
Q 1275 4134 1275 3809 
L 1275 3500 
L 2222 3500 
L 2222 3053 
L 1275 3053 
L 1275 0 
L 697 0 
L 697 3053 
L 147 3053 
L 147 3500 
L 697 3500 
L 697 3744 
Q 697 4328 969 4595 
Q 1241 4863 1831 4863 
L 2375 4863 
z
" transform="scale(0.015625)"/>
       <path id="DejaVuSans-64" d="M 2906 2969 
L 2906 4863 
L 3481 4863 
L 3481 0 
L 2906 0 
L 2906 525 
Q 2725 213 2448 61 
Q 2172 -91 1784 -91 
Q 1150 -91 751 415 
Q 353 922 353 1747 
Q 353 2572 751 3078 
Q 1150 3584 1784 3584 
Q 2172 3584 2448 3432 
Q 2725 3281 2906 2969 
z
M 947 1747 
Q 947 1113 1208 752 
Q 1469 391 1925 391 
Q 2381 391 2643 752 
Q 2906 1113 2906 1747 
Q 2906 2381 2643 2742 
Q 2381 3103 1925 3103 
Q 1469 3103 1208 2742 
Q 947 2381 947 1747 
z
" transform="scale(0.015625)"/>
       <path id="DejaVuSans-69" d="M 603 3500 
L 1178 3500 
L 1178 0 
L 603 0 
L 603 3500 
z
M 603 4863 
L 1178 4863 
L 1178 4134 
L 603 4134 
L 603 4863 
z
" transform="scale(0.015625)"/>
       <path id="DejaVuSans-68" d="M 3513 2113 
L 3513 0 
L 2938 0 
L 2938 2094 
Q 2938 2591 2744 2837 
Q 2550 3084 2163 3084 
Q 1697 3084 1428 2787 
Q 1159 2491 1159 1978 
L 1159 0 
L 581 0 
L 581 4863 
L 1159 4863 
L 1159 2956 
Q 1366 3272 1645 3428 
Q 1925 3584 2291 3584 
Q 2894 3584 3203 3211 
Q 3513 2838 3513 2113 
z
" transform="scale(0.015625)"/>
       <path id="DejaVuSans-2264" d="M 4684 3175 
L 1684 2309 
L 4684 1453 
L 4684 897 
L 678 2047 
L 678 2578 
L 4684 3725 
L 4684 3175 
z
M 678 531 
L 4684 531 
L 4684 0 
L 678 0 
L 678 531 
z
" transform="scale(0.015625)"/>
      </defs>
      <use xlink:href="#DejaVuSans-25"/>
      <use xlink:href="#DejaVuSans-20" transform="translate(95.019531 0)"/>
      <use xlink:href="#DejaVuSans-6f" transform="translate(126.806641 0)"/>
      <use xlink:href="#DejaVuSans-66" transform="translate(187.988281 0)"/>
      <use xlink:href="#DejaVuSans-20" transform="translate(223.193359 0)"/>
      <use xlink:href="#DejaVuSans-64" transform="translate(254.980469 0)"/>
      <use xlink:href="#DejaVuSans-69" transform="translate(318.457031 0)"/>
      <use xlink:href="#DejaVuSans-73" transform="translate(346.240234 0)"/>
      <use xlink:href="#DejaVuSans-68" transform="translate(398.339844 0)"/>
      <use xlink:href="#DejaVuSans-65" transform="translate(461.71875 0)"/>
      <use xlink:href="#DejaVuSans-73" transform="translate(523.242188 0)"/>
      <use xlink:href="#DejaVuSans-20" transform="translate(575.341797 0)"/>
      <use xlink:href="#DejaVuSans-2264" transform="translate(607.128906 0)"/>
      <use xlink:href="#DejaVuSans-20" transform="translate(690.917969 0)"/>
      <use xlink:href="#DejaVuSans-65" transform="translate(722.705078 0)"/>
      <use xlink:href="#DejaVuSans-72" transform="translate(784.228516 0)"/>
      <use xlink:href="#DejaVuSans-72" transform="translate(823.591797 0)"/>
      <use xlink:href="#DejaVuSans-6f" transform="translate(862.455078 0)"/>
      <use xlink:href="#DejaVuSans-72" transform="translate(923.636719 0)"/>
     </g>
    </g>
   </g>
   <g id="line2d_22">
    <path d="M 137.58125 260.305891 
L 137.58125 27.457891 
" clip-path="url(#p7b13c22826)" style="fill: none; stroke-dasharray: 4.44,1.92; stroke-dashoffset: 0; stroke: #6b7280; stroke-width: 1.2"/>
   </g>
   <g id="patch_3">
    <path d="M 45.51125 260.305891 
L 45.51125 27.457891 
" style="fill: none; stroke: #9ca3af; stroke-linejoin: miter; stroke-linecap: square"/>
   </g>
   <g id="patch_4">
    <path d="M 45.51125 260.305891 
L 413.79125 260.305891 
" style="fill: none; stroke: #9ca3af; stroke-linejoin: miter; stroke-linecap: square"/>
   </g>
   <g id="line2d_23">
    <path d="M 45.589418 259.846624 
L 45.865269 258.468826 
L 45.929791 257.550293 
L 46.240971 257.091027 
L 46.405559 255.253962 
L 46.551702 254.335429 
L 47.291817 253.876163 
L 48.697721 242.853772 
L 49.028345 241.475973 
L 49.12171 240.557441 
L 49.329536 239.638908 
L 49.764846 239.179642 
L 49.896999 238.26111 
L 49.944929 236.883311 
L 50.186638 236.424044 
L 50.396224 235.505512 
L 51.275781 231.372115 
L 51.511647 228.157252 
L 51.981747 227.238719 
L 52.084289 226.779453 
L 52.404207 226.320186 
L 52.533372 225.401654 
L 52.844341 223.564589 
L 52.999166 222.646056 
L 53.527554 222.18679 
L 53.562911 221.727524 
L 53.98894 221.268257 
L 54.412802 219.890459 
L 54.536691 218.971926 
L 54.729419 218.053394 
L 54.873847 216.675595 
L 55.135555 216.216328 
L 56.247135 212.082932 
L 56.570556 211.1644 
L 56.589181 210.705133 
L 56.805135 209.786601 
L 57.11472 207.031003 
L 57.282333 206.571737 
L 57.405119 205.653204 
L 57.482201 204.734672 
L 57.991996 204.275405 
L 58.051059 203.816139 
L 58.340556 203.356873 
L 58.39176 202.897607 
L 58.681309 202.43834 
L 58.929199 201.519808 
L 59.604425 200.601275 
L 59.684883 199.682743 
L 60.670052 197.845678 
L 61.014851 197.386411 
L 62.010305 194.171547 
L 62.037962 193.712281 
L 62.553384 192.334482 
L 63.646551 191.41595 
L 64.537697 190.497417 
L 64.556227 190.038151 
L 64.947417 189.578885 
L 64.953816 189.119618 
L 65.302591 188.660352 
L 65.310402 188.201086 
L 65.53264 187.74182 
L 65.606213 187.282553 
L 65.934786 186.823287 
L 65.971256 185.904755 
L 66.128269 184.986222 
L 66.756351 184.526956 
L 67.06057 183.608423 
L 67.36723 183.149157 
L 67.825005 182.689891 
L 67.926374 182.230624 
L 68.341817 181.312092 
L 68.346123 180.852826 
L 69.41902 179.01576 
L 69.643794 177.637962 
L 69.930157 177.178695 
L 70.020511 176.719429 
L 70.500551 176.260163 
L 70.900958 173.963831 
L 71.328487 173.045299 
L 71.931699 172.586033 
L 71.968422 171.6675 
L 72.903227 171.208234 
L 73.35984 170.748968 
L 73.488176 170.289701 
L 73.878099 169.830435 
L 73.960804 168.911902 
L 74.762399 167.534104 
L 74.778709 167.074837 
L 75.038907 166.615571 
L 75.409787 165.237772 
L 75.693583 164.778506 
L 75.78503 163.859973 
L 76.439555 163.400707 
L 76.66418 162.482175 
L 77.069276 162.022908 
L 77.506053 161.104376 
L 77.638308 160.64511 
L 78.090538 160.185843 
L 78.246632 159.267311 
L 78.603149 158.808044 
L 78.713769 158.348778 
L 79.264656 157.430246 
L 79.334163 156.970979 
L 79.818255 156.052447 
L 79.874998 155.593181 
L 80.095058 155.133914 
L 80.132779 154.215382 
L 80.280045 153.756115 
L 80.30522 153.296849 
L 80.657388 152.837583 
L 80.724443 151.91905 
L 81.029273 151.459784 
L 81.355271 150.541252 
L 81.735862 150.081985 
L 81.958613 149.622719 
L 81.960523 149.163453 
L 82.859982 147.785654 
L 82.889407 147.326388 
L 83.508641 146.407855 
L 83.663234 145.948589 
L 84.518888 145.489323 
L 84.794132 145.030056 
L 85.463387 144.57079 
L 85.601037 144.111524 
L 85.647735 142.733725 
L 86.487401 142.274459 
L 86.814485 141.815192 
L 86.866428 141.355926 
L 87.40251 140.89666 
L 88.201175 140.437394 
L 88.532649 139.978127 
L 88.552107 139.518861 
L 89.3944 139.059595 
L 89.449542 138.141062 
L 90.284741 136.763263 
L 92.236199 135.844731 
L 92.382124 134.926198 
L 93.164373 134.466932 
L 93.292989 134.007666 
L 93.678572 133.5484 
L 95.059081 133.089133 
L 95.550514 132.629867 
L 95.596116 132.170601 
L 96.232652 131.711334 
L 96.337505 130.792802 
L 97.094263 130.333536 
L 98.011141 129.415003 
L 100.557804 128.496471 
L 101.12897 127.577938 
L 101.946159 127.118672 
L 103.851256 126.659405 
L 103.859882 126.200139 
L 104.984036 125.281607 
L 105.076593 124.82234 
L 105.421515 124.363074 
L 105.521293 123.444542 
L 106.425777 122.985275 
L 106.546807 122.526009 
L 106.968059 122.066743 
L 107.148474 120.229678 
L 107.964089 119.311145 
L 108.813702 118.851879 
L 109.270146 118.392613 
L 109.415906 117.933346 
L 109.791398 117.47408 
L 109.808102 117.014814 
L 110.307536 116.555547 
L 110.508651 116.096281 
L 111.555684 115.177749 
L 111.623624 114.718482 
L 112.771099 113.79995 
L 112.806839 112.881417 
L 114.98482 111.962885 
L 116.967859 111.503618 
L 117.699807 111.044352 
L 118.173138 110.585086 
L 118.261017 109.666553 
L 118.465633 109.207287 
L 120.228346 108.288755 
L 120.276242 107.829488 
L 121.430366 107.370222 
L 121.596282 106.910956 
L 121.635478 106.451689 
L 122.765336 105.992423 
L 123.140118 105.073891 
L 123.818122 104.614624 
L 124.035569 104.155358 
L 124.623904 103.696092 
L 124.887121 103.236826 
L 126.953442 102.777559 
L 127.20993 102.318293 
L 127.677825 101.859027 
L 128.876802 100.940494 
L 129.044517 100.481228 
L 129.75811 100.021962 
L 130.752299 99.562695 
L 131.06192 98.184897 
L 131.673701 97.72563 
L 134.226264 96.347831 
L 134.255991 95.888565 
L 134.467443 95.429299 
L 135.612638 94.510766 
L 135.775871 94.0515 
L 137.404109 93.132968 
L 137.775994 92.673701 
L 138.492594 92.214435 
L 140.531969 91.755169 
L 140.9875 91.295902 
L 141.04385 90.836636 
L 141.846343 89.918104 
L 141.994941 89.458837 
L 142.697937 88.999571 
L 142.956252 88.540305 
L 143.709104 88.081039 
L 143.721769 87.621772 
L 144.136981 87.162506 
L 145.887457 86.70324 
L 145.943694 86.243973 
L 146.306771 85.784707 
L 147.890882 85.325441 
L 148.382968 84.866175 
L 149.193877 84.406908 
L 149.97142 83.488376 
L 150.984167 82.569843 
L 152.216637 82.110577 
L 156.190781 81.651311 
L 157.099827 81.192044 
L 157.293272 80.732778 
L 157.817052 80.273512 
L 159.281222 79.354979 
L 159.376198 78.895713 
L 159.796987 78.436447 
L 160.911925 77.977181 
L 161.301799 77.517914 
L 162.105761 77.058648 
L 162.50351 76.599382 
L 162.540887 76.140115 
L 162.691482 75.680849 
L 163.470627 75.221583 
L 163.570851 74.762317 
L 165.225978 74.30305 
L 167.776574 73.384518 
L 168.000919 72.925252 
L 168.053503 72.465985 
L 168.229015 72.006719 
L 169.069243 71.088186 
L 170.144986 70.62892 
L 170.564327 70.169654 
L 171.869177 69.710388 
L 172.285751 69.251121 
L 172.431465 68.791855 
L 172.706406 68.332589 
L 172.712018 67.873323 
L 173.072074 67.414056 
L 180.502594 66.036257 
L 181.015908 65.576991 
L 183.858535 65.117725 
L 183.992616 64.658459 
L 184.726721 64.199192 
L 185.242676 63.28066 
L 186.007449 62.821394 
L 188.502973 62.362127 
L 190.195253 61.902861 
L 190.30706 61.443595 
L 192.743622 60.984328 
L 192.954128 60.065796 
L 194.354706 59.60653 
L 197.554692 59.147263 
L 197.775356 58.687997 
L 199.485864 58.228731 
L 203.017092 57.769465 
L 204.653843 57.310198 
L 204.8021 56.391666 
L 209.04331 55.9324 
L 209.227742 55.473133 
L 209.270057 55.013867 
L 211.396774 53.636068 
L 211.406594 53.176802 
L 211.594004 52.717536 
L 215.941058 51.339737 
L 220.118586 50.880471 
L 220.461333 50.421204 
L 221.760563 49.961938 
L 221.822209 49.502672 
L 227.440761 48.584139 
L 227.698977 48.124873 
L 229.569177 47.665607 
L 230.671359 47.20634 
L 232.126362 46.747074 
L 232.575304 46.287808 
L 237.192853 45.828542 
L 238.177559 45.369275 
L 245.691528 44.910009 
L 249.707558 43.991476 
L 250.467477 43.53221 
L 250.672111 43.072944 
L 260.568147 42.154411 
L 263.86004 41.695145 
L 264.232431 41.235879 
L 266.167143 40.776613 
L 269.380131 40.317346 
L 271.373279 39.85808 
L 271.618612 39.398814 
L 275.691989 38.939547 
L 276.141233 38.480281 
L 279.590206 38.021015 
L 281.452679 37.561749 
L 296.303518 37.102482 
L 296.446998 36.643216 
L 308.265285 36.18395 
L 316.474443 35.724684 
L 319.556897 35.265417 
L 325.783367 34.806151 
L 326.316784 34.346885 
L 339.436689 33.887618 
L 339.627022 33.428352 
L 346.104178 32.969086 
L 350.510293 32.50982 
L 351.037206 32.050553 
L 354.282639 31.591287 
L 354.510539 31.132021 
L 356.630954 30.672755 
L 380.00818 30.213488 
L 430.653507 29.754222 
L 430.864365 29.294956 
L 431.057812 29.294084 
L 431.057812 29.294084 
" clip-path="url(#p7b13c22826)" style="fill: none; stroke: #3b4ab0; stroke-width: 2.4; stroke-linecap: square"/>
   </g>
   <g id="line2d_24">
    <path d="M 45.588181 259.846624 
L 46.378661 258.928092 
L 46.404667 258.468826 
L 47.24635 256.172494 
L 47.36358 255.253962 
L 47.438453 254.335429 
L 47.535226 253.416897 
L 47.854686 252.95763 
L 47.888293 252.498364 
L 48.157153 252.039098 
L 48.50918 249.2835 
L 48.592693 248.824234 
L 48.798586 248.364968 
L 48.846965 247.446435 
L 49.061837 246.987169 
L 49.213276 246.068636 
L 49.476683 244.690837 
L 50.053645 241.93524 
L 50.152343 241.016707 
L 50.254718 239.638908 
L 50.429639 238.720376 
L 50.90179 238.26111 
L 50.952984 237.801843 
L 51.245226 237.342577 
L 51.276443 236.883311 
L 51.727523 235.964778 
L 51.937156 234.586979 
L 51.992602 233.668447 
L 52.736942 231.831382 
L 53.204355 231.372115 
L 53.524801 230.453583 
L 53.951877 227.238719 
L 54.124577 226.779453 
L 54.210668 225.86092 
L 54.593146 224.942388 
L 54.678359 224.483121 
L 54.894042 224.023855 
L 55.540753 220.349725 
L 55.68475 219.890459 
L 56.033643 219.431192 
L 56.17831 218.053394 
L 57.169647 213.001465 
L 57.569391 212.542198 
L 57.761452 212.082932 
L 57.840476 211.1644 
L 58.002945 210.705133 
L 58.4328 210.245867 
L 58.448932 209.786601 
L 58.982557 209.327334 
L 59.717314 208.408802 
L 59.817229 207.031003 
L 60.071013 206.112471 
L 60.645737 204.734672 
L 60.895802 203.356873 
L 61.125404 201.979074 
L 61.321395 200.601275 
L 61.734401 200.142009 
L 61.748752 199.682743 
L 61.995483 199.223476 
L 62.0868 198.304944 
L 62.571504 197.386411 
L 63.037396 196.927145 
L 63.429919 195.549346 
L 63.51517 194.630814 
L 63.707247 194.171547 
L 63.876529 193.253015 
L 64.079569 192.793749 
L 64.084735 192.334482 
L 64.347672 191.875216 
L 65.053398 188.660352 
L 65.503798 188.201086 
L 65.706746 187.282553 
L 66.162991 186.364021 
L 66.276648 185.445488 
L 66.605593 184.986222 
L 66.616341 184.526956 
L 66.764889 184.067689 
L 67.215696 183.608423 
L 67.308783 183.149157 
L 67.546306 182.689891 
L 67.725048 181.771358 
L 68.196328 181.312092 
L 68.353449 180.393559 
L 68.564181 179.934293 
L 68.592043 179.475027 
L 68.992213 179.01576 
L 69.210115 178.556494 
L 69.420692 177.178695 
L 69.96268 176.719429 
L 70.196353 175.34163 
L 70.29749 174.423098 
L 70.566833 173.963831 
L 70.647445 173.504565 
L 71.330489 172.126766 
L 71.414618 171.208234 
L 73.258773 170.289701 
L 73.284033 169.830435 
L 73.534635 169.371169 
L 74.481465 168.911902 
L 74.760225 167.074837 
L 75.132844 166.156305 
L 75.599008 165.697039 
L 75.87308 164.778506 
L 76.872804 164.31924 
L 77.013801 162.941441 
L 77.684412 162.482175 
L 77.918075 161.563642 
L 78.18857 161.104376 
L 78.753632 160.64511 
L 79.40968 159.726577 
L 79.486339 159.267311 
L 79.971134 158.348778 
L 80.62437 157.889512 
L 80.710942 157.430246 
L 81.655514 156.970979 
L 82.146733 156.052447 
L 82.196964 155.593181 
L 82.695014 154.674648 
L 82.717696 153.756115 
L 83.411196 153.296849 
L 83.668404 152.837583 
L 84.505493 152.378317 
L 84.691168 150.541252 
L 85.043005 149.622719 
L 85.09781 149.163453 
L 85.571661 148.24492 
L 86.575248 147.785654 
L 87.267529 147.326388 
L 87.670416 146.867121 
L 87.824788 146.407855 
L 88.127363 145.948589 
L 88.219193 145.030056 
L 88.916433 144.57079 
L 89.286861 144.111524 
L 89.463857 142.733725 
L 89.67827 141.815192 
L 90.233382 141.355926 
L 90.306025 140.89666 
L 90.653725 140.437394 
L 90.887763 139.059595 
L 91.551729 137.681796 
L 91.663368 136.763263 
L 92.029752 136.303997 
L 92.095416 135.385465 
L 93.271094 134.926198 
L 93.526873 134.466932 
L 94.362262 134.007666 
L 94.95996 132.170601 
L 95.630592 131.252068 
L 95.922483 130.792802 
L 96.732605 130.333536 
L 97.532149 128.955737 
L 97.75159 127.577938 
L 97.797087 126.200139 
L 98.446119 125.740873 
L 98.644614 125.281607 
L 99.150173 124.82234 
L 99.159193 124.363074 
L 99.378171 123.903808 
L 99.386755 123.444542 
L 99.745476 122.985275 
L 99.775624 122.526009 
L 100.733526 122.066743 
L 101.21818 121.14821 
L 101.759124 120.688944 
L 102.506606 120.229678 
L 102.73938 119.770411 
L 102.787792 119.311145 
L 103.418259 118.392613 
L 103.434984 117.933346 
L 103.876431 117.47408 
L 104.495673 117.014814 
L 104.771549 116.096281 
L 105.55221 115.177749 
L 105.664228 114.718482 
L 106.485765 114.259216 
L 106.89908 113.79995 
L 108.009466 113.340684 
L 108.389886 112.881417 
L 109.310101 112.422151 
L 109.427802 111.962885 
L 110.125035 111.503618 
L 110.176875 111.044352 
L 110.861071 110.585086 
L 112.48567 110.12582 
L 113.048197 109.666553 
L 113.217695 109.207287 
L 113.267934 108.748021 
L 114.56323 108.288755 
L 115.347348 107.370222 
L 115.386249 106.910956 
L 115.831272 106.451689 
L 115.863767 105.992423 
L 117.037078 105.533157 
L 117.281948 104.155358 
L 117.523495 103.696092 
L 119.797365 101.39976 
L 119.975757 100.940494 
L 120.67856 100.481228 
L 122.094732 100.021962 
L 122.921867 99.103429 
L 123.122568 98.184897 
L 123.583571 97.72563 
L 123.646938 97.266364 
L 123.835529 96.807098 
L 124.309492 96.347831 
L 125.518181 95.888565 
L 125.655996 95.429299 
L 126.609444 94.970033 
L 126.977746 94.510766 
L 127.048672 94.0515 
L 127.328179 93.592234 
L 129.322668 93.132968 
L 129.629592 92.673701 
L 131.000414 92.214435 
L 131.880218 91.755169 
L 132.283179 91.295902 
L 133.927573 90.836636 
L 134.238711 90.37737 
L 134.541617 88.999571 
L 135.077507 88.540305 
L 137.520644 87.621772 
L 138.61767 86.70324 
L 141.012535 86.243973 
L 142.152522 85.784707 
L 142.559248 85.325441 
L 142.675839 84.866175 
L 143.533937 84.406908 
L 144.731595 83.947642 
L 145.403098 83.488376 
L 145.681629 83.02911 
L 147.198123 82.569843 
L 147.860536 82.110577 
L 148.182365 81.651311 
L 148.942488 81.192044 
L 153.886446 80.273512 
L 153.969263 79.814246 
L 154.757132 79.354979 
L 155.102872 78.436447 
L 156.870896 77.977181 
L 157.960237 77.517914 
L 158.303069 77.058648 
L 158.456903 76.599382 
L 158.802475 76.140115 
L 159.982318 75.680849 
L 161.437721 74.762317 
L 162.636861 74.30305 
L 164.812256 73.843784 
L 166.308843 73.384518 
L 166.633791 72.465985 
L 167.772929 72.006719 
L 168.235653 71.547453 
L 170.457641 71.088186 
L 170.643197 70.62892 
L 171.617704 70.169654 
L 171.712695 69.251121 
L 174.035665 68.791855 
L 174.199038 68.332589 
L 175.263808 67.414056 
L 177.024597 66.95479 
L 178.08171 66.495524 
L 180.335357 66.036257 
L 180.434317 65.576991 
L 182.733749 65.117725 
L 183.526071 64.658459 
L 186.50153 64.199192 
L 186.837464 63.739926 
L 187.644664 63.28066 
L 190.571401 62.821394 
L 190.671766 62.362127 
L 191.763973 61.902861 
L 194.063869 61.443595 
L 194.470131 60.984328 
L 194.700545 60.525062 
L 197.055441 60.065796 
L 197.077034 59.60653 
L 203.197183 58.687997 
L 204.192608 58.228731 
L 204.196345 57.769465 
L 204.966105 57.310198 
L 205.233439 56.850932 
L 206.771063 56.391666 
L 207.248538 55.9324 
L 207.941072 55.473133 
L 213.282947 54.554601 
L 216.154761 53.636068 
L 219.682842 53.176802 
L 220.151319 52.717536 
L 222.109478 52.258269 
L 222.377529 51.799003 
L 222.393615 51.339737 
L 223.041558 50.880471 
L 223.28515 50.421204 
L 223.668976 49.961938 
L 230.562481 49.502672 
L 232.629539 49.043405 
L 234.003727 48.584139 
L 234.239015 47.665607 
L 237.961011 47.20634 
L 238.350833 46.747074 
L 248.346267 45.828542 
L 257.524903 43.991476 
L 261.862881 43.072944 
L 263.089535 42.613678 
L 266.519851 42.154411 
L 267.59829 41.695145 
L 273.119554 41.235879 
L 273.771487 40.776613 
L 278.459744 39.85808 
L 311.060582 38.480281 
L 311.639012 38.021015 
L 316.499576 37.561749 
L 317.49805 37.102482 
L 343.198197 36.18395 
L 344.975324 35.724684 
L 361.291092 35.265417 
L 363.795678 34.806151 
L 370.425235 34.346885 
L 375.055231 33.428352 
L 384.121069 32.969086 
L 384.299938 32.50982 
L 390.614423 32.050553 
L 392.616302 31.591287 
L 398.699615 31.132021 
L 411.911862 30.672755 
L 431.057812 30.593087 
L 431.057812 30.593087 
" clip-path="url(#p7b13c22826)" style="fill: none; stroke: #c2410c; stroke-width: 2.4; stroke-linecap: square"/>
   </g>
   <g id="text_18">
    <!-- 100 kcal -->
    <g style="fill: #6b7280" transform="translate(148.102644 232.364131) rotate(-90) scale(0.09 -0.09)">
     <use xlink:href="#DejaVuSans-31"/>
     <use xlink:href="#DejaVuSans-30" transform="translate(63.623047 0)"/>
     <use xlink:href="#DejaVuSans-30" transform="translate(127.246094 0)"/>
     <use xlink:href="#DejaVuSans-20" transform="translate(190.869141 0)"/>
     <use xlink:href="#DejaVuSans-6b" transform="translate(222.65625 0)"/>
     <use xlink:href="#DejaVuSans-63" transform="translate(280.566406 0)"/>
     <use xlink:href="#DejaVuSans-61" transform="translate(335.546875 0)"/>
     <use xlink:href="#DejaVuSans-6c" transform="translate(396.826172 0)"/>
    </g>
   </g>
   <g id="patch_5">
    <path d="M 217.08746 115.493625 
Q 178.296397 104.578039 140.796818 94.025869 
" style="fill: none; stroke: #1f2937; stroke-width: 1.2; stroke-linecap: round"/>
    <path d="M 143.940093 96.88416 
L 140.796818 94.025869 
L 144.969416 93.226224 
z
" style="fill: #1f2937; stroke: #1f2937; stroke-width: 1.2; stroke-linecap: round"/>
   </g>
   <g id="text_19">
    <!-- 71.8% within 100 kcal -->
    <g style="fill: #1f2937" transform="translate(183.61625 125.254051) scale(0.095 -0.095)">
     <defs>
      <path id="DejaVuSans-Bold-37" d="M 428 4666 
L 3944 4666 
L 3944 3988 
L 2125 0 
L 953 0 
L 2675 3781 
L 428 3781 
L 428 4666 
z
" transform="scale(0.015625)"/>
      <path id="DejaVuSans-Bold-31" d="M 750 831 
L 1813 831 
L 1813 3847 
L 722 3622 
L 722 4441 
L 1806 4666 
L 2950 4666 
L 2950 831 
L 4013 831 
L 4013 0 
L 750 0 
L 750 831 
z
" transform="scale(0.015625)"/>
      <path id="DejaVuSans-Bold-2e" d="M 653 1209 
L 1778 1209 
L 1778 0 
L 653 0 
L 653 1209 
z
" transform="scale(0.015625)"/>
      <path id="DejaVuSans-Bold-38" d="M 2228 2088 
Q 1891 2088 1709 1903 
Q 1528 1719 1528 1375 
Q 1528 1031 1709 848 
Q 1891 666 2228 666 
Q 2563 666 2741 848 
Q 2919 1031 2919 1375 
Q 2919 1722 2741 1905 
Q 2563 2088 2228 2088 
z
M 1350 2484 
Q 925 2613 709 2878 
Q 494 3144 494 3541 
Q 494 4131 934 4440 
Q 1375 4750 2228 4750 
Q 3075 4750 3515 4442 
Q 3956 4134 3956 3541 
Q 3956 3144 3739 2878 
Q 3522 2613 3097 2484 
Q 3572 2353 3814 2058 
Q 4056 1763 4056 1313 
Q 4056 619 3595 264 
Q 3134 -91 2228 -91 
Q 1319 -91 855 264 
Q 391 619 391 1313 
Q 391 1763 633 2058 
Q 875 2353 1350 2484 
z
M 1631 3419 
Q 1631 3141 1786 2991 
Q 1941 2841 2228 2841 
Q 2509 2841 2662 2991 
Q 2816 3141 2816 3419 
Q 2816 3697 2662 3845 
Q 2509 3994 2228 3994 
Q 1941 3994 1786 3844 
Q 1631 3694 1631 3419 
z
" transform="scale(0.015625)"/>
      <path id="DejaVuSans-Bold-25" d="M 4959 1925 
Q 4738 1925 4616 1733 
Q 4494 1541 4494 1184 
Q 4494 825 4614 633 
Q 4734 441 4959 441 
Q 5184 441 5303 633 
Q 5422 825 5422 1184 
Q 5422 1541 5301 1733 
Q 5181 1925 4959 1925 
z
M 4959 2450 
Q 5541 2450 5875 2112 
Q 6209 1775 6209 1184 
Q 6209 594 5875 251 
Q 5541 -91 4959 -91 
Q 4378 -91 4042 251 
Q 3706 594 3706 1184 
Q 3706 1772 4042 2111 
Q 4378 2450 4959 2450 
z
M 2094 -91 
L 1403 -91 
L 4319 4750 
L 5013 4750 
L 2094 -91 
z
M 1453 4750 
Q 2034 4750 2367 4411 
Q 2700 4072 2700 3481 
Q 2700 2891 2367 2550 
Q 2034 2209 1453 2209 
Q 872 2209 539 2550 
Q 206 2891 206 3481 
Q 206 4072 539 4411 
Q 872 4750 1453 4750 
z
M 1453 4225 
Q 1228 4225 1106 4031 
Q 984 3838 984 3481 
Q 984 3122 1106 2926 
Q 1228 2731 1453 2731 
Q 1678 2731 1798 2926 
Q 1919 3122 1919 3481 
Q 1919 3838 1797 4031 
Q 1675 4225 1453 4225 
z
" transform="scale(0.015625)"/>
      <path id="DejaVuSans-Bold-20" transform="scale(0.015625)"/>
      <path id="DejaVuSans-Bold-77" d="M 225 3500 
L 1313 3500 
L 1900 1088 
L 2491 3500 
L 3425 3500 
L 4013 1113 
L 4603 3500 
L 5691 3500 
L 4769 0 
L 3547 0 
L 2956 2406 
L 2369 0 
L 1147 0 
L 225 3500 
z
" transform="scale(0.015625)"/>
      <path id="DejaVuSans-Bold-69" d="M 538 3500 
L 1656 3500 
L 1656 0 
L 538 0 
L 538 3500 
z
M 538 4863 
L 1656 4863 
L 1656 3950 
L 538 3950 
L 538 4863 
z
" transform="scale(0.015625)"/>
      <path id="DejaVuSans-Bold-74" d="M 1759 4494 
L 1759 3500 
L 2913 3500 
L 2913 2700 
L 1759 2700 
L 1759 1216 
Q 1759 972 1856 886 
Q 1953 800 2241 800 
L 2816 800 
L 2816 0 
L 1856 0 
Q 1194 0 917 276 
Q 641 553 641 1216 
L 641 2700 
L 84 2700 
L 84 3500 
L 641 3500 
L 641 4494 
L 1759 4494 
z
" transform="scale(0.015625)"/>
      <path id="DejaVuSans-Bold-68" d="M 4056 2131 
L 4056 0 
L 2931 0 
L 2931 347 
L 2931 1625 
Q 2931 2084 2911 2256 
Q 2891 2428 2841 2509 
Q 2775 2619 2662 2680 
Q 2550 2741 2406 2741 
Q 2056 2741 1856 2470 
Q 1656 2200 1656 1722 
L 1656 0 
L 538 0 
L 538 4863 
L 1656 4863 
L 1656 2988 
Q 1909 3294 2193 3439 
Q 2478 3584 2822 3584 
Q 3428 3584 3742 3212 
Q 4056 2841 4056 2131 
z
" transform="scale(0.015625)"/>
      <path id="DejaVuSans-Bold-6e" d="M 4056 2131 
L 4056 0 
L 2931 0 
L 2931 347 
L 2931 1631 
Q 2931 2084 2911 2256 
Q 2891 2428 2841 2509 
Q 2775 2619 2662 2680 
Q 2550 2741 2406 2741 
Q 2056 2741 1856 2470 
Q 1656 2200 1656 1722 
L 1656 0 
L 538 0 
L 538 3500 
L 1656 3500 
L 1656 2988 
Q 1909 3294 2193 3439 
Q 2478 3584 2822 3584 
Q 3428 3584 3742 3212 
Q 4056 2841 4056 2131 
z
" transform="scale(0.015625)"/>
      <path id="DejaVuSans-Bold-30" d="M 2944 2338 
Q 2944 3213 2780 3570 
Q 2616 3928 2228 3928 
Q 1841 3928 1675 3570 
Q 1509 3213 1509 2338 
Q 1509 1453 1675 1090 
Q 1841 728 2228 728 
Q 2613 728 2778 1090 
Q 2944 1453 2944 2338 
z
M 4147 2328 
Q 4147 1169 3647 539 
Q 3147 -91 2228 -91 
Q 1306 -91 806 539 
Q 306 1169 306 2328 
Q 306 3491 806 4120 
Q 1306 4750 2228 4750 
Q 3147 4750 3647 4120 
Q 4147 3491 4147 2328 
z
" transform="scale(0.015625)"/>
      <path id="DejaVuSans-Bold-6b" d="M 538 4863 
L 1656 4863 
L 1656 2216 
L 2944 3500 
L 4244 3500 
L 2534 1894 
L 4378 0 
L 3022 0 
L 1656 1459 
L 1656 0 
L 538 0 
L 538 4863 
z
" transform="scale(0.015625)"/>
      <path id="DejaVuSans-Bold-63" d="M 3366 3391 
L 3366 2478 
Q 3138 2634 2908 2709 
Q 2678 2784 2431 2784 
Q 1963 2784 1702 2511 
Q 1441 2238 1441 1747 
Q 1441 1256 1702 982 
Q 1963 709 2431 709 
Q 2694 709 2930 787 
Q 3166 866 3366 1019 
L 3366 103 
Q 3103 6 2833 -42 
Q 2563 -91 2291 -91 
Q 1344 -91 809 395 
Q 275 881 275 1747 
Q 275 2613 809 3098 
Q 1344 3584 2291 3584 
Q 2566 3584 2833 3536 
Q 3100 3488 3366 3391 
z
" transform="scale(0.015625)"/>
      <path id="DejaVuSans-Bold-61" d="M 2106 1575 
Q 1756 1575 1579 1456 
Q 1403 1338 1403 1106 
Q 1403 894 1545 773 
Q 1688 653 1941 653 
Q 2256 653 2472 879 
Q 2688 1106 2688 1447 
L 2688 1575 
L 2106 1575 
z
M 3816 1997 
L 3816 0 
L 2688 0 
L 2688 519 
Q 2463 200 2181 54 
Q 1900 -91 1497 -91 
Q 953 -91 614 226 
Q 275 544 275 1050 
Q 275 1666 698 1953 
Q 1122 2241 2028 2241 
L 2688 2241 
L 2688 2328 
Q 2688 2594 2478 2717 
Q 2269 2841 1825 2841 
Q 1466 2841 1156 2769 
Q 847 2697 581 2553 
L 581 3406 
Q 941 3494 1303 3539 
Q 1666 3584 2028 3584 
Q 2975 3584 3395 3211 
Q 3816 2838 3816 1997 
z
" transform="scale(0.015625)"/>
      <path id="DejaVuSans-Bold-6c" d="M 538 4863 
L 1656 4863 
L 1656 0 
L 538 0 
L 538 4863 
z
" transform="scale(0.015625)"/>
     </defs>
     <use xlink:href="#DejaVuSans-Bold-37"/>
     <use xlink:href="#DejaVuSans-Bold-31" transform="translate(69.580078 0)"/>
     <use xlink:href="#DejaVuSans-Bold-2e" transform="translate(139.160156 0)"/>
     <use xlink:href="#DejaVuSans-Bold-38" transform="translate(177.148438 0)"/>
     <use xlink:href="#DejaVuSans-Bold-25" transform="translate(246.728516 0)"/>
     <use xlink:href="#DejaVuSans-Bold-20" transform="translate(346.923828 0)"/>
     <use xlink:href="#DejaVuSans-Bold-77" transform="translate(381.738281 0)"/>
     <use xlink:href="#DejaVuSans-Bold-69" transform="translate(474.121094 0)"/>
     <use xlink:href="#DejaVuSans-Bold-74" transform="translate(508.398438 0)"/>
     <use xlink:href="#DejaVuSans-Bold-68" transform="translate(556.201172 0)"/>
     <use xlink:href="#DejaVuSans-Bold-69" transform="translate(627.392578 0)"/>
     <use xlink:href="#DejaVuSans-Bold-6e" transform="translate(661.669922 0)"/>
     <use xlink:href="#DejaVuSans-Bold-20" transform="translate(732.861328 0)"/>
     <use xlink:href="#DejaVuSans-Bold-31" transform="translate(767.675781 0)"/>
     <use xlink:href="#DejaVuSans-Bold-30" transform="translate(837.255859 0)"/>
     <use xlink:href="#DejaVuSans-Bold-30" transform="translate(906.835938 0)"/>
     <use xlink:href="#DejaVuSans-Bold-20" transform="translate(976.416016 0)"/>
     <use xlink:href="#DejaVuSans-Bold-6b" transform="translate(1011.230469 0)"/>
     <use xlink:href="#DejaVuSans-Bold-63" transform="translate(1077.734375 0)"/>
     <use xlink:href="#DejaVuSans-Bold-61" transform="translate(1137.011719 0)"/>
     <use xlink:href="#DejaVuSans-Bold-6c" transform="translate(1204.492188 0)"/>
    </g>
   </g>
   <g id="text_20">
    <!-- Absolute-error CDF (test set) -->
    <g style="fill: #1f2937" transform="translate(45.51125 17.457891) scale(0.135 -0.135)">
     <defs>
      <path id="DejaVuSans-Bold-41" d="M 3419 850 
L 1538 850 
L 1241 0 
L 31 0 
L 1759 4666 
L 3194 4666 
L 4922 0 
L 3713 0 
L 3419 850 
z
M 1838 1716 
L 3116 1716 
L 2478 3572 
L 1838 1716 
z
" transform="scale(0.015625)"/>
      <path id="DejaVuSans-Bold-62" d="M 2400 722 
Q 2759 722 2948 984 
Q 3138 1247 3138 1747 
Q 3138 2247 2948 2509 
Q 2759 2772 2400 2772 
Q 2041 2772 1848 2508 
Q 1656 2244 1656 1747 
Q 1656 1250 1848 986 
Q 2041 722 2400 722 
z
M 1656 2988 
Q 1888 3294 2169 3439 
Q 2450 3584 2816 3584 
Q 3463 3584 3878 3070 
Q 4294 2556 4294 1747 
Q 4294 938 3878 423 
Q 3463 -91 2816 -91 
Q 2450 -91 2169 54 
Q 1888 200 1656 506 
L 1656 0 
L 538 0 
L 538 4863 
L 1656 4863 
L 1656 2988 
z
" transform="scale(0.015625)"/>
      <path id="DejaVuSans-Bold-73" d="M 3272 3391 
L 3272 2541 
Q 2913 2691 2578 2766 
Q 2244 2841 1947 2841 
Q 1628 2841 1473 2761 
Q 1319 2681 1319 2516 
Q 1319 2381 1436 2309 
Q 1553 2238 1856 2203 
L 2053 2175 
Q 2913 2066 3209 1816 
Q 3506 1566 3506 1031 
Q 3506 472 3093 190 
Q 2681 -91 1863 -91 
Q 1516 -91 1145 -36 
Q 775 19 384 128 
L 384 978 
Q 719 816 1070 734 
Q 1422 653 1784 653 
Q 2113 653 2278 743 
Q 2444 834 2444 1013 
Q 2444 1163 2330 1236 
Q 2216 1309 1875 1350 
L 1678 1375 
Q 931 1469 631 1722 
Q 331 1975 331 2491 
Q 331 3047 712 3315 
Q 1094 3584 1881 3584 
Q 2191 3584 2531 3537 
Q 2872 3491 3272 3391 
z
" transform="scale(0.015625)"/>
      <path id="DejaVuSans-Bold-6f" d="M 2203 2784 
Q 1831 2784 1636 2517 
Q 1441 2250 1441 1747 
Q 1441 1244 1636 976 
Q 1831 709 2203 709 
Q 2569 709 2762 976 
Q 2956 1244 2956 1747 
Q 2956 2250 2762 2517 
Q 2569 2784 2203 2784 
z
M 2203 3584 
Q 3106 3584 3614 3096 
Q 4122 2609 4122 1747 
Q 4122 884 3614 396 
Q 3106 -91 2203 -91 
Q 1297 -91 786 396 
Q 275 884 275 1747 
Q 275 2609 786 3096 
Q 1297 3584 2203 3584 
z
" transform="scale(0.015625)"/>
      <path id="DejaVuSans-Bold-75" d="M 500 1363 
L 500 3500 
L 1625 3500 
L 1625 3150 
Q 1625 2866 1622 2436 
Q 1619 2006 1619 1863 
Q 1619 1441 1641 1255 
Q 1663 1069 1716 984 
Q 1784 875 1895 815 
Q 2006 756 2150 756 
Q 2500 756 2700 1025 
Q 2900 1294 2900 1772 
L 2900 3500 
L 4019 3500 
L 4019 0 
L 2900 0 
L 2900 506 
Q 2647 200 2364 54 
Q 2081 -91 1741 -91 
Q 1134 -91 817 281 
Q 500 653 500 1363 
z
" transform="scale(0.015625)"/>
      <path id="DejaVuSans-Bold-65" d="M 4031 1759 
L 4031 1441 
L 1416 1441 
Q 1456 1047 1700 850 
Q 1944 653 2381 653 
Q 2734 653 3104 758 
Q 3475 863 3866 1075 
L 3866 213 
Q 3469 63 3072 -14 
Q 2675 -91 2278 -91 
Q 1328 -91 801 392 
Q 275 875 275 1747 
Q 275 2603 792 3093 
Q 1309 3584 2216 3584 
Q 3041 3584 3536 3087 
Q 4031 2591 4031 1759 
z
M 2881 2131 
Q 2881 2450 2695 2645 
Q 2509 2841 2209 2841 
Q 1884 2841 1681 2658 
Q 1478 2475 1428 2131 
L 2881 2131 
z
" transform="scale(0.015625)"/>
      <path id="DejaVuSans-Bold-2d" d="M 347 2297 
L 2309 2297 
L 2309 1388 
L 347 1388 
L 347 2297 
z
" transform="scale(0.015625)"/>
      <path id="DejaVuSans-Bold-72" d="M 3138 2547 
Q 2991 2616 2845 2648 
Q 2700 2681 2553 2681 
Q 2122 2681 1889 2404 
Q 1656 2128 1656 1613 
L 1656 0 
L 538 0 
L 538 3500 
L 1656 3500 
L 1656 2925 
Q 1872 3269 2151 3426 
Q 2431 3584 2822 3584 
Q 2878 3584 2943 3579 
Q 3009 3575 3134 3559 
L 3138 2547 
z
" transform="scale(0.015625)"/>
      <path id="DejaVuSans-Bold-43" d="M 4288 256 
Q 3956 84 3597 -3 
Q 3238 -91 2847 -91 
Q 1681 -91 1000 561 
Q 319 1213 319 2328 
Q 319 3447 1000 4098 
Q 1681 4750 2847 4750 
Q 3238 4750 3597 4662 
Q 3956 4575 4288 4403 
L 4288 3438 
Q 3953 3666 3628 3772 
Q 3303 3878 2944 3878 
Q 2300 3878 1931 3465 
Q 1563 3053 1563 2328 
Q 1563 1606 1931 1193 
Q 2300 781 2944 781 
Q 3303 781 3628 887 
Q 3953 994 4288 1222 
L 4288 256 
z
" transform="scale(0.015625)"/>
      <path id="DejaVuSans-Bold-44" d="M 1791 3756 
L 1791 909 
L 2222 909 
Q 2959 909 3348 1275 
Q 3738 1641 3738 2338 
Q 3738 3031 3350 3393 
Q 2963 3756 2222 3756 
L 1791 3756 
z
M 588 4666 
L 1856 4666 
Q 2919 4666 3439 4514 
Q 3959 4363 4331 4000 
Q 4659 3684 4818 3271 
Q 4978 2859 4978 2338 
Q 4978 1809 4818 1395 
Q 4659 981 4331 666 
Q 3956 303 3431 151 
Q 2906 0 1856 0 
L 588 0 
L 588 4666 
z
" transform="scale(0.015625)"/>
      <path id="DejaVuSans-Bold-46" d="M 588 4666 
L 3834 4666 
L 3834 3756 
L 1791 3756 
L 1791 2888 
L 3713 2888 
L 3713 1978 
L 1791 1978 
L 1791 0 
L 588 0 
L 588 4666 
z
" transform="scale(0.015625)"/>
      <path id="DejaVuSans-Bold-28" d="M 2413 -844 
L 1484 -844 
Q 1006 -72 778 623 
Q 550 1319 550 2003 
Q 550 2688 779 3389 
Q 1009 4091 1484 4856 
L 2413 4856 
Q 2013 4116 1813 3408 
Q 1613 2700 1613 2009 
Q 1613 1319 1811 609 
Q 2009 -100 2413 -844 
z
" transform="scale(0.015625)"/>
      <path id="DejaVuSans-Bold-29" d="M 513 -844 
Q 913 -100 1113 609 
Q 1313 1319 1313 2009 
Q 1313 2700 1113 3408 
Q 913 4116 513 4856 
L 1441 4856 
Q 1916 4091 2145 3389 
Q 2375 2688 2375 2003 
Q 2375 1319 2147 623 
Q 1919 -72 1441 -844 
L 513 -844 
z
" transform="scale(0.015625)"/>
     </defs>
     <use xlink:href="#DejaVuSans-Bold-41"/>
     <use xlink:href="#DejaVuSans-Bold-62" transform="translate(77.392578 0)"/>
     <use xlink:href="#DejaVuSans-Bold-73" transform="translate(148.974609 0)"/>
     <use xlink:href="#DejaVuSans-Bold-6f" transform="translate(208.496094 0)"/>
     <use xlink:href="#DejaVuSans-Bold-6c" transform="translate(277.197266 0)"/>
     <use xlink:href="#DejaVuSans-Bold-75" transform="translate(311.474609 0)"/>
     <use xlink:href="#DejaVuSans-Bold-74" transform="translate(382.666016 0)"/>
     <use xlink:href="#DejaVuSans-Bold-65" transform="translate(430.46875 0)"/>
     <use xlink:href="#DejaVuSans-Bold-2d" transform="translate(498.291016 0)"/>
     <use xlink:href="#DejaVuSans-Bold-65" transform="translate(539.794922 0)"/>
     <use xlink:href="#DejaVuSans-Bold-72" transform="translate(607.617188 0)"/>
     <use xlink:href="#DejaVuSans-Bold-72" transform="translate(656.933594 0)"/>
     <use xlink:href="#DejaVuSans-Bold-6f" transform="translate(706.25 0)"/>
     <use xlink:href="#DejaVuSans-Bold-72" transform="translate(774.951172 0)"/>
     <use xlink:href="#DejaVuSans-Bold-20" transform="translate(824.267578 0)"/>
     <use xlink:href="#DejaVuSans-Bold-43" transform="translate(859.082031 0)"/>
     <use xlink:href="#DejaVuSans-Bold-44" transform="translate(932.470703 0)"/>
     <use xlink:href="#DejaVuSans-Bold-46" transform="translate(1015.478516 0)"/>
     <use xlink:href="#DejaVuSans-Bold-20" transform="translate(1083.789062 0)"/>
     <use xlink:href="#DejaVuSans-Bold-28" transform="translate(1118.603516 0)"/>
     <use xlink:href="#DejaVuSans-Bold-74" transform="translate(1164.306641 0)"/>
     <use xlink:href="#DejaVuSans-Bold-65" transform="translate(1212.109375 0)"/>
     <use xlink:href="#DejaVuSans-Bold-73" transform="translate(1279.931641 0)"/>
     <use xlink:href="#DejaVuSans-Bold-74" transform="translate(1339.453125 0)"/>
     <use xlink:href="#DejaVuSans-Bold-20" transform="translate(1387.255859 0)"/>
     <use xlink:href="#DejaVuSans-Bold-73" transform="translate(1422.070312 0)"/>
     <use xlink:href="#DejaVuSans-Bold-65" transform="translate(1481.591797 0)"/>
     <use xlink:href="#DejaVuSans-Bold-74" transform="translate(1549.414062 0)"/>
     <use xlink:href="#DejaVuSans-Bold-29" transform="translate(1597.216797 0)"/>
    </g>
   </g>
   <g id="PathCollection_1">
    <defs>
     <path id="ma5c8f80a0f" d="M 0 2.738613 
C 0.726289 2.738613 1.422928 2.450055 1.936492 1.936492 
C 2.450055 1.422928 2.738613 0.726289 2.738613 0 
C 2.738613 -0.726289 2.450055 -1.422928 1.936492 -1.936492 
C 1.422928 -2.450055 0.726289 -2.738613 0 -2.738613 
C -0.726289 -2.738613 -1.422928 -2.450055 -1.936492 -1.936492 
C -2.450055 -1.422928 -2.738613 -0.726289 -2.738613 0 
C -2.738613 0.726289 -2.450055 1.422928 -1.936492 1.936492 
C -1.422928 2.450055 -0.726289 2.738613 0 2.738613 
z
" style="stroke: #3b4ab0"/>
    </defs>
    <g clip-path="url(#p7b13c22826)">
     <use xlink:href="#ma5c8f80a0f" x="137.58125" y="93.121027" style="fill: #3b4ab0; stroke: #3b4ab0"/>
    </g>
   </g>
   <g id="legend_1">
    <g id="line2d_25">
     <path d="M 347.418906 232.510969 
L 356.918906 232.510969 
L 366.418906 232.510969 
" style="fill: none; stroke: #3b4ab0; stroke-width: 2.4; stroke-linecap: square"/>
    </g>
    <g id="text_21">
     <!-- RGB-D -->
     <g transform="translate(374.018906 235.835969) scale(0.095 -0.095)">
      <defs>
       <path id="DejaVuSans-52" d="M 2841 2188 
Q 3044 2119 3236 1894 
Q 3428 1669 3622 1275 
L 4263 0 
L 3584 0 
L 2988 1197 
Q 2756 1666 2539 1819 
Q 2322 1972 1947 1972 
L 1259 1972 
L 1259 0 
L 628 0 
L 628 4666 
L 2053 4666 
Q 2853 4666 3247 4331 
Q 3641 3997 3641 3322 
Q 3641 2881 3436 2590 
Q 3231 2300 2841 2188 
z
M 1259 4147 
L 1259 2491 
L 2053 2491 
Q 2509 2491 2742 2702 
Q 2975 2913 2975 3322 
Q 2975 3731 2742 3939 
Q 2509 4147 2053 4147 
L 1259 4147 
z
" transform="scale(0.015625)"/>
       <path id="DejaVuSans-47" d="M 3809 666 
L 3809 1919 
L 2778 1919 
L 2778 2438 
L 4434 2438 
L 4434 434 
Q 4069 175 3628 42 
Q 3188 -91 2688 -91 
Q 1594 -91 976 548 
Q 359 1188 359 2328 
Q 359 3472 976 4111 
Q 1594 4750 2688 4750 
Q 3144 4750 3555 4637 
Q 3966 4525 4313 4306 
L 4313 3634 
Q 3963 3931 3569 4081 
Q 3175 4231 2741 4231 
Q 1884 4231 1454 3753 
Q 1025 3275 1025 2328 
Q 1025 1384 1454 906 
Q 1884 428 2741 428 
Q 3075 428 3337 486 
Q 3600 544 3809 666 
z
" transform="scale(0.015625)"/>
       <path id="DejaVuSans-42" d="M 1259 2228 
L 1259 519 
L 2272 519 
Q 2781 519 3026 730 
Q 3272 941 3272 1375 
Q 3272 1813 3026 2020 
Q 2781 2228 2272 2228 
L 1259 2228 
z
M 1259 4147 
L 1259 2741 
L 2194 2741 
Q 2656 2741 2882 2914 
Q 3109 3088 3109 3444 
Q 3109 3797 2882 3972 
Q 2656 4147 2194 4147 
L 1259 4147 
z
M 628 4666 
L 2241 4666 
Q 2963 4666 3353 4366 
Q 3744 4066 3744 3513 
Q 3744 3084 3544 2831 
Q 3344 2578 2956 2516 
Q 3422 2416 3680 2098 
Q 3938 1781 3938 1306 
Q 3938 681 3513 340 
Q 3088 0 2303 0 
L 628 0 
L 628 4666 
z
" transform="scale(0.015625)"/>
       <path id="DejaVuSans-2d" d="M 313 2009 
L 1997 2009 
L 1997 1497 
L 313 1497 
L 313 2009 
z
" transform="scale(0.015625)"/>
       <path id="DejaVuSans-44" d="M 1259 4147 
L 1259 519 
L 2022 519 
Q 2988 519 3436 956 
Q 3884 1394 3884 2338 
Q 3884 3275 3436 3711 
Q 2988 4147 2022 4147 
L 1259 4147 
z
M 628 4666 
L 1925 4666 
Q 3281 4666 3915 4102 
Q 4550 3538 4550 2338 
Q 4550 1131 3912 565 
Q 3275 0 1925 0 
L 628 0 
L 628 4666 
z
" transform="scale(0.015625)"/>
      </defs>
      <use xlink:href="#DejaVuSans-52"/>
      <use xlink:href="#DejaVuSans-47" transform="translate(69.482422 0)"/>
      <use xlink:href="#DejaVuSans-42" transform="translate(146.972656 0)"/>
      <use xlink:href="#DejaVuSans-2d" transform="translate(215.576172 0)"/>
      <use xlink:href="#DejaVuSans-44" transform="translate(251.660156 0)"/>
     </g>
    </g>
    <g id="line2d_26">
     <path d="M 347.418906 246.455187 
L 356.918906 246.455187 
L 366.418906 246.455187 
" style="fill: none; stroke: #c2410c; stroke-width: 2.4; stroke-linecap: square"/>
    </g>
    <g id="text_22">
     <!-- RGB -->
     <g transform="translate(374.018906 249.780187) scale(0.095 -0.095)">
      <use xlink:href="#DejaVuSans-52"/>
      <use xlink:href="#DejaVuSans-47" transform="translate(69.482422 0)"/>
      <use xlink:href="#DejaVuSans-42" transform="translate(146.972656 0)"/>
     </g>
    </g>
   </g>
  </g>
 </g>
 <defs>
  <clipPath id="p7b13c22826">
   <rect x="45.51125" y="27.457891" width="368.28" height="232.848"/>
  </clipPath>
 </defs>
</svg>
