<?xml version="1.0" encoding="utf-8" standalone="no"?>
<!DOCTYPE svg PUBLIC "-//W3C//DTD SVG 1.1//EN"
  "http://www.w3.org/Graphics/SVG/1.1/DTD/svg11.dtd">
<svg xmlns:xlink="http://www.w3.org/1999/xlink" width="741.984pt" height="302.688pt" viewBox="0 0 741.984 302.688" xmlns="http://www.w3.org/2000/svg" version="1.1">
 <metadata>
  <rdf:RDF xmlns:dc="http://purl.org/dc/elements/1.1/" xmlns:cc="http://creativecommons.org/ns#" xmlns:rdf="http://www.w3.org/1999/02/22-rdf-syntax-ns#">
   <cc:Work>
    <dc:type rdf:resource="http://purl.org/dc/dcmitype/StillImage"/>
    <dc:date>2026-05-27T14:36:58.785398</dc:date>
    <dc:format>image/svg+xml</dc:format>
    <dc:creator>
     <cc:Agent>
      <dc:title>Matplotlib v3.10.8, https://matplotlib.org/</dc:title>
     </cc:Agent>
    </dc:creator>
   </cc:Work>
  </rdf:RDF>
 </metadata>
 <defs>
  <style type="text/css">*{stroke-linejoin: round; stroke-linecap: butt}</style>
 </defs>
 <g id="figure_1">
  <g id="patch_1">
   <path d="M 0 302.688 
L 741.984 302.688 
L 741.984 0 
L 0 0 
z
" style="fill: #ffffff"/>
  </g>
  <g id="axes_1">
   <g id="patch_2">
    <path d="M 146.106848 97.8048 
Q 170.06213 97.8048 191.781344 97.8048 
" clip-path="url(#p9fc025f145)" style="fill: none; stroke: #1f2937; stroke-width: 2; stroke-linecap: round"/>
    <path d="M 185.381344 94.6048 
L 191.781344 97.8048 
L 185.381344 101.0048 
z
" clip-path="url(#p9fc025f145)" style="fill: #1f2937; stroke: #1f2937; stroke-width: 2; stroke-linecap: round"/>
   </g>
   <g id="patch_3">
    <path d="M 335.552662 97.8048 
Q 360.196991 97.8048 382.605251 97.8048 
" clip-path="url(#p9fc025f145)" style="fill: none; stroke: #1f2937; stroke-width: 2; stroke-linecap: round"/>
    <path d="M 376.205251 94.6048 
L 382.605251 97.8048 
L 376.205251 101.0048 
z
" clip-path="url(#p9fc025f145)" style="fill: #1f2937; stroke: #1f2937; stroke-width: 2; stroke-linecap: round"/>
   </g>
   <g id="patch_4">
    <path d="M 146.107267 213.12 
Q 166.630967 213.12 184.918598 213.12 
" clip-path="url(#p9fc025f145)" style="fill: none; stroke: #1f2937; stroke-width: 2; stroke-linecap: round"/>
    <path d="M 178.518598 209.92 
L 184.918598 213.12 
L 178.518598 216.32 
z
" clip-path="url(#p9fc025f145)" style="fill: #1f2937; stroke: #1f2937; stroke-width: 2; stroke-linecap: round"/>
   </g>
   <g id="patch_5">
    <path d="M 342.418924 213.12 
Q 363.629825 213.12 382.604659 213.12 
" clip-path="url(#p9fc025f145)" style="fill: none; stroke: #1f2937; stroke-width: 2; stroke-linecap: round"/>
    <path d="M 376.204659 209.92 
L 382.604659 213.12 
L 376.204659 216.32 
z
" clip-path="url(#p9fc025f145)" style="fill: #1f2937; stroke: #1f2937; stroke-width: 2; stroke-linecap: round"/>
   </g>
   <g id="patch_6">
    <path d="M 462.915183 99.13876 
Q 496.707028 116.191878 520.546974 142.696814 
" clip-path="url(#p9fc025f145)" style="fill: none; stroke: #c2410c; stroke-width: 2; stroke-linecap: round"/>
    <path d="M 518.646226 135.798469 
L 520.546974 142.696814 
L 513.887849 140.078405 
z
" clip-path="url(#p9fc025f145)" style="fill: #c2410c; stroke: #c2410c; stroke-width: 2; stroke-linecap: round"/>
   </g>
   <g id="patch_7">
    <path d="M 462.915183 211.78604 
Q 496.707028 194.732922 520.546974 168.227986 
" clip-path="url(#p9fc025f145)" style="fill: none; stroke: #c2410c; stroke-width: 2; stroke-linecap: round"/>
    <path d="M 513.887849 170.846395 
L 520.546974 168.227986 
L 518.646226 175.126331 
z
" clip-path="url(#p9fc025f145)" style="fill: #c2410c; stroke: #c2410c; stroke-width: 2; stroke-linecap: round"/>
   </g>
   <g id="patch_8">
    <path d="M 557.126352 155.4624 
Q 580.804827 155.4624 602.023626 155.4624 
" clip-path="url(#p9fc025f145)" style="fill: none; stroke: #b91c1c; stroke-width: 2.2; stroke-linecap: round"/>
    <path d="M 595.623626 152.2624 
L 602.023626 155.4624 
L 595.623626 158.6624 
z
" clip-path="url(#p9fc025f145)" style="fill: #b91c1c; stroke: #b91c1c; stroke-width: 2.2; stroke-linecap: round"/>
   </g>
   <g id="text_1">
    <!-- Exp 4 — volume-scalar mass pipeline -->
    <g style="fill: #1f2937" transform="translate(18.1824 29.1648) scale(0.155 -0.155)">
     <defs>
      <path id="DejaVuSans-Bold-45" d="M 588 4666 
L 3834 4666 
L 3834 3756 
L 1791 3756 
L 1791 2888 
L 3713 2888 
L 3713 1978 
L 1791 1978 
L 1791 909 
L 3903 909 
L 3903 0 
L 588 0 
L 588 4666 
z
" transform="scale(0.015625)"/>
      <path id="DejaVuSans-Bold-78" d="M 1422 1791 
L 159 3500 
L 1344 3500 
L 2059 2463 
L 2784 3500 
L 3969 3500 
L 2706 1797 
L 4031 0 
L 2847 0 
L 2059 1106 
L 1281 0 
L 97 0 
L 1422 1791 
z
" transform="scale(0.015625)"/>
      <path id="DejaVuSans-Bold-70" d="M 1656 506 
L 1656 -1331 
L 538 -1331 
L 538 3500 
L 1656 3500 
L 1656 2988 
Q 1888 3294 2169 3439 
Q 2450 3584 2816 3584 
Q 3463 3584 3878 3070 
Q 4294 2556 4294 1747 
Q 4294 938 3878 423 
Q 3463 -91 2816 -91 
Q 2450 -91 2169 54 
Q 1888 200 1656 506 
z
M 2400 2772 
Q 2041 2772 1848 2508 
Q 1656 2244 1656 1747 
Q 1656 1250 1848 986 
Q 2041 722 2400 722 
Q 2759 722 2948 984 
Q 3138 1247 3138 1747 
Q 3138 2247 2948 2509 
Q 2759 2772 2400 2772 
z
" transform="scale(0.015625)"/>
      <path id="DejaVuSans-Bold-20" transform="scale(0.015625)"/>
      <path id="DejaVuSans-Bold-34" d="M 2356 3675 
L 1038 1722 
L 2356 1722 
L 2356 3675 
z
M 2156 4666 
L 3494 4666 
L 3494 1722 
L 4159 1722 
L 4159 850 
L 3494 850 
L 3494 0 
L 2356 0 
L 2356 850 
L 288 850 
L 288 1881 
L 2156 4666 
z
" transform="scale(0.015625)"/>
      <path id="DejaVuSans-Bold-2014" d="M 344 2156 
L 6056 2156 
L 6056 1350 
L 344 1350 
L 344 2156 
z
" transform="scale(0.015625)"/>
      <path id="DejaVuSans-Bold-76" d="M 97 3500 
L 1216 3500 
L 2088 1081 
L 2956 3500 
L 4078 3500 
L 2700 0 
L 1472 0 
L 97 3500 
z
" transform="scale(0.015625)"/>
      <path id="DejaVuSans-Bold-6f" d="M 2203 2784 
Q 1831 2784 1636 2517 
Q 1441 2250 1441 1747 
Q 1441 1244 1636 976 
Q 1831 709 2203 709 
Q 2569 709 2762 976 
Q 2956 1244 2956 1747 
Q 2956 2250 2762 2517 
Q 2569 2784 2203 2784 
z
M 2203 3584 
Q 3106 3584 3614 3096 
Q 4122 2609 4122 1747 
Q 4122 884 3614 396 
Q 3106 -91 2203 -91 
Q 1297 -91 786 396 
Q 275 884 275 1747 
Q 275 2609 786 3096 
Q 1297 3584 2203 3584 
z
" transform="scale(0.015625)"/>
      <path id="DejaVuSans-Bold-6c" d="M 538 4863 
L 1656 4863 
L 1656 0 
L 538 0 
L 538 4863 
z
" transform="scale(0.015625)"/>
      <path id="DejaVuSans-Bold-75" d="M 500 1363 
L 500 3500 
L 1625 3500 
L 1625 3150 
Q 1625 2866 1622 2436 
Q 1619 2006 1619 1863 
Q 1619 1441 1641 1255 
Q 1663 1069 1716 984 
Q 1784 875 1895 815 
Q 2006 756 2150 756 
Q 2500 756 2700 1025 
Q 2900 1294 2900 1772 
L 2900 3500 
L 4019 3500 
L 4019 0 
L 2900 0 
L 2900 506 
Q 2647 200 2364 54 
Q 2081 -91 1741 -91 
Q 1134 -91 817 281 
Q 500 653 500 1363 
z
" transform="scale(0.015625)"/>
      <path id="DejaVuSans-Bold-6d" d="M 3781 2919 
Q 3994 3244 4286 3414 
Q 4578 3584 4928 3584 
Q 5531 3584 5847 3212 
Q 6163 2841 6163 2131 
L 6163 0 
L 5038 0 
L 5038 1825 
Q 5041 1866 5042 1909 
Q 5044 1953 5044 2034 
Q 5044 2406 4934 2573 
Q 4825 2741 4581 2741 
Q 4263 2741 4089 2478 
Q 3916 2216 3909 1719 
L 3909 0 
L 2784 0 
L 2784 1825 
Q 2784 2406 2684 2573 
Q 2584 2741 2328 2741 
Q 2006 2741 1831 2477 
Q 1656 2213 1656 1722 
L 1656 0 
L 531 0 
L 531 3500 
L 1656 3500 
L 1656 2988 
Q 1863 3284 2130 3434 
Q 2397 3584 2719 3584 
Q 3081 3584 3359 3409 
Q 3638 3234 3781 2919 
z
" transform="scale(0.015625)"/>
      <path id="DejaVuSans-Bold-65" d="M 4031 1759 
L 4031 1441 
L 1416 1441 
Q 1456 1047 1700 850 
Q 1944 653 2381 653 
Q 2734 653 3104 758 
Q 3475 863 3866 1075 
L 3866 213 
Q 3469 63 3072 -14 
Q 2675 -91 2278 -91 
Q 1328 -91 801 392 
Q 275 875 275 1747 
Q 275 2603 792 3093 
Q 1309 3584 2216 3584 
Q 3041 3584 3536 3087 
Q 4031 2591 4031 1759 
z
M 2881 2131 
Q 2881 2450 2695 2645 
Q 2509 2841 2209 2841 
Q 1884 2841 1681 2658 
Q 1478 2475 1428 2131 
L 2881 2131 
z
" transform="scale(0.015625)"/>
      <path id="DejaVuSans-Bold-2d" d="M 347 2297 
L 2309 2297 
L 2309 1388 
L 347 1388 
L 347 2297 
z
" transform="scale(0.015625)"/>
      <path id="DejaVuSans-Bold-73" d="M 3272 3391 
L 3272 2541 
Q 2913 2691 2578 2766 
Q 2244 2841 1947 2841 
Q 1628 2841 1473 2761 
Q 1319 2681 1319 2516 
Q 1319 2381 1436 2309 
Q 1553 2238 1856 2203 
L 2053 2175 
Q 2913 2066 3209 1816 
Q 3506 1566 3506 1031 
Q 3506 472 3093 190 
Q 2681 -91 1863 -91 
Q 1516 -91 1145 -36 
Q 775 19 384 128 
L 384 978 
Q 719 816 1070 734 
Q 1422 653 1784 653 
Q 2113 653 2278 743 
Q 2444 834 2444 1013 
Q 2444 1163 2330 1236 
Q 2216 1309 1875 1350 
L 1678 1375 
Q 931 1469 631 1722 
Q 331 1975 331 2491 
Q 331 3047 712 3315 
Q 1094 3584 1881 3584 
Q 2191 3584 2531 3537 
Q 2872 3491 3272 3391 
z
" transform="scale(0.015625)"/>
      <path id="DejaVuSans-Bold-63" d="M 3366 3391 
L 3366 2478 
Q 3138 2634 2908 2709 
Q 2678 2784 2431 2784 
Q 1963 2784 1702 2511 
Q 1441 2238 1441 1747 
Q 1441 1256 1702 982 
Q 1963 709 2431 709 
Q 2694 709 2930 787 
Q 3166 866 3366 1019 
L 3366 103 
Q 3103 6 2833 -42 
Q 2563 -91 2291 -91 
Q 1344 -91 809 395 
Q 275 881 275 1747 
Q 275 2613 809 3098 
Q 1344 3584 2291 3584 
Q 2566 3584 2833 3536 
Q 3100 3488 3366 3391 
z
" transform="scale(0.015625)"/>
      <path id="DejaVuSans-Bold-61" d="M 2106 1575 
Q 1756 1575 1579 1456 
Q 1403 1338 1403 1106 
Q 1403 894 1545 773 
Q 1688 653 1941 653 
Q 2256 653 2472 879 
Q 2688 1106 2688 1447 
L 2688 1575 
L 2106 1575 
z
M 3816 1997 
L 3816 0 
L 2688 0 
L 2688 519 
Q 2463 200 2181 54 
Q 1900 -91 1497 -91 
Q 953 -91 614 226 
Q 275 544 275 1050 
Q 275 1666 698 1953 
Q 1122 2241 2028 2241 
L 2688 2241 
L 2688 2328 
Q 2688 2594 2478 2717 
Q 2269 2841 1825 2841 
Q 1466 2841 1156 2769 
Q 847 2697 581 2553 
L 581 3406 
Q 941 3494 1303 3539 
Q 1666 3584 2028 3584 
Q 2975 3584 3395 3211 
Q 3816 2838 3816 1997 
z
" transform="scale(0.015625)"/>
      <path id="DejaVuSans-Bold-72" d="M 3138 2547 
Q 2991 2616 2845 2648 
Q 2700 2681 2553 2681 
Q 2122 2681 1889 2404 
Q 1656 2128 1656 1613 
L 1656 0 
L 538 0 
L 538 3500 
L 1656 3500 
L 1656 2925 
Q 1872 3269 2151 3426 
Q 2431 3584 2822 3584 
Q 2878 3584 2943 3579 
Q 3009 3575 3134 3559 
L 3138 2547 
z
" transform="scale(0.015625)"/>
      <path id="DejaVuSans-Bold-69" d="M 538 3500 
L 1656 3500 
L 1656 0 
L 538 0 
L 538 3500 
z
M 538 4863 
L 1656 4863 
L 1656 3950 
L 538 3950 
L 538 4863 
z
" transform="scale(0.015625)"/>
      <path id="DejaVuSans-Bold-6e" d="M 4056 2131 
L 4056 0 
L 2931 0 
L 2931 347 
L 2931 1631 
Q 2931 2084 2911 2256 
Q 2891 2428 2841 2509 
Q 2775 2619 2662 2680 
Q 2550 2741 2406 2741 
Q 2056 2741 1856 2470 
Q 1656 2200 1656 1722 
L 1656 0 
L 538 0 
L 538 3500 
L 1656 3500 
L 1656 2988 
Q 1909 3294 2193 3439 
Q 2478 3584 2822 3584 
Q 3428 3584 3742 3212 
Q 4056 2841 4056 2131 
z
" transform="scale(0.015625)"/>
     </defs>
     <use xlink:href="#DejaVuSans-Bold-45"/>
     <use xlink:href="#DejaVuSans-Bold-78" transform="translate(68.310547 0)"/>
     <use xlink:href="#DejaVuSans-Bold-70" transform="translate(132.8125 0)"/>
     <use xlink:href="#DejaVuSans-Bold-20" transform="translate(204.394531 0)"/>
     <use xlink:href="#DejaVuSans-Bold-34" transform="translate(239.208984 0)"/>
     <use xlink:href="#DejaVuSans-Bold-20" transform="translate(308.789062 0)"/>
     <use xlink:href="#DejaVuSans-Bold-2014" transform="translate(343.603516 0)"/>
     <use xlink:href="#DejaVuSans-Bold-20" transform="translate(443.603516 0)"/>
     <use xlink:href="#DejaVuSans-Bold-76" transform="translate(478.417969 0)"/>
     <use xlink:href="#DejaVuSans-Bold-6f" transform="translate(543.603516 0)"/>
     <use xlink:href="#DejaVuSans-Bold-6c" transform="translate(612.304688 0)"/>
     <use xlink:href="#DejaVuSans-Bold-75" transform="translate(646.582031 0)"/>
     <use xlink:href="#DejaVuSans-Bold-6d" transform="translate(717.773438 0)"/>
     <use xlink:href="#DejaVuSans-Bold-65" transform="translate(821.972656 0)"/>
     <use xlink:href="#DejaVuSans-Bold-2d" transform="translate(889.794922 0)"/>
     <use xlink:href="#DejaVuSans-Bold-73" transform="translate(931.298828 0)"/>
     <use xlink:href="#DejaVuSans-Bold-63" transform="translate(990.820312 0)"/>
     <use xlink:href="#DejaVuSans-Bold-61" transform="translate(1050.097656 0)"/>
     <use xlink:href="#DejaVuSans-Bold-6c" transform="translate(1117.578125 0)"/>
     <use xlink:href="#DejaVuSans-Bold-61" transform="translate(1151.855469 0)"/>
     <use xlink:href="#DejaVuSans-Bold-72" transform="translate(1219.335938 0)"/>
     <use xlink:href="#DejaVuSans-Bold-20" transform="translate(1268.652344 0)"/>
     <use xlink:href="#DejaVuSans-Bold-6d" transform="translate(1303.466797 0)"/>
     <use xlink:href="#DejaVuSans-Bold-61" transform="translate(1407.666016 0)"/>
     <use xlink:href="#DejaVuSans-Bold-73" transform="translate(1475.146484 0)"/>
     <use xlink:href="#DejaVuSans-Bold-73" transform="translate(1534.667969 0)"/>
     <use xlink:href="#DejaVuSans-Bold-20" transform="translate(1594.189453 0)"/>
     <use xlink:href="#DejaVuSans-Bold-70" transform="translate(1629.003906 0)"/>
     <use xlink:href="#DejaVuSans-Bold-69" transform="translate(1700.585938 0)"/>
     <use xlink:href="#DejaVuSans-Bold-70" transform="translate(1734.863281 0)"/>
     <use xlink:href="#DejaVuSans-Bold-65" transform="translate(1806.445312 0)"/>
     <use xlink:href="#DejaVuSans-Bold-6c" transform="translate(1874.267578 0)"/>
     <use xlink:href="#DejaVuSans-Bold-69" transform="translate(1908.544922 0)"/>
     <use xlink:href="#DejaVuSans-Bold-6e" transform="translate(1942.822266 0)"/>
     <use xlink:href="#DejaVuSans-Bold-65" transform="translate(2014.013672 0)"/>
    </g>
   </g>
   <g id="patch_9">
    <path d="M 39.844928 126.990272 
L 142.091072 126.990272 
Q 144.836672 126.990272 144.836672 124.244672 
L 144.836672 74.164928 
Q 144.836672 71.419328 142.091072 71.419328 
L 39.844928 71.419328 
Q 37.099328 71.419328 37.099328 74.164928 
L 37.099328 124.244672 
Q 37.099328 126.990272 39.844928 126.990272 
z
" clip-path="url(#p9fc025f145)" style="fill: #0b1020; opacity: 0.16"/>
    <path d="M 38.444928 125.590272 
L 140.691072 125.590272 
Q 143.436672 125.590272 143.436672 122.844672 
L 143.436672 72.764928 
Q 143.436672 70.019328 140.691072 70.019328 
L 38.444928 70.019328 
Q 35.699328 70.019328 35.699328 72.764928 
L 35.699328 122.844672 
Q 35.699328 125.590272 38.444928 125.590272 
z
" clip-path="url(#p9fc025f145)" style="fill: #eef2f7; stroke: #334155; stroke-width: 1.6; stroke-linejoin: miter"/>
   </g>
   <g id="patch_10">
    <path d="M 201.835328 126.990272 
L 331.537472 126.990272 
Q 334.283072 126.990272 334.283072 124.244672 
L 334.283072 74.164928 
Q 334.283072 71.419328 331.537472 71.419328 
L 201.835328 71.419328 
Q 199.089728 71.419328 199.089728 74.164928 
L 199.089728 124.244672 
Q 199.089728 126.990272 201.835328 126.990272 
z
" clip-path="url(#p9fc025f145)" style="fill: #0b1020; opacity: 0.16"/>
    <path d="M 200.435328 125.590272 
L 330.137472 125.590272 
Q 332.883072 125.590272 332.883072 122.844672 
L 332.883072 72.764928 
Q 332.883072 70.019328 330.137472 70.019328 
L 200.435328 70.019328 
Q 197.689728 70.019328 197.689728 72.764928 
L 197.689728 122.844672 
Q 197.689728 125.590272 200.435328 125.590272 
z
" clip-path="url(#p9fc025f145)" style="fill: #e7eaff; stroke: #3b4ab0; stroke-width: 1.6; stroke-linejoin: miter"/>
   </g>
   <g id="patch_11">
    <path d="M 392.654528 120.126272 
L 459.207872 120.126272 
Q 461.953472 120.126272 461.953472 117.380672 
L 461.953472 81.028928 
Q 461.953472 78.283328 459.207872 78.283328 
L 392.654528 78.283328 
Q 389.908928 78.283328 389.908928 81.028928 
L 389.908928 117.380672 
Q 389.908928 120.126272 392.654528 120.126272 
z
" clip-path="url(#p9fc025f145)" style="fill: #0b1020; opacity: 0.16"/>
    <path d="M 391.254528 118.726272 
L 457.807872 118.726272 
Q 460.553472 118.726272 460.553472 115.980672 
L 460.553472 79.628928 
Q 460.553472 76.883328 457.807872 76.883328 
L 391.254528 76.883328 
Q 388.508928 76.883328 388.508928 79.628928 
L 388.508928 115.980672 
Q 388.508928 118.726272 391.254528 118.726272 
z
" clip-path="url(#p9fc025f145)" style="fill: #fdeadd; stroke: #c2410c; stroke-width: 1.6; stroke-linejoin: miter"/>
   </g>
   <g id="patch_12">
    <path d="M 39.844928 242.305472 
L 142.091072 242.305472 
Q 144.836672 242.305472 144.836672 239.559872 
L 144.836672 189.480128 
Q 144.836672 186.734528 142.091072 186.734528 
L 39.844928 186.734528 
Q 37.099328 186.734528 37.099328 189.480128 
L 37.099328 239.559872 
Q 37.099328 242.305472 39.844928 242.305472 
z
" clip-path="url(#p9fc025f145)" style="fill: #0b1020; opacity: 0.16"/>
    <path d="M 38.444928 240.905472 
L 140.691072 240.905472 
Q 143.436672 240.905472 143.436672 238.159872 
L 143.436672 188.080128 
Q 143.436672 185.334528 140.691072 185.334528 
L 38.444928 185.334528 
Q 35.699328 185.334528 35.699328 188.080128 
L 35.699328 238.159872 
Q 35.699328 240.905472 38.444928 240.905472 
z
" clip-path="url(#p9fc025f145)" style="fill: #eef2f7; stroke: #334155; stroke-width: 1.6; stroke-linejoin: miter"/>
   </g>
   <g id="patch_13">
    <path d="M 194.971328 242.305472 
L 338.401472 242.305472 
Q 341.147072 242.305472 341.147072 239.559872 
L 341.147072 189.480128 
Q 341.147072 186.734528 338.401472 186.734528 
L 194.971328 186.734528 
Q 192.225728 186.734528 192.225728 189.480128 
L 192.225728 239.559872 
Q 192.225728 242.305472 194.971328 242.305472 
z
" clip-path="url(#p9fc025f145)" style="fill: #0b1020; opacity: 0.16"/>
    <path d="M 193.571328 240.905472 
L 337.001472 240.905472 
Q 339.747072 240.905472 339.747072 238.159872 
L 339.747072 188.080128 
Q 339.747072 185.334528 337.001472 185.334528 
L 193.571328 185.334528 
Q 190.825728 185.334528 190.825728 188.080128 
L 190.825728 238.159872 
Q 190.825728 240.905472 193.571328 240.905472 
z
" clip-path="url(#p9fc025f145)" style="fill: #e3f5e8; stroke: #15803d; stroke-width: 1.6; stroke-linejoin: miter"/>
   </g>
   <g id="patch_14">
    <path d="M 392.654528 235.441472 
L 459.207872 235.441472 
Q 461.953472 235.441472 461.953472 232.695872 
L 461.953472 196.344128 
Q 461.953472 193.598528 459.207872 193.598528 
L 392.654528 193.598528 
Q 389.908928 193.598528 389.908928 196.344128 
L 389.908928 232.695872 
Q 389.908928 235.441472 392.654528 235.441472 
z
" clip-path="url(#p9fc025f145)" style="fill: #0b1020; opacity: 0.16"/>
    <path d="M 391.254528 234.041472 
L 457.807872 234.041472 
Q 460.553472 234.041472 460.553472 231.295872 
L 460.553472 194.944128 
Q 460.553472 192.198528 457.807872 192.198528 
L 391.254528 192.198528 
Q 388.508928 192.198528 388.508928 194.944128 
L 388.508928 231.295872 
Q 388.508928 234.041472 391.254528 234.041472 
z
" clip-path="url(#p9fc025f145)" style="fill: #fdeadd; stroke: #c2410c; stroke-width: 1.6; stroke-linejoin: miter"/>
   </g>
   <g id="patch_15">
    <path d="M 612.302528 181.902272 
L 689.838272 181.902272 
Q 692.583872 181.902272 692.583872 179.156672 
L 692.583872 134.568128 
Q 692.583872 131.822528 689.838272 131.822528 
L 612.302528 131.822528 
Q 609.556928 131.822528 609.556928 134.568128 
L 609.556928 179.156672 
Q 609.556928 181.902272 612.302528 181.902272 
z
" clip-path="url(#p9fc025f145)" style="fill: #0b1020; opacity: 0.16"/>
    <path d="M 610.902528 180.502272 
L 688.438272 180.502272 
Q 691.183872 180.502272 691.183872 177.756672 
L 691.183872 133.168128 
Q 691.183872 130.422528 688.438272 130.422528 
L 610.902528 130.422528 
Q 608.156928 130.422528 608.156928 133.168128 
L 608.156928 177.756672 
Q 608.156928 180.502272 610.902528 180.502272 
z
" clip-path="url(#p9fc025f145)" style="fill: #fde2e2; stroke: #b91c1c; stroke-width: 1.6; stroke-linejoin: miter"/>
   </g>
   <g id="text_2">
    <!-- Overhead RGB -->
    <g style="fill: #334155" transform="translate(44.713781 91.505073) scale(0.11 -0.11)">
     <defs>
      <path id="DejaVuSans-Bold-4f" d="M 2719 3878 
Q 2169 3878 1866 3472 
Q 1563 3066 1563 2328 
Q 1563 1594 1866 1187 
Q 2169 781 2719 781 
Q 3272 781 3575 1187 
Q 3878 1594 3878 2328 
Q 3878 3066 3575 3472 
Q 3272 3878 2719 3878 
z
M 2719 4750 
Q 3844 4750 4481 4106 
Q 5119 3463 5119 2328 
Q 5119 1197 4481 553 
Q 3844 -91 2719 -91 
Q 1597 -91 958 553 
Q 319 1197 319 2328 
Q 319 3463 958 4106 
Q 1597 4750 2719 4750 
z
" transform="scale(0.015625)"/>
      <path id="DejaVuSans-Bold-68" d="M 4056 2131 
L 4056 0 
L 2931 0 
L 2931 347 
L 2931 1625 
Q 2931 2084 2911 2256 
Q 2891 2428 2841 2509 
Q 2775 2619 2662 2680 
Q 2550 2741 2406 2741 
Q 2056 2741 1856 2470 
Q 1656 2200 1656 1722 
L 1656 0 
L 538 0 
L 538 4863 
L 1656 4863 
L 1656 2988 
Q 1909 3294 2193 3439 
Q 2478 3584 2822 3584 
Q 3428 3584 3742 3212 
Q 4056 2841 4056 2131 
z
" transform="scale(0.015625)"/>
      <path id="DejaVuSans-Bold-64" d="M 2919 2988 
L 2919 4863 
L 4044 4863 
L 4044 0 
L 2919 0 
L 2919 506 
Q 2688 197 2409 53 
Q 2131 -91 1766 -91 
Q 1119 -91 703 423 
Q 288 938 288 1747 
Q 288 2556 703 3070 
Q 1119 3584 1766 3584 
Q 2128 3584 2408 3439 
Q 2688 3294 2919 2988 
z
M 2181 722 
Q 2541 722 2730 984 
Q 2919 1247 2919 1747 
Q 2919 2247 2730 2509 
Q 2541 2772 2181 2772 
Q 1825 2772 1636 2509 
Q 1447 2247 1447 1747 
Q 1447 1247 1636 984 
Q 1825 722 2181 722 
z
" transform="scale(0.015625)"/>
      <path id="DejaVuSans-Bold-52" d="M 2297 2597 
Q 2675 2597 2839 2737 
Q 3003 2878 3003 3200 
Q 3003 3519 2839 3656 
Q 2675 3794 2297 3794 
L 1791 3794 
L 1791 2597 
L 2297 2597 
z
M 1791 1766 
L 1791 0 
L 588 0 
L 588 4666 
L 2425 4666 
Q 3347 4666 3776 4356 
Q 4206 4047 4206 3378 
Q 4206 2916 3982 2619 
Q 3759 2322 3309 2181 
Q 3556 2125 3751 1926 
Q 3947 1728 4147 1325 
L 4800 0 
L 3519 0 
L 2950 1159 
Q 2778 1509 2601 1637 
Q 2425 1766 2131 1766 
L 1791 1766 
z
" transform="scale(0.015625)"/>
      <path id="DejaVuSans-Bold-47" d="M 4781 347 
Q 4331 128 3847 18 
Q 3363 -91 2847 -91 
Q 1681 -91 1000 561 
Q 319 1213 319 2328 
Q 319 3456 1012 4103 
Q 1706 4750 2913 4750 
Q 3378 4750 3804 4662 
Q 4231 4575 4609 4403 
L 4609 3438 
Q 4219 3659 3833 3768 
Q 3447 3878 3059 3878 
Q 2341 3878 1952 3476 
Q 1563 3075 1563 2328 
Q 1563 1588 1938 1184 
Q 2313 781 3003 781 
Q 3191 781 3352 804 
Q 3513 828 3641 878 
L 3641 1784 
L 2906 1784 
L 2906 2591 
L 4781 2591 
L 4781 347 
z
" transform="scale(0.015625)"/>
      <path id="DejaVuSans-Bold-42" d="M 2456 2859 
Q 2741 2859 2887 2984 
Q 3034 3109 3034 3353 
Q 3034 3594 2887 3720 
Q 2741 3847 2456 3847 
L 1791 3847 
L 1791 2859 
L 2456 2859 
z
M 2497 819 
Q 2859 819 3042 972 
Q 3225 1125 3225 1434 
Q 3225 1738 3044 1889 
Q 2863 2041 2497 2041 
L 1791 2041 
L 1791 819 
L 2497 819 
z
M 3616 2497 
Q 4003 2384 4215 2081 
Q 4428 1778 4428 1338 
Q 4428 663 3972 331 
Q 3516 0 2584 0 
L 588 0 
L 588 4666 
L 2394 4666 
Q 3366 4666 3802 4372 
Q 4238 4078 4238 3431 
Q 4238 3091 4078 2852 
Q 3919 2613 3616 2497 
z
" transform="scale(0.015625)"/>
     </defs>
     <use xlink:href="#DejaVuSans-Bold-4f"/>
     <use xlink:href="#DejaVuSans-Bold-76" transform="translate(85.009766 0)"/>
     <use xlink:href="#DejaVuSans-Bold-65" transform="translate(150.195312 0)"/>
     <use xlink:href="#DejaVuSans-Bold-72" transform="translate(218.017578 0)"/>
     <use xlink:href="#DejaVuSans-Bold-68" transform="translate(267.333984 0)"/>
     <use xlink:href="#DejaVuSans-Bold-65" transform="translate(338.525391 0)"/>
     <use xlink:href="#DejaVuSans-Bold-61" transform="translate(406.347656 0)"/>
     <use xlink:href="#DejaVuSans-Bold-64" transform="translate(473.828125 0)"/>
     <use xlink:href="#DejaVuSans-Bold-20" transform="translate(545.410156 0)"/>
     <use xlink:href="#DejaVuSans-Bold-52" transform="translate(580.224609 0)"/>
     <use xlink:href="#DejaVuSans-Bold-47" transform="translate(657.226562 0)"/>
     <use xlink:href="#DejaVuSans-Bold-42" transform="translate(739.306641 0)"/>
    </g>
   </g>
   <g id="text_3">
    <!-- + volume scalar -->
    <g style="fill: #6b7280" transform="translate(52.831828 114.016238) scale(0.09 -0.09)">
     <defs>
      <path id="DejaVuSans-2b" d="M 2944 4013 
L 2944 2272 
L 4684 2272 
L 4684 1741 
L 2944 1741 
L 2944 0 
L 2419 0 
L 2419 1741 
L 678 1741 
L 678 2272 
L 2419 2272 
L 2419 4013 
L 2944 4013 
z
" transform="scale(0.015625)"/>
      <path id="DejaVuSans-20" transform="scale(0.015625)"/>
      <path id="DejaVuSans-76" d="M 191 3500 
L 800 3500 
L 1894 563 
L 2988 3500 
L 3597 3500 
L 2284 0 
L 1503 0 
L 191 3500 
z
" transform="scale(0.015625)"/>
      <path id="DejaVuSans-6f" d="M 1959 3097 
Q 1497 3097 1228 2736 
Q 959 2375 959 1747 
Q 959 1119 1226 758 
Q 1494 397 1959 397 
Q 2419 397 2687 759 
Q 2956 1122 2956 1747 
Q 2956 2369 2687 2733 
Q 2419 3097 1959 3097 
z
M 1959 3584 
Q 2709 3584 3137 3096 
Q 3566 2609 3566 1747 
Q 3566 888 3137 398 
Q 2709 -91 1959 -91 
Q 1206 -91 779 398 
Q 353 888 353 1747 
Q 353 2609 779 3096 
Q 1206 3584 1959 3584 
z
" transform="scale(0.015625)"/>
      <path id="DejaVuSans-6c" d="M 603 4863 
L 1178 4863 
L 1178 0 
L 603 0 
L 603 4863 
z
" transform="scale(0.015625)"/>
      <path id="DejaVuSans-75" d="M 544 1381 
L 544 3500 
L 1119 3500 
L 1119 1403 
Q 1119 906 1312 657 
Q 1506 409 1894 409 
Q 2359 409 2629 706 
Q 2900 1003 2900 1516 
L 2900 3500 
L 3475 3500 
L 3475 0 
L 2900 0 
L 2900 538 
Q 2691 219 2414 64 
Q 2138 -91 1772 -91 
Q 1169 -91 856 284 
Q 544 659 544 1381 
z
M 1991 3584 
L 1991 3584 
z
" transform="scale(0.015625)"/>
      <path id="DejaVuSans-6d" d="M 3328 2828 
Q 3544 3216 3844 3400 
Q 4144 3584 4550 3584 
Q 5097 3584 5394 3201 
Q 5691 2819 5691 2113 
L 5691 0 
L 5113 0 
L 5113 2094 
Q 5113 2597 4934 2840 
Q 4756 3084 4391 3084 
Q 3944 3084 3684 2787 
Q 3425 2491 3425 1978 
L 3425 0 
L 2847 0 
L 2847 2094 
Q 2847 2600 2669 2842 
Q 2491 3084 2119 3084 
Q 1678 3084 1418 2786 
Q 1159 2488 1159 1978 
L 1159 0 
L 581 0 
L 581 3500 
L 1159 3500 
L 1159 2956 
Q 1356 3278 1631 3431 
Q 1906 3584 2284 3584 
Q 2666 3584 2933 3390 
Q 3200 3197 3328 2828 
z
" transform="scale(0.015625)"/>
      <path id="DejaVuSans-65" d="M 3597 1894 
L 3597 1613 
L 953 1613 
Q 991 1019 1311 708 
Q 1631 397 2203 397 
Q 2534 397 2845 478 
Q 3156 559 3463 722 
L 3463 178 
Q 3153 47 2828 -22 
Q 2503 -91 2169 -91 
Q 1331 -91 842 396 
Q 353 884 353 1716 
Q 353 2575 817 3079 
Q 1281 3584 2069 3584 
Q 2775 3584 3186 3129 
Q 3597 2675 3597 1894 
z
M 3022 2063 
Q 3016 2534 2758 2815 
Q 2500 3097 2075 3097 
Q 1594 3097 1305 2825 
Q 1016 2553 972 2059 
L 3022 2063 
z
" transform="scale(0.015625)"/>
      <path id="DejaVuSans-73" d="M 2834 3397 
L 2834 2853 
Q 2591 2978 2328 3040 
Q 2066 3103 1784 3103 
Q 1356 3103 1142 2972 
Q 928 2841 928 2578 
Q 928 2378 1081 2264 
Q 1234 2150 1697 2047 
L 1894 2003 
Q 2506 1872 2764 1633 
Q 3022 1394 3022 966 
Q 3022 478 2636 193 
Q 2250 -91 1575 -91 
Q 1294 -91 989 -36 
Q 684 19 347 128 
L 347 722 
Q 666 556 975 473 
Q 1284 391 1588 391 
Q 1994 391 2212 530 
Q 2431 669 2431 922 
Q 2431 1156 2273 1281 
Q 2116 1406 1581 1522 
L 1381 1569 
Q 847 1681 609 1914 
Q 372 2147 372 2553 
Q 372 3047 722 3315 
Q 1072 3584 1716 3584 
Q 2034 3584 2315 3537 
Q 2597 3491 2834 3397 
z
" transform="scale(0.015625)"/>
      <path id="DejaVuSans-63" d="M 3122 3366 
L 3122 2828 
Q 2878 2963 2633 3030 
Q 2388 3097 2138 3097 
Q 1578 3097 1268 2742 
Q 959 2388 959 1747 
Q 959 1106 1268 751 
Q 1578 397 2138 397 
Q 2388 397 2633 464 
Q 2878 531 3122 666 
L 3122 134 
Q 2881 22 2623 -34 
Q 2366 -91 2075 -91 
Q 1284 -91 818 406 
Q 353 903 353 1747 
Q 353 2603 823 3093 
Q 1294 3584 2113 3584 
Q 2378 3584 2631 3529 
Q 2884 3475 3122 3366 
z
" transform="scale(0.015625)"/>
      <path id="DejaVuSans-61" d="M 2194 1759 
Q 1497 1759 1228 1600 
Q 959 1441 959 1056 
Q 959 750 1161 570 
Q 1363 391 1709 391 
Q 2188 391 2477 730 
Q 2766 1069 2766 1631 
L 2766 1759 
L 2194 1759 
z
M 3341 1997 
L 3341 0 
L 2766 0 
L 2766 531 
Q 2569 213 2275 61 
Q 1981 -91 1556 -91 
Q 1019 -91 701 211 
Q 384 513 384 1019 
Q 384 1609 779 1909 
Q 1175 2209 1959 2209 
L 2766 2209 
L 2766 2266 
Q 2766 2663 2505 2880 
Q 2244 3097 1772 3097 
Q 1472 3097 1187 3025 
Q 903 2953 641 2809 
L 641 3341 
Q 956 3463 1253 3523 
Q 1550 3584 1831 3584 
Q 2591 3584 2966 3190 
Q 3341 2797 3341 1997 
z
" transform="scale(0.015625)"/>
      <path id="DejaVuSans-72" d="M 2631 2963 
Q 2534 3019 2420 3045 
Q 2306 3072 2169 3072 
Q 1681 3072 1420 2755 
Q 1159 2438 1159 1844 
L 1159 0 
L 581 0 
L 581 3500 
L 1159 3500 
L 1159 2956 
Q 1341 3275 1631 3429 
Q 1922 3584 2338 3584 
Q 2397 3584 2469 3576 
Q 2541 3569 2628 3553 
L 2631 2963 
z
" transform="scale(0.015625)"/>
     </defs>
     <use xlink:href="#DejaVuSans-2b"/>
     <use xlink:href="#DejaVuSans-20" transform="translate(83.789062 0)"/>
     <use xlink:href="#DejaVuSans-76" transform="translate(115.576172 0)"/>
     <use xlink:href="#DejaVuSans-6f" transform="translate(174.755859 0)"/>
     <use xlink:href="#DejaVuSans-6c" transform="translate(235.9375 0)"/>
     <use xlink:href="#DejaVuSans-75" transform="translate(263.720703 0)"/>
     <use xlink:href="#DejaVuSans-6d" transform="translate(327.099609 0)"/>
     <use xlink:href="#DejaVuSans-65" transform="translate(424.511719 0)"/>
     <use xlink:href="#DejaVuSans-20" transform="translate(486.035156 0)"/>
     <use xlink:href="#DejaVuSans-73" transform="translate(517.822266 0)"/>
     <use xlink:href="#DejaVuSans-63" transform="translate(569.921875 0)"/>
     <use xlink:href="#DejaVuSans-61" transform="translate(624.902344 0)"/>
     <use xlink:href="#DejaVuSans-6c" transform="translate(686.181641 0)"/>
     <use xlink:href="#DejaVuSans-61" transform="translate(713.964844 0)"/>
     <use xlink:href="#DejaVuSans-72" transform="translate(775.244141 0)"/>
    </g>
   </g>
   <g id="text_4">
    <!-- MassRegressor -->
    <g style="fill: #3b4ab0" transform="translate(211.747338 91.821323) scale(0.125 -0.125)">
     <defs>
      <path id="DejaVuSans-Bold-4d" d="M 588 4666 
L 2119 4666 
L 3181 2169 
L 4250 4666 
L 5778 4666 
L 5778 0 
L 4641 0 
L 4641 3413 
L 3566 897 
L 2803 897 
L 1728 3413 
L 1728 0 
L 588 0 
L 588 4666 
z
" transform="scale(0.015625)"/>
      <path id="DejaVuSans-Bold-67" d="M 2919 594 
Q 2688 288 2409 144 
Q 2131 0 1766 0 
Q 1125 0 706 504 
Q 288 1009 288 1791 
Q 288 2575 706 3076 
Q 1125 3578 1766 3578 
Q 2131 3578 2409 3434 
Q 2688 3291 2919 2981 
L 2919 3500 
L 4044 3500 
L 4044 353 
Q 4044 -491 3511 -936 
Q 2978 -1381 1966 -1381 
Q 1638 -1381 1331 -1331 
Q 1025 -1281 716 -1178 
L 716 -306 
Q 1009 -475 1290 -558 
Q 1572 -641 1856 -641 
Q 2406 -641 2662 -400 
Q 2919 -159 2919 353 
L 2919 594 
z
M 2181 2772 
Q 1834 2772 1640 2515 
Q 1447 2259 1447 1791 
Q 1447 1309 1634 1061 
Q 1822 813 2181 813 
Q 2531 813 2725 1069 
Q 2919 1325 2919 1791 
Q 2919 2259 2725 2515 
Q 2531 2772 2181 2772 
z
" transform="scale(0.015625)"/>
     </defs>
     <use xlink:href="#DejaVuSans-Bold-4d"/>
     <use xlink:href="#DejaVuSans-Bold-61" transform="translate(99.511719 0)"/>
     <use xlink:href="#DejaVuSans-Bold-73" transform="translate(166.992188 0)"/>
     <use xlink:href="#DejaVuSans-Bold-73" transform="translate(226.513672 0)"/>
     <use xlink:href="#DejaVuSans-Bold-52" transform="translate(286.035156 0)"/>
     <use xlink:href="#DejaVuSans-Bold-65" transform="translate(363.037109 0)"/>
     <use xlink:href="#DejaVuSans-Bold-67" transform="translate(430.859375 0)"/>
     <use xlink:href="#DejaVuSans-Bold-72" transform="translate(502.441406 0)"/>
     <use xlink:href="#DejaVuSans-Bold-65" transform="translate(551.757812 0)"/>
     <use xlink:href="#DejaVuSans-Bold-73" transform="translate(619.580078 0)"/>
     <use xlink:href="#DejaVuSans-Bold-73" transform="translate(679.101562 0)"/>
     <use xlink:href="#DejaVuSans-Bold-6f" transform="translate(738.623047 0)"/>
     <use xlink:href="#DejaVuSans-Bold-72" transform="translate(807.324219 0)"/>
    </g>
   </g>
   <g id="text_5">
    <!-- InceptionV3 ⊕ volume → FC -->
    <g style="fill: #6b7280" transform="translate(202.782103 114.016238) scale(0.09 -0.09)">
     <defs>
      <path id="DejaVuSans-49" d="M 628 4666 
L 1259 4666 
L 1259 0 
L 628 0 
L 628 4666 
z
" transform="scale(0.015625)"/>
      <path id="DejaVuSans-6e" d="M 3513 2113 
L 3513 0 
L 2938 0 
L 2938 2094 
Q 2938 2591 2744 2837 
Q 2550 3084 2163 3084 
Q 1697 3084 1428 2787 
Q 1159 2491 1159 1978 
L 1159 0 
L 581 0 
L 581 3500 
L 1159 3500 
L 1159 2956 
Q 1366 3272 1645 3428 
Q 1925 3584 2291 3584 
Q 2894 3584 3203 3211 
Q 3513 2838 3513 2113 
z
" transform="scale(0.015625)"/>
      <path id="DejaVuSans-70" d="M 1159 525 
L 1159 -1331 
L 581 -1331 
L 581 3500 
L 1159 3500 
L 1159 2969 
Q 1341 3281 1617 3432 
Q 1894 3584 2278 3584 
Q 2916 3584 3314 3078 
Q 3713 2572 3713 1747 
Q 3713 922 3314 415 
Q 2916 -91 2278 -91 
Q 1894 -91 1617 61 
Q 1341 213 1159 525 
z
M 3116 1747 
Q 3116 2381 2855 2742 
Q 2594 3103 2138 3103 
Q 1681 3103 1420 2742 
Q 1159 2381 1159 1747 
Q 1159 1113 1420 752 
Q 1681 391 2138 391 
Q 2594 391 2855 752 
Q 3116 1113 3116 1747 
z
" transform="scale(0.015625)"/>
      <path id="DejaVuSans-74" d="M 1172 4494 
L 1172 3500 
L 2356 3500 
L 2356 3053 
L 1172 3053 
L 1172 1153 
Q 1172 725 1289 603 
Q 1406 481 1766 481 
L 2356 481 
L 2356 0 
L 1766 0 
Q 1100 0 847 248 
Q 594 497 594 1153 
L 594 3053 
L 172 3053 
L 172 3500 
L 594 3500 
L 594 4494 
L 1172 4494 
z
" transform="scale(0.015625)"/>
      <path id="DejaVuSans-69" d="M 603 3500 
L 1178 3500 
L 1178 0 
L 603 0 
L 603 3500 
z
M 603 4863 
L 1178 4863 
L 1178 4134 
L 603 4134 
L 603 4863 
z
" transform="scale(0.015625)"/>
      <path id="DejaVuSans-56" d="M 1831 0 
L 50 4666 
L 709 4666 
L 2188 738 
L 3669 4666 
L 4325 4666 
L 2547 0 
L 1831 0 
z
" transform="scale(0.015625)"/>
      <path id="DejaVuSans-33" d="M 2597 2516 
Q 3050 2419 3304 2112 
Q 3559 1806 3559 1356 
Q 3559 666 3084 287 
Q 2609 -91 1734 -91 
Q 1441 -91 1130 -33 
Q 819 25 488 141 
L 488 750 
Q 750 597 1062 519 
Q 1375 441 1716 441 
Q 2309 441 2620 675 
Q 2931 909 2931 1356 
Q 2931 1769 2642 2001 
Q 2353 2234 1838 2234 
L 1294 2234 
L 1294 2753 
L 1863 2753 
Q 2328 2753 2575 2939 
Q 2822 3125 2822 3475 
Q 2822 3834 2567 4026 
Q 2313 4219 1838 4219 
Q 1578 4219 1281 4162 
Q 984 4106 628 3988 
L 628 4550 
Q 988 4650 1302 4700 
Q 1616 4750 1894 4750 
Q 2613 4750 3031 4423 
Q 3450 4097 3450 3541 
Q 3450 3153 3228 2886 
Q 3006 2619 2597 2516 
z
" transform="scale(0.015625)"/>
      <path id="DejaVuSans-2295" d="M 3306 3522 
Q 3016 3644 2681 3644 
Q 2347 3644 2056 3522 
Q 1769 3400 1531 3163 
Q 1291 2922 1172 2634 
Q 1053 2347 1053 2006 
Q 1053 1675 1172 1387 
Q 1291 1100 1531 859 
Q 1769 622 2056 500 
Q 2347 378 2681 378 
Q 3016 378 3306 500 
Q 3594 622 3831 859 
Q 4072 1100 4190 1387 
Q 4309 1675 4309 2006 
Q 4309 2347 4190 2634 
Q 4072 2922 3831 3163 
Q 3594 3400 3306 3522 
z
M 1878 3956 
Q 2250 4113 2681 4113 
Q 3113 4113 3484 3956 
Q 3856 3800 4163 3494 
Q 4472 3184 4625 2813 
Q 4778 2444 4778 2006 
Q 4778 1578 4625 1206 
Q 4472 838 4163 528 
Q 3856 222 3484 65 
Q 3113 -91 2681 -91 
Q 2250 -91 1878 65 
Q 1506 222 1200 528 
Q 891 838 738 1206 
Q 584 1578 584 2006 
Q 584 2444 738 2813 
Q 891 3184 1200 3494 
Q 1506 3800 1878 3956 
z
M 2947 3388 
L 2947 2272 
L 4059 2272 
L 4059 1741 
L 2947 1741 
L 2947 625 
L 2416 625 
L 2416 1741 
L 1303 1741 
L 1303 2272 
L 2416 2272 
L 2416 3388 
L 2947 3388 
z
" transform="scale(0.015625)"/>
      <path id="DejaVuSans-2192" d="M 5050 2147 
L 5050 1866 
L 3822 638 
L 3447 1013 
L 4175 1741 
L 366 1741 
L 366 2272 
L 4175 2272 
L 3447 3000 
L 3822 3375 
L 5050 2147 
z
" transform="scale(0.015625)"/>
      <path id="DejaVuSans-46" d="M 628 4666 
L 3309 4666 
L 3309 4134 
L 1259 4134 
L 1259 2759 
L 3109 2759 
L 3109 2228 
L 1259 2228 
L 1259 0 
L 628 0 
L 628 4666 
z
" transform="scale(0.015625)"/>
      <path id="DejaVuSans-43" d="M 4122 4306 
L 4122 3641 
Q 3803 3938 3442 4084 
Q 3081 4231 2675 4231 
Q 1875 4231 1450 3742 
Q 1025 3253 1025 2328 
Q 1025 1406 1450 917 
Q 1875 428 2675 428 
Q 3081 428 3442 575 
Q 3803 722 4122 1019 
L 4122 359 
Q 3791 134 3420 21 
Q 3050 -91 2638 -91 
Q 1578 -91 968 557 
Q 359 1206 359 2328 
Q 359 3453 968 4101 
Q 1578 4750 2638 4750 
Q 3056 4750 3426 4639 
Q 3797 4528 4122 4306 
z
" transform="scale(0.015625)"/>
     </defs>
     <use xlink:href="#DejaVuSans-49"/>
     <use xlink:href="#DejaVuSans-6e" transform="translate(29.492188 0)"/>
     <use xlink:href="#DejaVuSans-63" transform="translate(92.871094 0)"/>
     <use xlink:href="#DejaVuSans-65" transform="translate(147.851562 0)"/>
     <use xlink:href="#DejaVuSans-70" transform="translate(209.375 0)"/>
     <use xlink:href="#DejaVuSans-74" transform="translate(272.851562 0)"/>
     <use xlink:href="#DejaVuSans-69" transform="translate(312.060547 0)"/>
     <use xlink:href="#DejaVuSans-6f" transform="translate(339.84375 0)"/>
     <use xlink:href="#DejaVuSans-6e" transform="translate(401.025391 0)"/>
     <use xlink:href="#DejaVuSans-56" transform="translate(464.404297 0)"/>
     <use xlink:href="#DejaVuSans-33" transform="translate(532.8125 0)"/>
     <use xlink:href="#DejaVuSans-20" transform="translate(596.435547 0)"/>
     <use xlink:href="#DejaVuSans-2295" transform="translate(628.222656 0)"/>
     <use xlink:href="#DejaVuSans-20" transform="translate(712.011719 0)"/>
     <use xlink:href="#DejaVuSans-76" transform="translate(743.798828 0)"/>
     <use xlink:href="#DejaVuSans-6f" transform="translate(802.978516 0)"/>
     <use xlink:href="#DejaVuSans-6c" transform="translate(864.160156 0)"/>
     <use xlink:href="#DejaVuSans-75" transform="translate(891.943359 0)"/>
     <use xlink:href="#DejaVuSans-6d" transform="translate(955.322266 0)"/>
     <use xlink:href="#DejaVuSans-65" transform="translate(1052.734375 0)"/>
     <use xlink:href="#DejaVuSans-20" transform="translate(1114.257812 0)"/>
     <use xlink:href="#DejaVuSans-2192" transform="translate(1146.044922 0)"/>
     <use xlink:href="#DejaVuSans-20" transform="translate(1229.833984 0)"/>
     <use xlink:href="#DejaVuSans-46" transform="translate(1261.621094 0)"/>
     <use xlink:href="#DejaVuSans-43" transform="translate(1319.140625 0)"/>
    </g>
   </g>
   <g id="text_6">
    <!-- Mass -->
    <g style="fill: #c2410c" transform="translate(408.084403 93.976801) scale(0.115 -0.115)">
     <use xlink:href="#DejaVuSans-Bold-4d"/>
     <use xlink:href="#DejaVuSans-Bold-61" transform="translate(99.511719 0)"/>
     <use xlink:href="#DejaVuSans-Bold-73" transform="translate(166.992188 0)"/>
     <use xlink:href="#DejaVuSans-Bold-73" transform="translate(226.513672 0)"/>
    </g>
   </g>
   <g id="text_7">
    <!-- ĝ (grams) -->
    <g style="fill: #6b7280" transform="translate(402.540966 110.764237) scale(0.09 -0.09)">
     <defs>
      <path id="DejaVuSans-11d" d="M 1697 5119 
L 2159 5119 
L 2925 3944 
L 2491 3944 
L 1928 4709 
L 1366 3944 
L 931 3944 
L 1697 5119 
z
M 2906 1791 
Q 2906 2416 2648 2759 
Q 2391 3103 1925 3103 
Q 1463 3103 1205 2759 
Q 947 2416 947 1791 
Q 947 1169 1205 825 
Q 1463 481 1925 481 
Q 2391 481 2648 825 
Q 2906 1169 2906 1791 
z
M 3481 434 
Q 3481 -459 3084 -895 
Q 2688 -1331 1869 -1331 
Q 1566 -1331 1297 -1286 
Q 1028 -1241 775 -1147 
L 775 -588 
Q 1028 -725 1275 -790 
Q 1522 -856 1778 -856 
Q 2344 -856 2625 -561 
Q 2906 -266 2906 331 
L 2906 616 
Q 2728 306 2450 153 
Q 2172 0 1784 0 
Q 1141 0 747 490 
Q 353 981 353 1791 
Q 353 2603 747 3093 
Q 1141 3584 1784 3584 
Q 2172 3584 2450 3431 
Q 2728 3278 2906 2969 
L 2906 3500 
L 3481 3500 
L 3481 434 
z
" transform="scale(0.015625)"/>
      <path id="DejaVuSans-28" d="M 1984 4856 
Q 1566 4138 1362 3434 
Q 1159 2731 1159 2009 
Q 1159 1288 1364 580 
Q 1569 -128 1984 -844 
L 1484 -844 
Q 1016 -109 783 600 
Q 550 1309 550 2009 
Q 550 2706 781 3412 
Q 1013 4119 1484 4856 
L 1984 4856 
z
" transform="scale(0.015625)"/>
      <path id="DejaVuSans-67" d="M 2906 1791 
Q 2906 2416 2648 2759 
Q 2391 3103 1925 3103 
Q 1463 3103 1205 2759 
Q 947 2416 947 1791 
Q 947 1169 1205 825 
Q 1463 481 1925 481 
Q 2391 481 2648 825 
Q 2906 1169 2906 1791 
z
M 3481 434 
Q 3481 -459 3084 -895 
Q 2688 -1331 1869 -1331 
Q 1566 -1331 1297 -1286 
Q 1028 -1241 775 -1147 
L 775 -588 
Q 1028 -725 1275 -790 
Q 1522 -856 1778 -856 
Q 2344 -856 2625 -561 
Q 2906 -266 2906 331 
L 2906 616 
Q 2728 306 2450 153 
Q 2172 0 1784 0 
Q 1141 0 747 490 
Q 353 981 353 1791 
Q 353 2603 747 3093 
Q 1141 3584 1784 3584 
Q 2172 3584 2450 3431 
Q 2728 3278 2906 2969 
L 2906 3500 
L 3481 3500 
L 3481 434 
z
" transform="scale(0.015625)"/>
      <path id="DejaVuSans-29" d="M 513 4856 
L 1013 4856 
Q 1481 4119 1714 3412 
Q 1947 2706 1947 2009 
Q 1947 1309 1714 600 
Q 1481 -109 1013 -844 
L 513 -844 
Q 928 -128 1133 580 
Q 1338 1288 1338 2009 
Q 1338 2731 1133 3434 
Q 928 4138 513 4856 
z
" transform="scale(0.015625)"/>
     </defs>
     <use xlink:href="#DejaVuSans-11d"/>
     <use xlink:href="#DejaVuSans-20" transform="translate(63.476562 0)"/>
     <use xlink:href="#DejaVuSans-28" transform="translate(95.263672 0)"/>
     <use xlink:href="#DejaVuSans-67" transform="translate(134.277344 0)"/>
     <use xlink:href="#DejaVuSans-72" transform="translate(197.753906 0)"/>
     <use xlink:href="#DejaVuSans-61" transform="translate(238.867188 0)"/>
     <use xlink:href="#DejaVuSans-6d" transform="translate(300.146484 0)"/>
     <use xlink:href="#DejaVuSans-73" transform="translate(397.558594 0)"/>
     <use xlink:href="#DejaVuSans-29" transform="translate(449.658203 0)"/>
    </g>
   </g>
   <g id="text_8">
    <!-- Side-angle frames -->
    <g style="fill: #334155" transform="translate(38.257062 206.505273) scale(0.1 -0.1)">
     <defs>
      <path id="DejaVuSans-Bold-53" d="M 3834 4519 
L 3834 3531 
Q 3450 3703 3084 3790 
Q 2719 3878 2394 3878 
Q 1963 3878 1756 3759 
Q 1550 3641 1550 3391 
Q 1550 3203 1689 3098 
Q 1828 2994 2194 2919 
L 2706 2816 
Q 3484 2659 3812 2340 
Q 4141 2022 4141 1434 
Q 4141 663 3683 286 
Q 3225 -91 2284 -91 
Q 1841 -91 1394 -6 
Q 947 78 500 244 
L 500 1259 
Q 947 1022 1364 901 
Q 1781 781 2169 781 
Q 2563 781 2772 912 
Q 2981 1044 2981 1288 
Q 2981 1506 2839 1625 
Q 2697 1744 2272 1838 
L 1806 1941 
Q 1106 2091 782 2419 
Q 459 2747 459 3303 
Q 459 4000 909 4375 
Q 1359 4750 2203 4750 
Q 2588 4750 2994 4692 
Q 3400 4634 3834 4519 
z
" transform="scale(0.015625)"/>
      <path id="DejaVuSans-Bold-66" d="M 2841 4863 
L 2841 4128 
L 2222 4128 
Q 1984 4128 1890 4042 
Q 1797 3956 1797 3744 
L 1797 3500 
L 2753 3500 
L 2753 2700 
L 1797 2700 
L 1797 0 
L 678 0 
L 678 2700 
L 122 2700 
L 122 3500 
L 678 3500 
L 678 3744 
Q 678 4316 997 4589 
Q 1316 4863 1984 4863 
L 2841 4863 
z
" transform="scale(0.015625)"/>
     </defs>
     <use xlink:href="#DejaVuSans-Bold-53"/>
     <use xlink:href="#DejaVuSans-Bold-69" transform="translate(72.021484 0)"/>
     <use xlink:href="#DejaVuSans-Bold-64" transform="translate(106.298828 0)"/>
     <use xlink:href="#DejaVuSans-Bold-65" transform="translate(177.880859 0)"/>
     <use xlink:href="#DejaVuSans-Bold-2d" transform="translate(245.703125 0)"/>
     <use xlink:href="#DejaVuSans-Bold-61" transform="translate(287.207031 0)"/>
     <use xlink:href="#DejaVuSans-Bold-6e" transform="translate(354.6875 0)"/>
     <use xlink:href="#DejaVuSans-Bold-67" transform="translate(425.878906 0)"/>
     <use xlink:href="#DejaVuSans-Bold-6c" transform="translate(497.460938 0)"/>
     <use xlink:href="#DejaVuSans-Bold-65" transform="translate(531.738281 0)"/>
     <use xlink:href="#DejaVuSans-Bold-20" transform="translate(599.560547 0)"/>
     <use xlink:href="#DejaVuSans-Bold-66" transform="translate(634.375 0)"/>
     <use xlink:href="#DejaVuSans-Bold-72" transform="translate(677.880859 0)"/>
     <use xlink:href="#DejaVuSans-Bold-61" transform="translate(727.197266 0)"/>
     <use xlink:href="#DejaVuSans-Bold-6d" transform="translate(794.677734 0)"/>
     <use xlink:href="#DejaVuSans-Bold-65" transform="translate(898.876953 0)"/>
     <use xlink:href="#DejaVuSans-Bold-73" transform="translate(966.699219 0)"/>
    </g>
   </g>
   <g id="text_9">
    <!-- 4 cameras -->
    <g style="fill: #6b7280" transform="translate(65.938781 229.331438) scale(0.09 -0.09)">
     <defs>
      <path id="DejaVuSans-34" d="M 2419 4116 
L 825 1625 
L 2419 1625 
L 2419 4116 
z
M 2253 4666 
L 3047 4666 
L 3047 1625 
L 3713 1625 
L 3713 1100 
L 3047 1100 
L 3047 0 
L 2419 0 
L 2419 1100 
L 313 1100 
L 313 1709 
L 2253 4666 
z
" transform="scale(0.015625)"/>
     </defs>
     <use xlink:href="#DejaVuSans-34"/>
     <use xlink:href="#DejaVuSans-20" transform="translate(63.623047 0)"/>
     <use xlink:href="#DejaVuSans-63" transform="translate(95.410156 0)"/>
     <use xlink:href="#DejaVuSans-61" transform="translate(150.390625 0)"/>
     <use xlink:href="#DejaVuSans-6d" transform="translate(211.669922 0)"/>
     <use xlink:href="#DejaVuSans-65" transform="translate(309.082031 0)"/>
     <use xlink:href="#DejaVuSans-72" transform="translate(370.605469 0)"/>
     <use xlink:href="#DejaVuSans-61" transform="translate(411.71875 0)"/>
     <use xlink:href="#DejaVuSans-73" transform="translate(472.998047 0)"/>
    </g>
   </g>
   <g id="text_10">
    <!-- Exp 1 per-gram model -->
    <g style="fill: #15803d" transform="translate(196.657572 206.777304) scale(0.11 -0.11)">
     <defs>
      <path id="DejaVuSans-Bold-31" d="M 750 831 
L 1813 831 
L 1813 3847 
L 722 3622 
L 722 4441 
L 1806 4666 
L 2950 4666 
L 2950 831 
L 4013 831 
L 4013 0 
L 750 0 
L 750 831 
z
" transform="scale(0.015625)"/>
     </defs>
     <use xlink:href="#DejaVuSans-Bold-45"/>
     <use xlink:href="#DejaVuSans-Bold-78" transform="translate(68.310547 0)"/>
     <use xlink:href="#DejaVuSans-Bold-70" transform="translate(132.8125 0)"/>
     <use xlink:href="#DejaVuSans-Bold-20" transform="translate(204.394531 0)"/>
     <use xlink:href="#DejaVuSans-Bold-31" transform="translate(239.208984 0)"/>
     <use xlink:href="#DejaVuSans-Bold-20" transform="translate(308.789062 0)"/>
     <use xlink:href="#DejaVuSans-Bold-70" transform="translate(343.603516 0)"/>
     <use xlink:href="#DejaVuSans-Bold-65" transform="translate(415.185547 0)"/>
     <use xlink:href="#DejaVuSans-Bold-72" transform="translate(483.007812 0)"/>
     <use xlink:href="#DejaVuSans-Bold-2d" transform="translate(532.324219 0)"/>
     <use xlink:href="#DejaVuSans-Bold-67" transform="translate(573.828125 0)"/>
     <use xlink:href="#DejaVuSans-Bold-72" transform="translate(645.410156 0)"/>
     <use xlink:href="#DejaVuSans-Bold-61" transform="translate(694.726562 0)"/>
     <use xlink:href="#DejaVuSans-Bold-6d" transform="translate(762.207031 0)"/>
     <use xlink:href="#DejaVuSans-Bold-20" transform="translate(866.40625 0)"/>
     <use xlink:href="#DejaVuSans-Bold-6d" transform="translate(901.220703 0)"/>
     <use xlink:href="#DejaVuSans-Bold-6f" transform="translate(1005.419922 0)"/>
     <use xlink:href="#DejaVuSans-Bold-64" transform="translate(1074.121094 0)"/>
     <use xlink:href="#DejaVuSans-Bold-65" transform="translate(1145.703125 0)"/>
     <use xlink:href="#DejaVuSans-Bold-6c" transform="translate(1213.525391 0)"/>
    </g>
   </g>
   <g id="text_11">
    <!-- frozen checkpoint -->
    <g style="fill: #6b7280" transform="translate(225.135853 229.331438) scale(0.09 -0.09)">
     <defs>
      <path id="DejaVuSans-66" d="M 2375 4863 
L 2375 4384 
L 1825 4384 
Q 1516 4384 1395 4259 
Q 1275 4134 1275 3809 
L 1275 3500 
L 2222 3500 
L 2222 3053 
L 1275 3053 
L 1275 0 
L 697 0 
L 697 3053 
L 147 3053 
L 147 3500 
L 697 3500 
L 697 3744 
Q 697 4328 969 4595 
Q 1241 4863 1831 4863 
L 2375 4863 
z
" transform="scale(0.015625)"/>
      <path id="DejaVuSans-7a" d="M 353 3500 
L 3084 3500 
L 3084 2975 
L 922 459 
L 3084 459 
L 3084 0 
L 275 0 
L 275 525 
L 2438 3041 
L 353 3041 
L 353 3500 
z
" transform="scale(0.015625)"/>
      <path id="DejaVuSans-68" d="M 3513 2113 
L 3513 0 
L 2938 0 
L 2938 2094 
Q 2938 2591 2744 2837 
Q 2550 3084 2163 3084 
Q 1697 3084 1428 2787 
Q 1159 2491 1159 1978 
L 1159 0 
L 581 0 
L 581 4863 
L 1159 4863 
L 1159 2956 
Q 1366 3272 1645 3428 
Q 1925 3584 2291 3584 
Q 2894 3584 3203 3211 
Q 3513 2838 3513 2113 
z
" transform="scale(0.015625)"/>
      <path id="DejaVuSans-6b" d="M 581 4863 
L 1159 4863 
L 1159 1991 
L 2875 3500 
L 3609 3500 
L 1753 1863 
L 3688 0 
L 2938 0 
L 1159 1709 
L 1159 0 
L 581 0 
L 581 4863 
z
" transform="scale(0.015625)"/>
     </defs>
     <use xlink:href="#DejaVuSans-66"/>
     <use xlink:href="#DejaVuSans-72" transform="translate(35.205078 0)"/>
     <use xlink:href="#DejaVuSans-6f" transform="translate(74.068359 0)"/>
     <use xlink:href="#DejaVuSans-7a" transform="translate(135.25 0)"/>
     <use xlink:href="#DejaVuSans-65" transform="translate(187.740234 0)"/>
     <use xlink:href="#DejaVuSans-6e" transform="translate(249.263672 0)"/>
     <use xlink:href="#DejaVuSans-20" transform="translate(312.642578 0)"/>
     <use xlink:href="#DejaVuSans-63" transform="translate(344.429688 0)"/>
     <use xlink:href="#DejaVuSans-68" transform="translate(399.410156 0)"/>
     <use xlink:href="#DejaVuSans-65" transform="translate(462.789062 0)"/>
     <use xlink:href="#DejaVuSans-63" transform="translate(524.3125 0)"/>
     <use xlink:href="#DejaVuSans-6b" transform="translate(579.292969 0)"/>
     <use xlink:href="#DejaVuSans-70" transform="translate(637.203125 0)"/>
     <use xlink:href="#DejaVuSans-6f" transform="translate(700.679688 0)"/>
     <use xlink:href="#DejaVuSans-69" transform="translate(761.861328 0)"/>
     <use xlink:href="#DejaVuSans-6e" transform="translate(789.644531 0)"/>
     <use xlink:href="#DejaVuSans-74" transform="translate(853.023438 0)"/>
    </g>
   </g>
   <g id="text_12">
    <!-- cal / g -->
    <g style="fill: #c2410c" transform="translate(405.051278 209.247079) scale(0.115 -0.115)">
     <defs>
      <path id="DejaVuSans-Bold-2f" d="M 1644 4666 
L 2338 4666 
L 691 -594 
L 0 -594 
L 1644 4666 
z
" transform="scale(0.015625)"/>
     </defs>
     <use xlink:href="#DejaVuSans-Bold-63"/>
     <use xlink:href="#DejaVuSans-Bold-61" transform="translate(59.277344 0)"/>
     <use xlink:href="#DejaVuSans-Bold-6c" transform="translate(126.757812 0)"/>
     <use xlink:href="#DejaVuSans-Bold-20" transform="translate(161.035156 0)"/>
     <use xlink:href="#DejaVuSans-Bold-2f" transform="translate(195.849609 0)"/>
     <use xlink:href="#DejaVuSans-Bold-20" transform="translate(232.373047 0)"/>
     <use xlink:href="#DejaVuSans-Bold-67" transform="translate(267.1875 0)"/>
    </g>
   </g>
   <g id="text_13">
    <!-- kcal per gram -->
    <g style="fill: #6b7280" transform="translate(393.259716 225.899438) scale(0.09 -0.09)">
     <use xlink:href="#DejaVuSans-6b"/>
     <use xlink:href="#DejaVuSans-63" transform="translate(57.910156 0)"/>
     <use xlink:href="#DejaVuSans-61" transform="translate(112.890625 0)"/>
     <use xlink:href="#DejaVuSans-6c" transform="translate(174.169922 0)"/>
     <use xlink:href="#DejaVuSans-20" transform="translate(201.953125 0)"/>
     <use xlink:href="#DejaVuSans-70" transform="translate(233.740234 0)"/>
     <use xlink:href="#DejaVuSans-65" transform="translate(297.216797 0)"/>
     <use xlink:href="#DejaVuSans-72" transform="translate(358.740234 0)"/>
     <use xlink:href="#DejaVuSans-20" transform="translate(399.853516 0)"/>
     <use xlink:href="#DejaVuSans-67" transform="translate(431.640625 0)"/>
     <use xlink:href="#DejaVuSans-72" transform="translate(495.117188 0)"/>
     <use xlink:href="#DejaVuSans-61" transform="translate(536.230469 0)"/>
     <use xlink:href="#DejaVuSans-6d" transform="translate(597.509766 0)"/>
    </g>
   </g>
   <g id="patch_16">
    <path d="M 538.5008 173.88512 
C 543.015278 173.88512 547.345463 172.091499 550.537681 168.899281 
C 553.729899 165.707063 555.52352 161.376878 555.52352 156.8624 
C 555.52352 152.347922 553.729899 148.017737 550.537681 144.825519 
C 547.345463 141.633301 543.015278 139.83968 538.5008 139.83968 
C 533.986322 139.83968 529.656137 141.633301 526.463919 144.825519 
C 523.271701 148.017737 521.47808 152.347922 521.47808 156.8624 
C 521.47808 161.376878 523.271701 165.707063 526.463919 168.899281 
C 529.656137 172.091499 533.986322 173.88512 538.5008 173.88512 
z
" clip-path="url(#p9fc025f145)" style="fill: #0b1020; opacity: 0.16"/>
    <path d="M 537.1008 172.48512 
C 541.615278 172.48512 545.945463 170.691499 549.137681 167.499281 
C 552.329899 164.307063 554.12352 159.976878 554.12352 155.4624 
C 554.12352 150.947922 552.329899 146.617737 549.137681 143.425519 
C 545.945463 140.233301 541.615278 138.43968 537.1008 138.43968 
C 532.586322 138.43968 528.256137 140.233301 525.063919 143.425519 
C 521.871701 146.617737 520.07808 150.947922 520.07808 155.4624 
C 520.07808 159.976878 521.871701 164.307063 525.063919 167.499281 
C 528.256137 170.691499 532.586322 172.48512 537.1008 172.48512 
z
" clip-path="url(#p9fc025f145)" style="fill: #ffffff; stroke: #b91c1c; stroke-width: 2; stroke-linejoin: miter"/>
   </g>
   <g id="text_14">
    <!-- Calories -->
    <g style="fill: #b91c1c" transform="translate(620.108603 150.648052) scale(0.13 -0.13)">
     <defs>
      <path id="DejaVuSans-Bold-43" d="M 4288 256 
Q 3956 84 3597 -3 
Q 3238 -91 2847 -91 
Q 1681 -91 1000 561 
Q 319 1213 319 2328 
Q 319 3447 1000 4098 
Q 1681 4750 2847 4750 
Q 3238 4750 3597 4662 
Q 3956 4575 4288 4403 
L 4288 3438 
Q 3953 3666 3628 3772 
Q 3303 3878 2944 3878 
Q 2300 3878 1931 3465 
Q 1563 3053 1563 2328 
Q 1563 1606 1931 1193 
Q 2300 781 2944 781 
Q 3303 781 3628 887 
Q 3953 994 4288 1222 
L 4288 256 
z
" transform="scale(0.015625)"/>
     </defs>
     <use xlink:href="#DejaVuSans-Bold-43"/>
     <use xlink:href="#DejaVuSans-Bold-61" transform="translate(73.388672 0)"/>
     <use xlink:href="#DejaVuSans-Bold-6c" transform="translate(140.869141 0)"/>
     <use xlink:href="#DejaVuSans-Bold-6f" transform="translate(175.146484 0)"/>
     <use xlink:href="#DejaVuSans-Bold-72" transform="translate(243.847656 0)"/>
     <use xlink:href="#DejaVuSans-Bold-69" transform="translate(293.164062 0)"/>
     <use xlink:href="#DejaVuSans-Bold-65" transform="translate(327.441406 0)"/>
     <use xlink:href="#DejaVuSans-Bold-73" transform="translate(395.263672 0)"/>
    </g>
   </g>
   <g id="text_15">
    <!-- kcal -->
    <g style="fill: #6b7280" transform="translate(640.077627 170.439006) scale(0.095 -0.095)">
     <use xlink:href="#DejaVuSans-6b"/>
     <use xlink:href="#DejaVuSans-63" transform="translate(57.910156 0)"/>
     <use xlink:href="#DejaVuSans-61" transform="translate(112.890625 0)"/>
     <use xlink:href="#DejaVuSans-6c" transform="translate(174.169922 0)"/>
    </g>
   </g>
   <g id="text_16">
    <!-- × -->
    <g style="fill: #b91c1c" transform="translate(528.721113 160.43203) scale(0.2 -0.2)">
     <defs>
      <path id="DejaVuSans-Bold-d7" d="M 4563 3359 
L 3206 2003 
L 4563 653 
L 4038 128 
L 2681 1478 
L 1325 128 
L 800 653 
L 2156 2003 
L 800 3359 
L 1325 3884 
L 2681 2528 
L 4038 3884 
L 4563 3359 
z
" transform="scale(0.015625)"/>
     </defs>
     <use xlink:href="#DejaVuSans-Bold-d7"/>
    </g>
   </g>
  </g>
 </g>
 <defs>
  <clipPath id="p9fc025f145">
   <rect x="7.2" y="7.2" width="727.584" height="288.288"/>
  </clipPath>
 </defs>
</svg>
